SplineFontDB: 3.0
FontName: BoonJot-400
FullName: BoonJot 400
FamilyName: BoonJot
Weight: 400
Copyright: Copyright (c) 2014-2015, Sungsit Sawaiwan (https://sungsit.com | gibbozer [at] gmail [dot] com). \n      \nThis Font Software is licensed under the SIL Open Font License, Version 1.1 (http://scripts.sil.org/OFL).
Version: 1.0-alpha1
ItalicAngle: 0
UnderlinePosition: -120
UnderlineWidth: 60
Ascent: 960
Descent: 240
InvalidEm: 0
UFOAscent: 960
UFODescent: -240
LayerCount: 2
Layer: 0 0 "Back" 1
Layer: 1 0 "Fore" 0
FSType: 0
OS2Version: 4
OS2_WeightWidthSlopeOnly: 0
OS2_UseTypoMetrics: 0
CreationTime: 1435153839
ModificationTime: 1435772122
PfmFamily: 33
TTFWeight: 400
TTFWidth: 5
LineGap: 90
VLineGap: 0
Panose: 2 0 2 3 0 0 0 0 0 0
OS2TypoAscent: 960
OS2TypoAOffset: 0
OS2TypoDescent: -240
OS2TypoDOffset: 0
OS2TypoLinegap: 90
OS2WinAscent: 1320
OS2WinAOffset: 0
OS2WinDescent: 480
OS2WinDOffset: 0
HheadAscent: 1320
HheadAOffset: 0
HheadDescent: -480
HheadDOffset: 0
OS2SubXSize: 780
OS2SubYSize: 840
OS2SubXOff: 0
OS2SubYOff: 180
OS2SupXSize: 780
OS2SupYSize: 840
OS2SupXOff: 0
OS2SupYOff: 600
OS2StrikeYSize: 60
OS2StrikeYPos: 300
OS2Vendor: 'BOON'
OS2CodePages: 00010000.00000000
OS2UnicodeRanges: 81000003.1000200a.00000000.00000000
MarkAttachClasses: 1
DEI: 91125
LangName: 1033 "" "" "" "" "" "" "" "" "BoonUni" "Sungsit Sawaiwan" "" "https://boonuni.com/" "https://sungsit.com/" "" "http://scripts.sil.org/OFL"
Encoding: UnicodeFull
Compacted: 1
UnicodeInterp: none
NameList: Adobe Glyph List
DisplaySize: -48
AntiAlias: 1
FitToEm: 1
WinInfo: 0 14 7
BeginPrivate: 0
EndPrivate
AnchorClass2: "ThaiBelow.mark" "" "ThaiAbove.mark" "" "ThaiAbove.left.mark" "" "ThaiOpt.mark" "" "ThaiBelow.mkmk" "" "ThaiAbove.mkmk" "" "LatinAbove.mark" "" "LatinBelow.mark" "" "LatinAbove.mark_1" "" "LatinCedilla.mark" "" "LatinOgonek.mark" "" "LatinAbove.mkmk" "" "LatinBelow.mkmk" "" 
BeginChars: 1114113 733

StartChar: .notdef
Encoding: 1114112 -1 0
Width: 720
VWidth: 0
Flags: W
HStem: -0 40<220 512.245> 562 41<207 516>
VStem: 147 60<329.737 563> 161 59<44 274.798> 507 60<43 563.812>
LayerCount: 2
Back
SplineSet
538 553 m 0
 536 417 539 162 543 25 c 1
 463 18 313 18 191 25 c 5
 185 209 180 429 177 585 c 1
 250 582 451 583 537 585 c 1025
EndSplineSet
Fore
SplineSet
516 564 m 1xd8
 466 563 392 562 323 562 c 0
 280 562 239 562 207 563 c 1xe8
 210 415 215 216 220 44 c 1
 272 41 330 40 384 40 c 0
 432 40 477 41 513 43 c 1
 510 153 507 322 507 452 c 0
 507 489 508 522 508 550 c 0
 508 555 511 560 516 564 c 1xd8
556 571 m 1
 564 568 568 562 568 556 c 0
 568 526 567 491 567 452 c 0
 567 314 570 136 573 29 c 0
 573 19 561 7 542 5 c 0
 500 1 442 0 378 -0 c 0
 314 0 246 1 184 5 c 0
 171 6 161 12 161 21 c 0xd8
 155 205 150 425 147 581 c 0
 147 584 147 605 180 605 c 0
 181 605 182 605 184 605 c 0
 210 604 254 603 303 603 c 0
 387 603 487 605 541 606 c 0
 556 606 566 599 566 589 c 0
 566 588 566 587 566 586 c 0
 565 581 562 575 556 571 c 1
EndSplineSet
Validated: 1
EndChar

StartChar: uni25CC
Encoding: 9676 9676 4
Width: 720
VWidth: 0
GlyphClass: 2
Flags: W
HStem: -20 60<326.061 394.777> 19 60<183.146 243.808 476.19 516.718> 122 66<78.7902 128.856 596.187 630.922> 265 70<41.8555 98.1472 621.856 678.147> 412 66<94.1868 128.922 583.425 630.856> 518 66<186.19 226.718 473.146 533.808> 560 60<326.061 394.777> 583 1<220.141 227.906>
VStem: 40 60<266.061 334.777> 76 1<160.141 167.906> 79 60<126.19 166.718 413.146 473.808> 182 66<29.0781 63.8132 531.144 581.21> 325 70<-18.1472 38.1445 561.853 618.144> 472 66<29.1435 76.5752 531.078 565.813> 581 60<123.146 183.808 416.19 456.718> 620 60<266.061 334.777>
AnchorPoint: "ThaiOpt.mark" 660 0 basechar 0
AnchorPoint: "ThaiAbove.mark" 660 0 basechar 0
AnchorPoint: "ThaiBelow.mark" 660 0 basechar 0
AnchorPoint: "LatinCedilla.mark" 390 0 basechar 0
AnchorPoint: "LatinBelow.mark" 360 0 basechar 0
AnchorPoint: "LatinAbove.mark" 360 0 basechar 0
LayerCount: 2
Fore
SplineSet
387 31 m 256xb81c
 388 30 395 24 395 13 c 258
 395 7 l 258
 393 -4 379 -20 356 -20 c 256
 335 -20 325 -6 325 7 c 256
 325 17 334 40 364 40 c 256
 366 40 369 39 371 39 c 258
 378 37 l 258
 382 36 385 33 387 31 c 256xb81c
387 611 m 256
 388 610 395 604 395 593 c 258
 395 587 l 258
 393 576 379 560 356 560 c 256
 335 560 325 574 325 587 c 256
 325 597 334 620 364 620 c 256x3a1c
 366 620 369 619 371 619 c 258
 378 617 l 258
 382 616 385 613 387 611 c 256
629 327 m 256
 630 328 636 335 647 335 c 258
 653 335 l 258
 664 333 680 319 680 296 c 256
 680 275 666 265 653 265 c 256
 643 265 620 274 620 304 c 256x381d
 620 306 621 309 621 311 c 258
 623 318 l 258
 624 322 627 325 629 327 c 256
49 327 m 256
 50 328 56 335 67 335 c 258
 73 335 l 258
 84 333 100 319 100 296 c 256
 100 275 86 265 73 265 c 256
 63 265 40 274 40 304 c 256x389c
 40 306 41 309 41 311 c 258
 43 318 l 258
 44 322 47 325 49 327 c 256
518 81 m 256
 519 81 528 79 534 69 c 258
 537 64 l 258
 538 62 538 58 538 55 c 256
 538 44 533 30 517 21 c 256
 511 18 504 16 499 16 c 256
 488 16 480 22 476 29 c 256
 474 32 472 39 472 45 c 256
 472 55 477 68 493 77 c 256
 495 78 498 78 500 79 c 258x781c
 507 81 l 258
 509 81 511 82 513 82 c 256
 515 82 516 81 518 81 c 256
228 583 m 256x391c
 229 583 238 581 244 571 c 258
 247 566 l 258
 248 564 248 560 248 557 c 256
 248 546 243 532 227 523 c 256
 221 520 214 518 209 518 c 256
 198 518 190 524 186 531 c 256
 184 534 182 541 182 547 c 256
 182 557 187 570 203 579 c 256
 205 580 208 581 210 582 c 258
 217 584 l 258
 218 584 219 584 220 584 c 256x3c1c
 223 584 226 584 228 583 c 256x391c
579 458 m 256
 579 459 581 468 591 474 c 258
 596 477 l 258
 598 478 602 478 605 478 c 256
 616 478 630 473 639 457 c 256
 642 451 644 444 644 439 c 256
 644 428 638 420 631 416 c 256
 628 414 621 412 615 412 c 256
 605 412 592 417 583 433 c 256
 582 435 582 438 581 440 c 258x381e
 579 447 l 258
 579 449 578 451 578 453 c 256
 578 455 579 456 579 458 c 256
77 168 m 256x385c
 77 169 79 178 89 184 c 258
 94 187 l 258
 96 188 100 188 103 188 c 256
 114 188 128 183 137 167 c 256
 140 161 142 154 142 149 c 256
 142 138 136 130 129 126 c 256
 126 124 119 122 113 122 c 256
 103 122 90 127 81 143 c 256
 80 145 79 148 78 150 c 258
 76 157 l 258
 76 158 76 159 76 160 c 256
 76 163 76 166 77 168 c 256x385c
249 54 m 256
 249 53 250 50 250 46 c 256
 250 43 250 38 247 34 c 258
 244 29 l 258
 240 23 230 19 219 19 c 256
 212 19 205 20 197 25 c 256
 185 32 180 43 180 52 c 256
 180 57 181 60 183 64 c 256
 186 70 196 79 211 79 c 256x781c
 217 79 225 78 233 73 c 256
 235 72 237 69 239 68 c 258
 244 63 l 258
 247 60 248 57 249 54 c 256
539 556 m 256
 539 555 540 552 540 548 c 256
 540 545 540 540 537 536 c 258
 534 531 l 258
 530 525 520 521 509 521 c 256
 502 521 495 522 487 527 c 256
 475 534 470 545 470 554 c 256
 470 559 471 562 473 566 c 256
 476 572 486 581 501 581 c 256
 507 581 515 580 523 575 c 256
 525 574 527 572 529 571 c 258
 534 566 l 258
 537 563 538 559 539 556 c 256
606 189 m 256
 607 189 610 190 614 190 c 256
 617 190 622 190 626 187 c 258
 631 184 l 258
 637 180 641 170 641 159 c 256
 641 152 640 145 635 137 c 256
 628 125 617 120 608 120 c 256
 603 120 600 121 596 123 c 256
 590 126 581 136 581 151 c 256x381e
 581 157 582 165 587 173 c 256
 588 175 591 177 592 179 c 258
 597 184 l 258
 600 187 603 188 606 189 c 256
104 479 m 256
 105 479 108 480 112 480 c 256
 115 480 120 480 124 477 c 258
 129 474 l 258
 135 470 139 460 139 449 c 256
 139 442 138 435 133 427 c 256
 126 415 115 410 106 410 c 256
 101 410 98 411 94 413 c 256
 88 416 79 426 79 441 c 256x383c
 79 447 80 455 85 463 c 256
 86 465 88 467 89 469 c 258
 94 474 l 258
 97 477 101 478 104 479 c 256
EndSplineSet
Validated: 1
EndChar

StartChar: exclam
Encoding: 33 33 5
Width: 330
VWidth: 0
GlyphClass: 2
Flags: W
HStem: -5 137<104.137 224.514>
VStem: 81 168<19.1304 108.517> 101 119<494.584 825.529> 125 80<274.406 573.436>
LayerCount: 2
Back
SplineSet
140 800 m 1
 180 807 l 1
 178 720 182 570 165 300 c 1
 157 438 150 713 140 800 c 1
EndSplineSet
Refer: 18 46 S 1 0 0 1 0 0 2
Fore
SplineSet
136 828 m 258xa0
 176 835 l 258
 179 836 183 836 187 836 c 256
 202 836 220 830 220 812 c 258
 220 811 l 258xa0
 218 725 222 574 205 303 c 256
 204 285 176 268 153 268 c 256
 138 268 126 275 125 295 c 256x90
 117 433 111 709 101 794 c 256
 101 795 101 795 101 796 c 256
 101 811 118 825 136 828 c 258xa0
EndSplineSet
Refer: 18 46 S 1 0 0 1 0 0 2
Validated: 1
EndChar

StartChar: quotedbl
Encoding: 34 34 6
Width: 510
VWidth: 0
GlyphClass: 2
Flags: W
HStem: 548 290 819 20G<347 378.5>
VStem: 107 99<558.996 832.861> 304 99<581.009 834.861>
LayerCount: 2
Back
SplineSet
344 809 m 1
 363 810 l 1
 362 723 357 616 352 585 c 1
 348 624 349 722 344 809 c 1
147 807 m 1
 166 808 l 1
 165 721 164 611 159 580 c 1
 155 619 152 720 147 807 c 1
EndSplineSet
Fore
SplineSet
347 838 m 258xb0
 366 839 l 258
 367 839 367 839 368 839 c 256x70
 389 839 403 827 403 814 c 256
 402 726 397 620 391 586 c 256
 389 571 362 553 340 553 c 256
 326 553 315 560 313 579 c 256
 309 621 309 718 304 804 c 256
 304 805 304 805 304 806 c 256
 304 818 315 836 347 838 c 258xb0
150 836 m 258
 169 837 l 258
 170 837 170 837 171 837 c 256
 192 837 206 825 206 812 c 256
 205 724 204 616 198 581 c 256
 196 566 169 548 147 548 c 256xb0
 133 548 122 555 120 574 c 256
 116 615 112 715 107 802 c 256
 107 803 107 803 107 804 c 256
 107 816 118 834 150 836 c 258
EndSplineSet
Validated: 1
EndChar

StartChar: numbersign
Encoding: 35 35 7
Width: 720
VWidth: 0
GlyphClass: 2
Flags: W
HStem: -29 31G<134.5 154.5 404.5 424.5> 236 58<21.1999 160 250 428 517 658.194> 516 58<61.1999 214 301 482 570 698.194> 809 20G<294.5 315> 819 20G<564.5 585>
VStem: 261 78<644.375 825.612> 531 78<650.943 835.612>
LayerCount: 2
Back
SplineSet
620 265 m 21
 403 264 277 263 60 270 c 1025
100 550 m 1
 317 543 443 544 660 545 c 1037
570 810 m 1
 521 503 485 317 420 10 c 1025
300 800 m 1
 251 493 215 307 150 0 c 1025
EndSplineSet
Fore
SplineSet
305 829 m 256xf6
 325 829 339 819 339 804 c 256
 339 803 339 802 339 801 c 256
 326 718 313 644 301 574 c 257
 365 573 427 573 492 573 c 257
 505 646 517 723 531 809 c 256xf6
 533 825 554 839 575 839 c 256xee
 595 839 609 829 609 814 c 256
 609 813 609 812 609 811 c 256
 595 724 583 647 570 574 c 257
 600 574 632 574 666 574 c 256
 685 574 699 563 699 549 c 256
 699 548 699 546 699 545 c 256
 696 529 675 516 654 516 c 256
 621 516 589 516 559 516 c 257
 546 441 532 369 517 294 c 257
 551 294 587 294 626 294 c 256
 645 294 659 283 659 269 c 256
 659 268 659 266 659 265 c 256
 656 249 635 236 614 236 c 256
 575 236 540 236 506 236 c 257
 492 166 476 92 459 10 c 256
 456 -6 435 -19 414 -19 c 256
 395 -19 381 -8 381 6 c 256
 381 7 381 9 381 10 c 256
 398 92 414 166 428 235 c 257
 363 235 303 235 238 236 c 257
 223 163 207 87 189 -0 c 256
 186 -16 165 -29 144 -29 c 256
 125 -29 111 -18 111 -4 c 256
 111 -3 111 -1 111 0 c 256
 129 87 145 165 160 238 c 257
 126 239 91 240 52 241 c 256
 33 242 20 253 20 266 c 256
 20 268 21 269 21 271 c 256
 25 286 46 299 66 299 c 256
 67 299 67 299 68 299 c 256
 105 298 139 297 172 296 c 257
 187 371 201 443 214 518 c 257
 176 519 136 520 92 521 c 256
 73 522 60 533 60 546 c 256
 60 548 61 549 61 551 c 256
 65 566 86 579 106 579 c 256
 107 579 107 579 108 579 c 256
 150 578 188 577 224 576 c 257
 236 645 248 718 261 799 c 256
 263 815 284 829 305 829 c 256xf6
291 516 m 257
 278 441 265 370 250 295 c 257
 315 294 374 293 439 293 c 257
 454 368 469 440 482 515 c 257
 417 515 355 515 291 516 c 257
EndSplineSet
Validated: 1
EndChar

StartChar: dollar
Encoding: 36 36 8
Width: 720
VWidth: 0
GlyphClass: 2
Flags: W
HStem: -20 83<258.359 323> 744 78<263.083 321 396 460.427>
VStem: 70 109<142.936 187.748 538.02 670.239> 318 75<68.2874 350 474 733.554> 323 74<-124.9 -19.0383 63 328.378 477.938 738 822 923.688> 504 110<594.958 703.511> 565 109<126.374 273.929>
LayerCount: 2
Back
SplineSet
365 -100 m 5
 351 293 355 507 360 900 c 1029
EndSplineSet
Refer: 55 83 N 1 0 0 1 0 0 2
Fore
SplineSet
360 926 m 256xe8
 362 926 363 926 365 926 c 256
 383 926 397 917 397 904 c 256
 397 876 396 848 396 822 c 257
 397 822 399 822 400 822 c 256
 539 822 614 737 614 648 c 256
 614 640 613 633 612 625 c 256
 609 604 581 585 552 584 c 256
 551 584 551 584 550 584 c 256
 524 584 504 598 504 617 c 256
 504 618 504 620 504 621 c 256xec
 505 626 505 631 505 636 c 256
 505 692 458 739 395 744 c 257
 394 637 392 541 392 448 c 257
 439 432 486 415 506 408 c 256
 622 371 674 294 674 216 c 256
 674 174 658 131 630 94 c 256
 584 35 503 -13 400 -21 c 257
 401 -45 401 -70 402 -95 c 258
 402 -96 l 258
 402 -110 385 -123 366 -126 c 256
 364 -126 361 -127 359 -127 c 256
 342 -127 329 -117 328 -105 c 256
 327 -76 326 -47 325 -20 c 257
 197 -8 115 60 80 147 c 256
 79 150 78 154 78 157 c 256
 78 174 94 192 118 199 c 256
 126 201 134 202 141 202 c 256
 161 202 178 194 184 179 c 256
 208 119 256 78 323 63 c 257xea
 320 176 318 276 318 375 c 257xf0
 284 387 253 398 236 404 c 256
 123 442 70 515 70 590 c 256
 70 601 71 611 73 622 c 256
 91 709 184 793 322 816 c 257
 322 842 323 868 323 896 c 256
 323 910 340 924 360 926 c 256xe8
319 474 m 257
 319 558 320 643 321 738 c 257
 239 722 192 674 181 622 c 256
 180 615 179 609 179 602 c 256
 179 555 213 509 294 482 c 256
 301 480 309 477 319 474 c 257
393 350 m 257xf2
 393 258 394 163 397 56 c 257xe8
 462 59 509 86 537 124 c 256
 555 148 565 176 565 203 c 256
 565 254 531 305 450 330 c 256
 438 334 418 341 393 350 c 257xf2
EndSplineSet
Validated: 1
EndChar

StartChar: percent
Encoding: 37 37 9
Width: 720
VWidth: 0
GlyphClass: 2
Flags: W
HStem: -6 52<530.614 589.808> 301 52<520.636 575.728> 444 52<140.614 199.808> 751 52<130.636 185.728>
VStem: 30 78<529.853 731.917> 222 78<512.485 710.129> 420 78<79.8527 281.917> 612 78<62.4852 260.129>
LayerCount: 2
Back
SplineSet
630 765 m 1
 476 546 246 229 90 35 c 1025
604 282 m 1
 628 261 640 219 640 178 c 0
 640 69 594 20 547 20 c 4
 498 20 448 74 448 170 c 0
 448 279 497 327 545 327 c 0
 568 327 591 315 608 294 c 1025
236 745 m 1
 260 724 272 682 272 641 c 0
 272 532 226 483 179 483 c 0
 130 483 80 537 80 633 c 0
 80 742 129 790 177 790 c 0
 200 790 223 778 240 757 c 1025
EndSplineSet
Fore
Refer: 577 8320 S 1 0 0 1 0 540 2
Refer: 577 8320 N 1 0 0 1 390 90 2
Refer: 213 8260 N 1 0 0 1 0 0 2
Validated: 1
EndChar

StartChar: ampersand
Encoding: 38 38 10
Width: 800
VWidth: 0
GlyphClass: 2
Flags: W
HStem: -29 78<219.5 417.689> 734 72<323.482 433.378>
VStem: 66 108<93.4772 237.488> 202 104<513.311 719.761> 450 98<564.255 718.069> 596 109<271.823 389.25>
LayerCount: 2
Back
SplineSet
650 360 m 1
 614 195 513 10 310 10 c 0
 191 10 120 72 120 160 c 0
 120 262 246 345 370 440 c 0
 528 561 552 770 380 770 c 0
 212 770 226 541 340 410 c 0
 429 308 588 126 710 10 c 1025
EndSplineSet
Fore
SplineSet
352 475 m 257
 403 519 436 575 446 624 c 256
 448 636 450 647 450 657 c 256
 450 708 420 734 373 734 c 256
 360 734 352 732 346 730 c 256
 323 721 306 681 306 629 c 256
 306 584 319 529 352 475 c 257
659 399 m 256
 685 399 705 384 705 366 c 256
 705 364 704 362 704 360 c 256
 690 298 667 226 627 161 c 257
 670 115 712 71 751 34 c 256
 757 29 759 23 759 16 c 256
 759 5 752 -8 738 -16 c 256
 728 -22 715 -25 703 -25 c 256
 690 -25 677 -21 669 -14 c 256
 638 16 604 49 570 85 c 257
 507 18 421 -29 302 -29 c 256
 153 -29 66 51 66 154 c 256
 66 258 171 341 274 417 c 257
 232 476 202 555 202 626 c 256
 202 691 227 751 294 785 c 256
 321 799 354 806 387 806 c 256
 503 806 548 737 548 664 c 256
 548 651 547 637 544 624 c 256
 530 554 483 478 404 418 c 256
 402 417 401 415 399 414 c 257
 442 365 497 302 556 237 c 257
 573 275 587 317 596 360 c 256
 601 381 630 399 659 399 c 256
507 153 m 257
 440 226 373 300 323 358 c 257
 233 286 174 228 174 166 c 256
 174 93 229 49 318 49 c 256
 395 49 459 90 507 153 c 257
EndSplineSet
Validated: 1
EndChar

StartChar: quotesingle
Encoding: 39 39 11
Width: 330
VWidth: 0
GlyphClass: 2
Flags: W
HStem: 544 298<121.562 203.378>
VStem: 110 109<559.9 836.81>
LayerCount: 2
Back
SplineSet
154 809 m 1
 175 810 l 1
 174 723 170 611 165 580 c 1
 161 619 159 722 154 809 c 1
EndSplineSet
Fore
SplineSet
158 841 m 258
 179 842 l 258
 180 842 180 842 181 842 c 256
 205 842 219 828 219 814 c 256
 218 726 215 616 209 581 c 256
 206 564 175 544 151 544 c 256
 136 544 123 551 121 573 c 256
 117 614 115 716 110 803 c 256
 110 804 110 804 110 805 c 256
 110 818 121 839 158 841 c 258
EndSplineSet
Validated: 1
EndChar

StartChar: parenleft
Encoding: 40 40 12
Width: 360
VWidth: 0
GlyphClass: 2
Flags: W
VStem: 55 90<186.137 628.347>
LayerCount: 2
Back
SplineSet
240 -80 m 1
 188 -22 100 159 100 420 c 0
 100 618 155 764 240 860 c 1029
EndSplineSet
Fore
SplineSet
262 -105 m 256
 253 -110 244 -112 235 -112 c 256
 224 -112 214 -108 207 -100 c 256
 149 -35 55 149 55 415 c 256
 55 617 116 769 209 874 c 256
 219 885 234 892 249 892 c 256
 255 892 260 891 266 889 c 256
 277 885 281 877 281 869 c 256
 281 862 278 854 271 846 c 256
 194 759 145 619 145 425 c 256
 145 169 227 -9 273 -60 c 256
 278 -66 280 -72 280 -79 c 256
 280 -89 275 -98 262 -105 c 256
EndSplineSet
Validated: 1
EndChar

StartChar: parenright
Encoding: 41 41 13
Width: 360
VWidth: 0
GlyphClass: 2
Flags: W
VStem: 215 90<151.653 593.863>
LayerCount: 2
Back
SplineSet
120 860 m 5
 172 802 260 621 260 360 c 4
 260 162 205 16 120 -80 c 1029
EndSplineSet
Fore
SplineSet
98 885 m 256
 107 890 116 892 125 892 c 256
 136 892 146 888 153 880 c 256
 211 815 305 631 305 365 c 256
 305 163 244 11 151 -94 c 256
 141 -105 126 -112 111 -112 c 256
 105 -112 100 -111 94 -109 c 256
 83 -105 79 -97 79 -89 c 256
 79 -82 82 -74 89 -66 c 256
 166 21 215 161 215 355 c 256
 215 611 133 789 87 840 c 256
 82 846 80 852 80 859 c 256
 80 869 85 878 98 885 c 256
EndSplineSet
Validated: 1
EndChar

StartChar: asterisk
Encoding: 42 42 14
Width: 600
VWidth: 0
GlyphClass: 2
Flags: W
HStem: 691 54<93.4255 154.076> 829 20G<300 310>
VStem: 256 80<675.295 845.126> 265 80<395.043 568.611>
LayerCount: 2
Back
SplineSet
124 716 m 21
 181 689 242 657 302 623 c 5
 362 589 421 556 476 524 c 13
 124 716 l 21
471 724 m 21
 419 688 361 652 302 617 c 5
 243 582 184 548 129 516 c 13
 471 724 l 21
295 820 m 21
 300 757 302 689 303 620 c 5
 304 551 305 483 305 420 c 13
 295 820 l 21
EndSplineSet
Fore
SplineSet
293 848 m 256xe0
 296 848 299 849 301 849 c 256
 319 849 333 839 334 826 c 256
 335 809 336 792 336 775 c 256xe0
 336 739 334 702 333 664 c 257
 372 690 410 718 446 743 c 256
 455 749 466 752 477 752 c 256
 487 752 495 750 502 745 c 256
 508 741 511 735 511 729 c 256
 511 721 506 712 496 705 c 256
 454 676 406 650 358 623 c 257
 408 597 458 573 503 547 c 256
 511 542 516 535 516 527 c 256
 516 520 512 513 505 507 c 256
 496 499 484 495 472 495 c 256
 464 495 456 497 449 501 c 256
 411 523 374 547 335 571 c 257
 339 520 345 471 345 424 c 256
 345 409 327 394 305 392 c 256
 303 392 302 392 300 392 c 256
 280 392 265 402 265 416 c 256xd0
 265 466 270 518 272 572 c 257
 230 545 191 518 151 495 c 256
 142 490 133 488 123 488 c 256
 112 488 102 491 96 497 c 256
 92 501 89 507 89 512 c 256
 89 521 96 531 107 537 c 256
 153 564 206 589 257 617 c 257
 204 645 148 667 99 691 c 256
 89 696 84 703 84 712 c 256
 84 718 87 725 93 731 c 256
 102 740 116 745 130 745 c 256
 137 745 143 744 149 741 c 256
 190 722 229 698 270 673 c 257
 266 722 260 769 256 814 c 256
 256 815 l 258
 256 830 272 845 293 848 c 256xe0
EndSplineSet
Validated: 1
EndChar

StartChar: plus
Encoding: 43 43 15
Width: 600
VWidth: 0
GlyphClass: 2
Flags: W
HStem: 310 70<82.8322 257 349 517.563>
VStem: 260 90<150.151 300.218 375.06 528.696>
LayerCount: 2
Back
SplineSet
295 500 m 5
 303 411 304 303 305 180 c 1033
475 340 m 1
 336 335 213 337 125 345 c 1025
EndSplineSet
Fore
SplineSet
81 349 m 256
 86 367 107 380 130 380 c 256
 132 380 133 380 135 380 c 256
 170 377 211 374 257 373 c 257
 256 417 253 457 250 494 c 256
 250 495 250 496 250 497 c 256
 250 515 269 532 292 535 c 256
 294 535 297 535 299 535 c 256
 320 535 338 523 340 506 c 256
 344 465 346 420 347 372 c 257
 388 372 432 373 478 375 c 256
 479 375 479 375 480 375 c 256
 502 375 520 361 520 343 c 258
 520 342 l 258
 519 323 496 306 472 305 c 256
 429 303 388 302 349 302 c 257
 350 264 350 225 350 184 c 256
 350 165 329 147 305 145 c 256
 303 145 302 145 300 145 c 256
 278 145 260 158 260 176 c 256
 260 220 260 263 259 303 c 257
 205 304 157 306 115 310 c 256
 94 312 80 326 80 342 c 256
 80 344 80 347 81 349 c 256
EndSplineSet
Validated: 1
EndChar

StartChar: comma
Encoding: 44 44 16
Width: 330
VWidth: 0
GlyphClass: 2
Flags: W
HStem: -182 58<66.3318 120.687> 48 79<81.6628 147.997>
VStem: 170 91<-71.6335 57.8213>
LayerCount: 2
Back
SplineSet
110 80 m 5
 231 153 271 -69 105 -150 c 1029
EndSplineSet
Fore
SplineSet
73 58 m 256
 68 63 65 69 65 75 c 256
 65 85 72 95 85 103 c 256
 89 106 93 109 98 111 c 256
 117 121 141 127 163 127 c 256
 165 127 166 127 168 127 c 256
 201 125 223 110 236 94 c 256
 252 74 261 46 261 15 c 256
 261 -50 222 -129 126 -176 c 256
 118 -180 108 -182 99 -182 c 256
 85 -182 73 -177 66 -169 c 256
 63 -165 61 -160 61 -155 c 256
 61 -143 69 -131 84 -124 c 256
 144 -94 170 -36 170 9 c 256
 170 28 165 45 157 55 c 256
 152 61 148 62 148 62 c 257
 148 62 144 62 135 57 c 256
 125 51 113 48 102 48 c 256
 90 48 80 51 73 58 c 256
EndSplineSet
Validated: 1
EndChar

StartChar: hyphen
Encoding: 45 45 17
Width: 600
VWidth: 0
GlyphClass: 2
Flags: W
HStem: 301 80<79.9924 517.039>
LayerCount: 2
Back
SplineSet
475 340 m 1
 336 335 213 337 125 345 c 1029
EndSplineSet
Fore
SplineSet
77 349 m 256
 84 367 108 381 133 381 c 256
 135 381 136 381 138 381 c 256
 191 376 259 373 337 373 c 256
 382 373 430 374 480 376 c 256
 481 376 481 376 482 376 c 256
 506 376 524 363 524 346 c 256
 524 345 524 343 524 342 c 256
 521 323 497 305 470 304 c 256
 418 302 369 301 322 301 c 256
 242 301 170 304 112 309 c 256
 90 311 75 324 75 340 c 256
 75 343 76 346 77 349 c 256
EndSplineSet
Validated: 1
EndChar

StartChar: period
Encoding: 46 46 18
Width: 330
VWidth: 0
GlyphClass: 2
Flags: W
HStem: -5 137<104.137 224.514>
VStem: 81 168<19.1304 108.517>
LayerCount: 2
Back
SplineSet
183 89 m 2
 187 84 195 76 195 65 c 0
 195 47 184 34 163 34 c 0
 147 34 135 43 135 62 c 0
 135 77 147 93 167 93 c 1
 183 89 l 2
EndSplineSet
Fore
SplineSet
231 112 m 256
 233 110 249 95 249 71 c 256
 249 67 249 62 248 58 c 256
 243 32 210 -5 155 -5 c 256
 105 -5 81 26 81 56 c 256
 81 79 103 132 175 132 c 256
 181 132 187 131 191 130 c 258
 207 126 l 258
 217 123 226 118 231 112 c 256
EndSplineSet
Validated: 1
EndChar

StartChar: slash
Encoding: 47 47 19
Width: 480
VWidth: 0
GlyphClass: 2
Flags: W
HStem: -29 21G<73 83> 808 20G<396 418>
VStem: 41 76<-26.2118 42.9601>
LayerCount: 2
Back
SplineSet
400 800 m 5
 309 524 206 264 80 0 c 1029
EndSplineSet
Fore
SplineSet
409 828 m 256
 427 827 439 817 439 804 c 256
 439 802 439 799 438 797 c 256
 347 520 244 259 117 -6 c 256
 111 -19 92 -29 74 -29 c 256
 72 -29 69 -28 67 -28 c 256
 51 -26 41 -15 41 -3 c 256
 41 0 42 3 43 6 c 256
 168 269 271 528 362 803 c 256
 367 818 386 828 406 828 c 256
 407 828 408 828 409 828 c 256
EndSplineSet
Validated: 1
EndChar

StartChar: zero
Encoding: 48 48 20
Width: 720
VWidth: 0
GlyphClass: 2
Flags: W
HStem: -24 80<310.077 439.163> 742 79<282.739 430.926>
VStem: 66 108<230.554 580.991> 546 108<215.506 555.262>
LayerCount: 2
Back
SplineSet
510 670 m 5
 570 618 600 512 600 410 c 4
 600 -145 120 -79 120 390 c 4
 120 798 393 861 520 700 c 1029
EndSplineSet
Fore
SplineSet
567 685 m 257
 629 620 654 516 654 416 c 256
 654 162 556 -4 386 -22 c 256
 376 -23 366 -24 357 -24 c 256
 185 -24 66 145 66 384 c 256
 66 599 136 737 257 795 c 256
 294 813 332 821 368 821 c 256
 449 821 522 781 568 723 c 256
 572 718 574 711 574 705 c 256
 574 698 572 691 567 685 c 257
464 686 m 257
 428 727 389 742 355 742 c 256
 336 742 319 738 304 730 c 256
 248 701 174 600 174 396 c 256
 174 153 308 56 379 56 c 256
 381 56 384 56 386 56 c 256
 438 62 546 143 546 404 c 256
 546 501 514 601 466 642 c 256
 459 648 456 656 456 664 c 256
 456 671 458 679 464 686 c 257
EndSplineSet
Validated: 1
EndChar

StartChar: one
Encoding: 49 49 21
Width: 720
VWidth: 0
GlyphClass: 2
Flags: W
HStem: -19 78<132.289 369.125> -9 76<277.453 373 479.953 678.93> 591 73<130.336 219.047> 792 20G<434 456.5>
VStem: 364 108<83.3049 676>
LayerCount: 2
Back
SplineSet
180 630 m 5
 262 663 353 704 425 770 c 5
 414 467 417 341 425 90 c 4
 427 24 568 40 630 30 c 5
 462 32 353 27 180 20 c 1029
EndSplineSet
Fore
SplineSet
130 610 m 256x78
 127 614 126 619 126 624 c 256
 126 639 139 656 159 664 c 256
 239 696 321 733 384 791 c 256
 384 791 420 812 448 812 c 256
 465 812 479 804 479 778 c 256
 479 777 479 776 479 775 c 256
 474 635 472 534 472 440 c 256
 472 331 475 232 479 97 c 257
 480 74 547 84 649 68 c 256
 656 67 687 41 687 19 c 256
 687 4 672 -9 623 -9 c 256
 622 -9 622 -9 621 -9 c 256
 596 -9 572 -9 549 -9 c 256x78
 421 -9 322 -13 175 -19 c 256
 174 -19 173 -19 172 -19 c 256
 145 -19 126 -5 126 14 c 256
 126 15 126 17 126 18 c 256
 129 39 155 58 185 59 c 256xb8
 255 62 314 65 373 67 c 257
 372 71 371 77 371 83 c 256
 367 219 364 318 364 429 c 256
 364 502 365 579 368 676 c 257
 312 642 253 617 201 596 c 256
 192 592 183 591 174 591 c 256
 155 591 137 598 130 610 c 256x78
EndSplineSet
Validated: 1
EndChar

StartChar: two
Encoding: 50 50 22
Width: 720
VWidth: 0
GlyphClass: 2
Flags: W
HStem: -13 84<181.689 598.011> 6 78<332.232 642.479> 620 21G<123.5 137.5> 740 79<256.59 444.738>
VStem: 501 108<519.364 683.913>
LayerCount: 2
Back
SplineSet
595 45 m 5
 443 29 125 16 125 65 c 4
 125 286 555 382 555 600 c 4
 555 831 239 826 135 660 c 1029
EndSplineSet
Fore
SplineSet
111 622 m 256xb8
 92 626 81 639 81 654 c 256
 81 660 82 666 86 672 c 256
 137 754 235 806 335 817 c 256
 348 818 360 819 373 819 c 256
 502 819 609 745 609 606 c 256
 609 355 193 261 180 81 c 257
 206 74 262 71 328 71 c 256xb8
 418 71 526 76 595 84 c 256
 598 84 601 84 603 84 c 256
 629 84 649 70 649 51 c 256
 649 30 625 9 595 6 c 256x78
 524 -1 408 -13 303 -13 c 256
 207 -13 120 -3 86 28 c 256
 78 36 71 46 71 59 c 256
 71 320 501 406 501 594 c 256
 501 703 426 740 356 740 c 256
 349 740 342 740 335 739 c 256
 279 733 219 703 184 648 c 256
 173 632 149 620 126 620 c 256
 121 620 116 621 111 622 c 256xb8
EndSplineSet
Validated: 1
EndChar

StartChar: three
Encoding: 51 51 23
Width: 720
VWidth: 0
GlyphClass: 2
Flags: W
HStem: -27 81<252.159 478.944> 361 76<229 367.542> 630 21G<118 132> 741 79<247.895 439.861>
VStem: 491 108<521.79 690.515> 546 108<120.892 316.947>
LayerCount: 2
Back
SplineSet
130 670 m 5
 244 826 545 827 545 610 c 4
 545 414 283 411 240 400 c 5
 294 400 600 472 600 230 c 4
 600 -48 225 -29 120 120 c 1029
EndSplineSet
Fore
SplineSet
103 633 m 256xf8
 86 638 76 651 76 664 c 256
 76 671 78 677 83 684 c 256
 138 760 234 808 329 818 c 256
 342 819 354 820 366 820 c 256
 493 820 599 749 599 616 c 256xf8
 599 535 547 473 488 436 c 257
 576 418 654 352 654 236 c 256
 654 126 598 44 504 3 c 256
 457 -18 406 -27 355 -27 c 256
 238 -27 124 23 71 98 c 256
 67 103 66 108 66 114 c 256
 66 129 77 144 97 153 c 256
 107 157 118 160 128 160 c 256
 145 160 161 153 169 142 c 256
 210 84 297 54 374 54 c 256
 405 54 434 59 458 69 c 256
 502 88 546 131 546 224 c 256xf4
 546 347 461 372 376 372 c 256
 346 372 316 369 290 366 c 256
 268 364 252 361 232 361 c 256
 210 361 203 370 203 382 c 256
 203 405 229 437 229 437 c 256
 306 457 491 446 491 604 c 256
 491 705 421 741 351 741 c 256
 344 741 336 741 329 740 c 256
 274 734 214 707 177 656 c 256
 165 640 143 630 121 630 c 256
 115 630 109 631 103 633 c 256xf8
EndSplineSet
Validated: 1
EndChar

StartChar: four
Encoding: 52 52 24
Width: 720
VWidth: 0
GlyphClass: 2
Flags: W
HStem: -30 21G<494 508.5> 174 79<154.587 456> 191 78<564 682.884> 599 20G<495 530.5> 809 20G<315 351>
VStem: 276 108<635.01 820.169> 456 108<-22.7069 179 263 610.53>
LayerCount: 2
Back
SplineSet
510 580 m 13
 515 10 l 1
 509 113 508 392 510 580 c 13
635 230 m 1
 393 210 85 209 85 240 c 0
 85 276 329 501 330 790 c 1025
EndSplineSet
Fore
SplineSet
330 829 m 256xde
 333 829 336 829 338 829 c 256
 364 829 384 815 384 796 c 256
 383 545 208 340 152 262 c 257
 190 256 244 253 307 253 c 256xde
 353 253 404 254 456 257 c 257
 456 310 455 366 455 420 c 256
 455 474 456 527 456 575 c 256
 456 596 480 616 510 619 c 256
 512 619 515 619 517 619 c 256
 544 619 564 604 564 585 c 256
 564 537 563 483 563 428 c 256
 563 373 564 317 564 263 c 257
 589 265 613 267 637 269 c 256
 639 269 640 269 642 269 c 256
 669 269 689 254 689 235 c 258
 689 234 l 258
 688 213 663 193 633 191 c 256xbe
 612 189 589 188 564 186 c 257
 565 115 567 54 569 17 c 258
 569 16 l 258
 569 -5 546 -25 517 -29 c 256
 514 -29 510 -30 507 -30 c 256
 481 -30 462 -16 461 3 c 256
 459 42 457 105 456 179 c 257
 400 176 341 174 286 174 c 256
 147 174 31 187 31 234 c 256
 31 314 275 501 276 784 c 256
 276 805 300 826 330 829 c 256xde
EndSplineSet
Validated: 1
EndChar

StartChar: five
Encoding: 53 53 25
Width: 720
VWidth: 0
GlyphClass: 2
Flags: W
HStem: -26 79<257.415 462.518> 409 78<261.006 484.769> 716 78<237.484 593.117> 726 79<387.055 618.012>
VStem: 128 108<454.668 719> 541 108<131.208 350.885>
LayerCount: 2
Back
SplineSet
570 765 m 5
 523 758 464 755 375 755 c 4
 291 755 226 759 180 765 c 5
 188 654 170 482 160 380 c 5
 348 484 595 492 595 250 c 4
 595 -52 225 -29 130 120 c 1029
EndSplineSet
Fore
SplineSet
109 154 m 256xec
 118 158 128 160 137 160 c 256
 155 160 172 153 180 141 c 256
 214 87 297 53 369 53 c 256
 377 53 384 53 391 54 c 256
 460 61 541 101 541 244 c 256
 541 305 524 345 500 370 c 256
 474 397 436 409 389 409 c 256
 330 409 259 389 189 350 c 256
 189 350 160 334 136 334 c 256
 119 334 106 342 106 368 c 256
 106 371 106 374 106 377 c 256
 114 461 128 593 128 696 c 256
 128 718 127 738 126 757 c 258
 126 757 125 760 125 764 c 256
 125 778 132 805 178 805 c 256xdc
 184 805 190 805 197 804 c 256
 239 799 301 794 383 794 c 256xec
 470 794 526 798 567 804 c 256
 570 804 574 805 577 805 c 256
 602 805 622 792 624 773 c 256
 624 772 624 771 624 770 c 256
 624 750 602 730 573 726 c 256xdc
 520 718 458 716 367 716 c 256
 317 716 274 717 236 719 c 257
 236 714 236 709 236 704 c 256
 236 623 229 529 221 451 c 257
 281 474 346 487 407 487 c 256
 497 487 578 458 620 383 c 256
 639 349 649 306 649 256 c 256
 649 90 536 -9 391 -24 c 256
 377 -25 364 -26 351 -26 c 256
 237 -26 129 22 80 99 c 256
 77 103 76 108 76 113 c 256
 76 128 89 146 109 154 c 256xec
EndSplineSet
Validated: 1
EndChar

StartChar: six
Encoding: 54 54 26
Width: 720
VWidth: 0
GlyphClass: 2
Flags: W
HStem: -29 78<294.351 481.131> 397 79<295.307 489.048> 809 20G<420.5 434.5>
VStem: 32 166<257.96 318.867> 90 108<157.386 251> 560 108<129.726 319.801>
LayerCount: 2
Back
SplineSet
90 290 m 5
 655 740 784 10 375 10 c 4
 74 10 44 480 420 790 c 1029
EndSplineSet
Fore
SplineSet
45 262 m 256xec
 36 267 32 274 32 282 c 256xf4
 32 293 40 304 52 314 c 256
 62 322 72 330 82 337 c 256
 86 340 91 343 95 346 c 256
 96 353 98 361 99 368 c 256
 127 514 216 677 381 813 c 256
 394 823 412 829 429 829 c 256
 440 829 450 827 458 822 c 256
 469 815 474 805 474 795 c 256
 474 785 469 775 459 767 c 256
 333 663 254 539 219 423 c 257
 291 458 361 476 423 476 c 256
 595 476 668 354 668 240 c 256
 668 222 666 205 663 188 c 256
 642 85 547 -29 367 -29 c 256
 183 -29 97 103 90 251 c 257
 89 251 87 251 86 251 c 256
 72 251 55 256 45 262 c 256xec
199 318 m 257
 199 314 199 310 199 306 c 256
 199 299 198 292 198 285 c 256
 198 137 278 49 383 49 c 256
 481 49 539 103 556 187 c 256
 559 201 560 215 560 228 c 256
 560 320 496 397 407 397 c 256
 364 397 303 382 221 332 c 256
 214 328 206 323 199 318 c 257
EndSplineSet
Validated: 1
EndChar

StartChar: seven
Encoding: 55 55 27
Width: 720
VWidth: 0
GlyphClass: 2
Flags: W
HStem: -19 21G<307 334.5> 716 78<184.35 520.217>
VStem: 111 98<561.318 699.998>
LayerCount: 2
Back
SplineSet
160 590 m 5
 149 660 131 721 120 765 c 5
 166 763 266 755 360 755 c 4
 465 755 536 761 600 765 c 5
 469 516 397 328 329 20 c 1029
EndSplineSet
Fore
SplineSet
368 794 m 256
 470 794 538 800 603 804 c 258
 603 804 608 805 615 805 c 256
 631 805 658 801 658 779 c 256
 658 773 656 766 651 756 c 256
 521 509 451 325 383 19 c 256
 378 -2 349 -19 320 -19 c 256
 294 -19 274 -3 274 15 c 256
 274 17 275 19 275 21 c 256
 339 309 407 494 522 721 c 257
 475 718 420 716 352 716 c 256
 291 716 232 722 182 725 c 257
 191 689 202 646 209 599 c 256
 209 598 209 596 209 595 c 256
 209 577 190 560 165 555 c 256
 161 554 157 554 153 554 c 256
 131 554 114 565 111 581 c 256
 100 649 82 709 71 754 c 258
 71 754 69 759 69 766 c 256
 69 780 76 801 123 801 c 256
 125 801 128 801 130 801 c 256
 178 799 277 794 368 794 c 256
EndSplineSet
Validated: 1
EndChar

StartChar: eight
Encoding: 56 56 28
Width: 720
VWidth: 0
GlyphClass: 2
Flags: W
HStem: -24 78<265.419 477.528> 600 20G<550.5 564.5> 741 78<247.781 433.619>
VStem: 76 108<125.485 282.824> 87 108<559.013 688.989> 549 110<121.051 283.344>
LayerCount: 2
Back
SplineSet
540 690 m 5
 504 735 439 780 340 780 c 4
 139 780 5 522 370 430 c 4
 712 344 654 15 360 15 c 4
 214 15 130 107 130 194 c 4
 130 321 250 384 389 474 c 4
 493 541 550 580 550 580 c 1029
EndSplineSet
Fore
SplineSet
242 428 m 257xf4
 135 476 87 545 87 613 c 256
 87 623 88 633 90 643 c 256
 108 734 214 819 348 819 c 256
 471 819 548 764 588 713 c 256
 592 708 594 702 594 696 c 256
 594 682 583 667 565 658 c 256
 555 653 544 651 533 651 c 256
 516 651 501 657 492 667 c 256
 460 706 407 741 332 741 c 256
 268 741 209 700 197 643 c 256
 196 637 195 631 195 625 c 256xec
 195 579 229 525 333 486 c 257
 341 491 348 497 356 502 c 257
 460 569 516 607 516 607 c 258
 528 615 543 620 558 620 c 256
 571 620 584 616 593 609 c 256
 601 603 604 595 604 587 c 256
 604 575 597 563 585 554 c 257
 583 552 532 517 436 455 c 257
 586 405 659 307 659 211 c 256
 659 167 644 124 614 86 c 256
 563 21 468 -24 352 -24 c 256
 173 -24 76 86 76 188 c 256
 76 293 152 367 242 428 c 257xf4
340 394 m 256
 241 329 184 283 184 200 c 256xf4
 184 128 255 54 368 54 c 256
 451 54 500 84 528 127 c 256
 542 148 549 174 549 200 c 256
 549 274 491 357 346 393 c 257
 344 393 342 394 340 394 c 256
EndSplineSet
Validated: 1
EndChar

StartChar: nine
Encoding: 57 57 29
Width: 720
VWidth: 0
GlyphClass: 2
Flags: W
HStem: -29 21G<285.5 299.5> 324 79<230.952 424.693> 751 78<238.869 425.649>
VStem: 52 108<480.199 670.274> 522 108<549 642.614>
LayerCount: 2
Back
SplineSet
630 510 m 5
 65 60 -64 790 345 790 c 4
 646 790 676 320 300 10 c 1029
EndSplineSet
Fore
SplineSet
675 538 m 256
 684 533 688 526 688 518 c 256
 688 507 680 496 668 486 c 256
 658 478 648 470 638 463 c 256
 634 460 629 457 625 454 c 256
 624 447 622 439 621 432 c 256
 593 286 504 123 339 -13 c 256
 326 -23 308 -29 291 -29 c 256
 280 -29 270 -27 262 -22 c 256
 251 -15 246 -5 246 5 c 256
 246 15 251 25 261 33 c 256
 387 137 466 261 501 377 c 257
 429 342 359 324 297 324 c 256
 125 324 52 446 52 560 c 256
 52 578 54 595 57 612 c 256
 78 715 173 829 353 829 c 256
 537 829 623 697 630 549 c 257
 631 549 633 549 634 549 c 256
 648 549 665 544 675 538 c 256
521 482 m 257
 521 486 521 490 521 494 c 256
 521 501 522 508 522 515 c 256
 522 663 442 751 337 751 c 256
 239 751 181 697 164 613 c 256
 161 599 160 585 160 572 c 256
 160 480 224 403 313 403 c 256
 356 403 417 418 499 468 c 256
 506 472 514 477 521 482 c 257
EndSplineSet
Validated: 1
EndChar

StartChar: less
Encoding: 60 60 32
Width: 600
VWidth: 0
GlyphClass: 2
Flags: W
HStem: 596 20G<475 487.5>
LayerCount: 2
Back
SplineSet
485 100 m 5
 404 146 231 257 115 340 c 5
 228 402 387 516 475 580 c 1029
EndSplineSet
Fore
SplineSet
521 80 m 0
 510 70 494 65 478 65 c 0
 468 65 459 67 451 71 c 0
 368 118 195 229 78 313 c 0
 72 317 63 326 63 337 c 0
 63 346 69 356 89 367 c 0
 196 426 356 540 443 603 c 0
 454 611 468 616 482 616 c 0
 493 616 504 613 512 607 c 0
 520 601 524 594 524 586 c 0
 524 576 518 565 507 557 c 0
 430 501 301 407 190 341 c 1
 301 264 449 169 519 129 c 0
 529 123 534 115 534 106 c 0
 534 97 530 88 521 80 c 0
EndSplineSet
Validated: 1
EndChar

StartChar: equal
Encoding: 61 61 33
Width: 600
VWidth: 0
GlyphClass: 2
Flags: W
HStem: 201 80<79.9924 517.039> 401 80<79.9924 517.039>
LayerCount: 2
Back
SplineSet
475 240 m 5
 336 235 213 237 125 245 c 1029
475 440 m 1
 336 435 213 437 125 445 c 1025
EndSplineSet
Fore
SplineSet
77 249 m 0
 84 267 108 281 133 281 c 2
 138 281 l 1
 191 276 259 273 337 273 c 0
 382 273 430 274 480 276 c 2
 482 276 l 2
 506 276 524 263 524 246 c 2
 524 242 l 2
 521 223 497 205 470 204 c 0
 418 202 369 201 322 201 c 0
 242 201 170 204 112 209 c 0
 90 211 75 224 75 240 c 0
 75 243 76 246 77 249 c 0
77 449 m 0
 84 467 108 481 133 481 c 2
 138 481 l 1
 191 476 259 473 337 473 c 0
 382 473 430 474 480 476 c 2
 482 476 l 2
 506 476 524 463 524 446 c 2
 524 442 l 2
 521 423 497 405 470 404 c 0
 418 402 369 401 322 401 c 0
 242 401 170 404 112 409 c 0
 90 411 75 424 75 440 c 0
 75 443 76 446 77 449 c 0
EndSplineSet
Validated: 1
EndChar

StartChar: greater
Encoding: 62 62 34
Width: 600
VWidth: 0
GlyphClass: 2
Flags: W
HStem: 65 20G<112.5 125>
LayerCount: 2
Back
SplineSet
115 580 m 1
 196 534 369 423 485 340 c 1
 372 278 213 164 125 100 c 1025
EndSplineSet
Fore
Refer: 32 60 S -1 0 0 -1 600 681 2
Validated: 1
EndChar

StartChar: question
Encoding: 63 63 35
Width: 480
VWidth: 0
GlyphClass: 2
Flags: W
HStem: -5 137<174.137 294.514> 784 72<140.646 311.389>
VStem: 11 97<624.203 753.365> 151 168<19.1304 108.517> 161 90<285.726 418.325> 351 98<598.532 744.867>
LayerCount: 2
Back
SplineSet
220 290 m 1
 144 464 400 511 400 670 c 0
 400 918 -39 827 80 630 c 1025
EndSplineSet
Fore
SplineSet
229 258 m 0xec
 222 256 215 255 209 255 c 0
 194 255 184 262 178 275 c 0
 166 303 161 328 161 351 c 0
 161 492 351 559 351 665 c 0
 351 693 344 715 334 732 c 0
 312 769 271 784 230 784 c 0
 208 784 187 780 168 773 c 0
 137 760 108 738 108 702 c 0
 108 687 114 669 126 648 c 0
 128 644 130 639 130 635 c 0
 130 621 118 607 99 599 c 0
 91 596 82 594 74 594 c 0
 57 594 41 601 34 612 c 0
 18 638 11 664 11 689 c 0
 11 753 60 807 131 835 c 0
 166 849 205 856 243 856 c 0
 318 856 390 828 426 768 c 0
 441 742 449 711 449 675 c 0
 449 503 251 466 251 354 c 0
 251 339 254 323 262 305 c 0
 263 302 264 298 264 295 c 0
 264 280 250 265 229 258 c 0xec
EndSplineSet
Refer: 18 46 S 1 0 0 1 70 0 2
Validated: 1
EndChar

StartChar: at
Encoding: 64 64 36
Width: 1020
VWidth: 0
GlyphClass: 2
Flags: W
HStem: -179 58<363.96 626.488> 38 64<419.118 520.897> 490 64<496.168 607.063> 711 58<421.405 685.872>
VStem: 74 79<93.1392 402.861> 293 89<142.029 351.161> 603 87<243.517 345> 622 90<404.542 479.185> 865 80<256.798 527.563>
LayerCount: 2
Back
SplineSet
696 -95 m 1
 666 -113 581 -150 502 -150 c 0
 -88 -150 46 740 558 740 c 0
 953 740 1005 248 742 85 c 0
 652 29 624 131 647 330 c 1025
647 330 m 1
 618 212 578 70 472 70 c 0
 238 70 333 522 578 522 c 0
 651 522 667 451 667 431 c 1033
EndSplineSet
Fore
SplineSet
690 345 m 1xfe80
 685 301 680 251 680 220 c 0
 680 146 692 107 705 99 c 0
 707 100 712 102 719 106 c 0
 814 165 865 279 865 393 c 0
 865 485 832 576 762 638 c 0
 710 684 641 711 552 711 c 0
 352 711 205 547 164 346 c 0
 157 311 153 276 153 242 c 0
 153 48 268 -121 508 -121 c 0
 571 -121 650 -88 674 -74 c 0
 683 -69 692 -66 702 -66 c 0
 713 -66 723 -69 729 -75 c 0
 733 -79 736 -85 736 -90 c 0
 736 -99 729 -109 718 -116 c 0
 682 -138 591 -179 496 -179 c 0
 196 -179 74 25 74 235 c 0
 74 272 78 310 85 346 c 0
 127 553 291 769 564 769 c 0
 677 769 765 733 826 678 c 0
 905 607 945 504 945 398 c 0
 945 270 886 139 765 64 c 0
 746 52 723 43 698 41 c 2
 692 41 l 2
 640 41 620 90 615 159 c 1
 587 93 543 38 465 38 c 0
 336 38 293 129 293 222 c 0
 293 245 295 268 300 290 c 0
 324 405 415 554 585 554 c 0
 701 554 712 456 712 436 c 0
 712 419 691 402 667 399 c 2
 660 399 l 2
 639 399 622 411 622 426 c 0xfd80
 622 446 601 490 571 490 c 0
 492 490 411 405 388 290 c 0
 384 270 382 251 382 234 c 0
 382 154 422 102 479 102 c 0
 525 102 570 196 603 331 c 0
 607 348 620 362 643 362 c 0
 661 362 690 345 690 345 c 1xfe80
EndSplineSet
Validated: 1
EndChar

StartChar: A
Encoding: 65 65 37
Width: 810
VWidth: 0
GlyphClass: 2
Flags: W
HStem: -16 21G<79 92.5> 209 72<268.033 582.954> 800 20G<399 421.5>
VStem: 670 103<8.61237 82.6019>
AnchorPoint: "LatinOgonek.mark" 700 0 basechar 0
AnchorPoint: "LatinBelow.mark" 405 0 basechar 0
AnchorPoint: "LatinAbove.mark" 405 180 basechar 0
LayerCount: 2
Back
SplineSet
85 215 m 5
 178 230 397 245 490 245 c 4
 682 245 681 121 720 40 c 5
 688 148 563 509 415 785 c 5
 360 624 199 200 90 20 c 1029
EndSplineSet
Fore
SplineSet
232 196 m 1
 199 124 167 60 137 11 c 0
 128 -5 104 -16 81 -16 c 0
 77 -16 73 -16 69 -15 c 0
 50 -11 39 0 39 14 c 0
 39 19 40 24 43 29 c 0
 67 69 95 124 124 185 c 1
 111 183 98 182 88 180 c 0
 84 179 80 179 76 179 c 0
 53 179 35 191 33 207 c 2
 33 209 l 2
 33 227 55 245 82 250 c 0
 103 253 129 257 158 260 c 1
 239 444 321 662 360 774 c 0
 362 779 364 784 365 788 c 0
 373 812 390 820 408 820 c 0
 435 820 464 802 464 802 c 1
 609 532 730 186 767 64 c 0
 768 60 770 57 771 53 c 0
 772 49 773 45 773 41 c 0
 773 15 744 3 717 3 c 0
 697 3 677 10 670 24 c 0
 624 119 631 209 481 209 c 0
 428 209 324 204 232 196 c 1
265 269 m 1
 353 276 444 281 499 281 c 0
 531 281 561 277 585 272 c 1
 541 389 483 529 421 659 c 1
 379 547 323 401 265 269 c 1
EndSplineSet
Validated: 1
EndChar

StartChar: B
Encoding: 66 66 38
Width: 800
VWidth: 0
GlyphClass: 2
Flags: W
HStem: -22 81<229.699 479.762> 742 77<228.118 481.273>
VStem: 116 108<424.41 634.739> 125 108<63.627 383 421 636.47> 537 109<547.438 691.264> 637 108<184.874 355.515>
AnchorPoint: "LatinBelow.mark" 390 0 basechar 0
AnchorPoint: "LatinAbove.mark" 390 180 basechar 0
LayerCount: 2
Back
SplineSet
80 700 m 5
 599 940 714 574 465 460 c 4
 409 434 334 404 260 390 c 5
 398 447 707 485 690 270 c 4
 666 -29 175 -6 175 60 c 4
 175 153 187 477 170 605 c 1029
EndSplineSet
Fore
SplineSet
233 353 m 2xd4
 232 239 229 126 229 72 c 1
 245 64 279 59 322 59 c 0
 403 59 514 79 577 139 c 0
 607 168 631 208 636 266 c 0
 636 271 637 276 637 281 c 0
 637 369 569 395 482 395 c 0
 471 395 460 395 449 394 c 0
 430 393 410 390 391 387 c 0
 352 373 309 360 266 352 c 1
 266 352 246 366 233 383 c 1
 233 353 l 2xd4
233 421 m 1
 239 424 l 2
 245 427 251 429 258 431 c 0
 290 443 327 453 366 461 c 1
 393 471 418 481 441 492 c 0
 503 520 537 572 537 622 c 0
 537 644 530 666 516 685 c 0
 494 716 449 742 374 742 c 0
 309 742 221 722 104 668 c 0
 93 663 81 661 70 661 c 0
 53 661 39 666 31 677 c 0
 27 682 26 688 26 694 c 0
 26 709 37 723 56 732 c 0
 187 792 300 819 392 819 c 0
 461 819 519 804 562 777 c 0
 618 742 646 689 646 634 c 0xd8
 646 577 616 517 558 470 c 1
 661 456 745 400 745 292 c 0
 745 286 745 280 744 274 c 0
 729 83 536 0 380 -17 c 0
 353 -20 326 -22 300 -22 c 0
 225 -22 157 -8 130 27 c 0
 124 34 121 44 121 54 c 0
 121 110 125 247 125 376 c 0xd4
 125 463 123 547 116 596 c 1
 116 600 l 2
 116 620 138 638 165 643 c 0
 169 644 173 644 177 644 c 0
 201 644 221 632 224 614 c 0xe0
 230 567 232 497 233 422 c 2
 233 421 l 1
EndSplineSet
Validated: 1
EndChar

StartChar: C
Encoding: 67 67 39
Width: 750
VWidth: 0
GlyphClass: 2
Flags: W
HStem: -20 82<327.782 540.15> 739 82<331.244 521.092>
VStem: 68 114<235.841 554.552> 569 114<596.072 692.146>
AnchorPoint: "LatinCedilla.mark" 450 0 basechar 0
AnchorPoint: "LatinBelow.mark" 405 0 basechar 0
AnchorPoint: "LatinAbove.mark" 405 180 basechar 0
LayerCount: 2
Back
SplineSet
660 139 m 5
 551 -40 125 -59 125 393 c 4
 125 865 626 858 626 626 c 1029
EndSplineSet
Fore
SplineSet
684 178 m 0
 705 174 717 160 717 145 c 0
 717 140 715 134 712 128 c 0
 664 50 565 -6 457 -18 c 0
 442 -20 428 -20 413 -20 c 0
 229 -20 68 109 68 387 c 0
 68 651 225 799 407 819 c 0
 420 820 432 821 445 821 c 0
 576 821 683 747 683 632 c 0
 683 610 657 589 626 586 c 2
 618 586 l 2
 591 586 569 600 569 620 c 0
 569 699 501 739 429 739 c 0
 422 739 414 739 407 738 c 0
 320 729 182 648 182 399 c 0
 182 137 325 62 432 62 c 0
 440 62 449 62 457 63 c 0
 520 70 578 101 608 150 c 0
 619 168 645 179 670 179 c 0
 675 179 679 179 684 178 c 0
EndSplineSet
Validated: 1
EndChar

StartChar: D
Encoding: 68 68 40
Width: 810
VWidth: 0
GlyphClass: 2
Flags: W
HStem: -21 80<229.796 462.974> 742 78<214.588 482.074>
VStem: 116 108<392.077 634.739> 125 108<67.7108 636.47> 630 109<246.078 572.867>
AnchorPoint: "LatinBelow.mark" 380 0 basechar 0
AnchorPoint: "LatinAbove.mark" 380 180 basechar 0
LayerCount: 2
Back
SplineSet
80 700 m 1
 330 838 645 820 680 485 c 0
 739 -79 175 -6 175 70 c 0
 175 163 187 477 170 605 c 1025
EndSplineSet
Fore
SplineSet
34 675 m 0xd8
 28 681 26 687 26 694 c 0
 26 707 35 721 51 730 c 0
 125 771 206 800 287 813 c 0
 317 818 346 820 375 820 c 0
 562 820 711 717 734 494 c 0
 737 465 739 438 739 412 c 0
 739 123 550 1 370 -18 c 0
 351 -20 332 -21 313 -21 c 0
 228 -21 151 -1 127 42 c 0
 123 48 121 56 121 64 c 0
 121 118 125 247 125 369 c 0xd8
 125 458 123 544 116 596 c 1
 116 600 l 2
 116 620 138 638 165 643 c 0
 169 644 173 644 177 644 c 0
 201 644 221 632 224 614 c 0xe8
 231 560 233 475 233 388 c 0
 233 265 229 137 229 80 c 1
 241 70 282 59 333 59 c 0
 386 59 449 70 502 106 c 0
 568 150 630 236 630 400 c 0
 630 424 629 449 626 476 c 0
 605 673 490 742 361 742 c 0
 339 742 317 740 295 736 c 0
 235 726 170 704 109 670 c 0
 98 664 86 661 74 661 c 0
 58 661 43 666 34 675 c 0xd8
EndSplineSet
Validated: 1
EndChar

StartChar: E
Encoding: 69 69 41
Width: 740
VWidth: 0
GlyphClass: 2
Flags: W
HStem: -24 80<250.433 635.197> -9 78<387.598 707.711> 355 78<99.834 149 259 592.68> 726 78<104.392 142.796 249 636.913> 736 78<371.248 677.479>
VStem: 136 108<66.4187 351.602> 152 108<62.723 356 435 723.694>
AnchorPoint: "LatinOgonek.mark" 570 0 basechar 0
AnchorPoint: "LatinBelow.mark" 400 0 basechar 0
AnchorPoint: "LatinAbove.mark" 400 180 basechar 0
LayerCount: 2
Back
SplineSet
660 30 m 5
 377 18 182 -16 190 100 c 4
 200 243 208 420 205 640 c 4
 204 717 191 752 130 770 c 5
 395 759 562 768 630 775 c 1029
150 400 m 5
 314 392 386 392 550 400 c 1029
EndSplineSet
Fore
SplineSet
714 32 m 2x64
 711 11 685 -8 655 -9 c 0x64
 553 -13 444 -24 353 -24 c 0
 228 -24 136 -3 136 86 c 2
 136 96 l 1xa4
 141 173 146 261 149 360 c 1
 145 360 142 361 138 361 c 0
 113 362 96 377 96 395 c 0
 96 398 96 400 97 403 c 0
 102 422 126 437 151 439 c 1
 151 469 152 502 152 534 c 0
 152 566 151 600 151 634 c 0
 150 703 139 719 116 729 c 0
 113 730 108 732 103 733 c 1
 103 733 102 742 102 754 c 0
 102 777 107 809 139 809 c 2
 141 809 l 1
 226 805 301 804 365 804 c 0xb2
 499 804 587 810 630 814 c 1
 638 814 l 2
 664 814 684 800 684 781 c 0
 684 760 660 739 630 736 c 0x2a
 581 731 493 726 360 726 c 0
 326 726 289 726 249 727 c 1
 256 705 259 677 259 646 c 0
 259 608 260 572 260 537 c 0x32
 260 502 259 468 259 435 c 1
 295 434 327 433 359 433 c 0
 416 433 473 435 554 439 c 1
 557 439 l 2
 584 439 604 425 604 406 c 2
 604 403 l 2
 602 382 576 362 546 361 c 0
 463 357 402 355 341 355 c 0
 314 355 286 355 257 356 c 1
 254 262 249 179 244 104 c 1
 244 101 l 2
 244 67 277 56 361 56 c 0xb4
 428 56 526 63 665 69 c 1
 668 69 l 2
 695 69 714 55 714 36 c 2
 714 32 l 2x64
EndSplineSet
Validated: 1
EndChar

StartChar: F
Encoding: 70 70 42
Width: 710
VWidth: 0
GlyphClass: 2
Flags: W
HStem: -14 21G<179.5 213> 355 78<99.834 153 262 592.68> 726 78<249 636.913> 736 78<371.248 677.479>
VStem: 146 108<-5.05273 356 435 725.874>
AnchorPoint: "LatinBelow.mark" 190 0 basechar 0
AnchorPoint: "LatinAbove.mark" 380 180 basechar 0
LayerCount: 2
Back
SplineSet
150 400 m 5
 314 392 386 392 550 400 c 1029
200 25 m 5
 211 208 208 420 205 640 c 4
 204 717 191 752 130 770 c 5
 395 759 562 768 630 775 c 1029
EndSplineSet
Fore
SplineSet
684 781 m 0xd8
 684 760 660 739 630 736 c 0xd8
 581 731 491 726 359 726 c 0
 325 726 289 726 249 727 c 1
 257 703 259 677 259 646 c 0
 260 575 261 504 261 435 c 1
 297 434 328 433 360 433 c 0
 417 433 474 435 554 439 c 1
 557 439 l 2
 584 439 604 425 604 406 c 2
 604 403 l 2
 602 382 576 362 546 361 c 0
 464 357 404 355 343 355 c 0
 317 355 290 355 262 356 c 1
 262 241 260 131 254 29 c 0
 253 8 228 -12 198 -14 c 2
 193 -14 l 2
 166 -14 146 1 146 20 c 2
 146 21 l 1
 152 125 154 240 154 360 c 1
 149 360 143 361 138 361 c 0
 113 362 96 377 96 395 c 0
 96 398 96 400 97 403 c 0
 102 422 127 437 153 439 c 1
 152 503 152 568 151 634 c 0
 150 703 139 719 116 729 c 0
 113 730 108 732 103 733 c 0
 93 736 89 742 89 748 c 0
 89 771 141 809 141 809 c 1
 226 805 301 804 365 804 c 0xe8
 499 804 587 810 630 814 c 1
 638 814 l 2
 664 814 684 800 684 781 c 0xd8
EndSplineSet
Validated: 1
EndChar

StartChar: G
Encoding: 71 71 43
Width: 790
VWidth: 0
GlyphClass: 2
Flags: W
HStem: -24 78<330.079 527.394> 741 79<331.616 521.238>
VStem: 71 108<232.809 554.632> 572 108<595.831 691.682> 615 110<148.012 318.614>
AnchorPoint: "LatinBelow.mark" 420 0 basechar 0
AnchorPoint: "LatinAbove.mark" 420 180 basechar 0
LayerCount: 2
Back
SplineSet
440 330 m 5
 473 339 558 357 594 360 c 4
 719 370 708 15 420 15 c 4
 261 15 125 140 125 393 c 4
 125 865 626 858 626 626 c 1029
EndSplineSet
Fore
SplineSet
387 316 m 0xe8
 386 319 386 322 386 325 c 0
 386 343 403 360 428 367 c 0
 467 378 548 395 596 399 c 0
 600 399 603 400 606 400 c 0
 615 400 624 399 632 397 c 0
 703 383 725 324 725 264 c 0xe8
 725 244 723 225 719 206 c 0
 699 107 608 -24 412 -24 c 0
 210 -24 71 128 71 387 c 0
 71 651 228 799 408 818 c 0
 421 819 433 820 446 820 c 0
 576 820 680 746 680 632 c 0
 680 611 656 590 626 587 c 2
 618 587 l 2
 592 587 572 601 572 620 c 0xf0
 572 699 504 741 430 741 c 0
 423 741 415 741 408 740 c 0
 318 730 179 648 179 399 c 0
 179 152 312 54 428 54 c 0
 536 54 594 121 611 206 c 0
 614 219 615 231 615 242 c 0
 615 284 599 315 590 321 c 1
 562 318 478 300 452 293 c 0
 446 291 439 290 433 290 c 0
 411 290 392 300 387 316 c 0xe8
EndSplineSet
Validated: 1
EndChar

StartChar: H
Encoding: 72 72 44
Width: 820
VWidth: 0
GlyphClass: 2
Flags: W
HStem: -14 25G<144 180 644 658.5> 355 78<69.834 113 221 606> 789 20G<161 175.5>
VStem: 101 108<472.332 799.84> 113 108<-3.98047 357 436 742.797> 606 108<-2.8169 358 435 795.169>
AnchorPoint: "LatinBelow.mark" 410 0 basechar 0
AnchorPoint: "LatinAbove.mark" 410 180 basechar 0
LayerCount: 2
Back
SplineSet
700 400 m 5
 536 392 284 392 120 400 c 1029
155 770 m 1
 172 590 167 276 165 25 c 1025
660 765 m 17
 661 478 662 317 665 30 c 1033
EndSplineSet
Fore
SplineSet
666 -9 m 0xec
 663 -9 660 -10 657 -10 c 0
 631 -10 612 5 611 24 c 0
 609 107 607 228 606 358 c 1
 536 356 460 355 383 355 c 0
 328 355 273 356 221 357 c 1
 221 247 220 134 219 31 c 0
 219 10 195 -11 165 -14 c 2
 157 -14 l 2
 131 -14 111 0 111 19 c 0
 112 126 113 246 113 361 c 1
 108 361 l 2
 83 362 66 377 66 395 c 0
 66 398 66 400 67 403 c 0
 72 420 91 434 113 438 c 1xec
 112 563 109 678 101 762 c 1
 101 765 l 2
 101 785 122 803 151 808 c 0
 155 809 159 809 163 809 c 0
 188 809 207 796 209 778 c 0xf4
 217 688 220 566 221 436 c 1
 291 434 368 433 445 433 c 0
 500 433 555 434 606 435 c 1
 606 490 605 545 605 600 c 0
 605 655 606 709 606 759 c 0
 606 780 630 801 660 804 c 2
 668 804 l 2
 694 804 714 790 714 771 c 0
 714 719 713 664 713 608 c 0
 713 552 714 495 714 439 c 1
 738 437 754 424 754 406 c 2
 754 403 l 2
 752 386 736 370 714 364 c 1
 715 236 717 118 719 36 c 2
 719 35 l 2
 719 14 695 -5 666 -9 c 0xec
EndSplineSet
Validated: 1
EndChar

StartChar: I
Encoding: 73 73 45
Width: 480
VWidth: 0
GlyphClass: 2
Flags: W
HStem: 3 66<57.8147 192> 11 64<292.734 390> 729 69<82.1704 187.859 288 419.766>
VStem: 194 104<77.3115 717.164>
AnchorPoint: "LatinOgonek.mark" 300 0 basechar 0
AnchorPoint: "LatinBelow.mark" 240 0 basechar 0
AnchorPoint: "LatinAbove.mark" 240 180 basechar 0
LayerCount: 2
Back
SplineSet
375 765 m 5
 298 760 207 761 105 765 c 5
 176 747 244 757 245 680 c 4
 248 460 240 313 240 100 c 4
 240 35 293 47 385 42 c 5
 292 24 217 31 105 36 c 1029
EndSplineSet
Fore
SplineSet
55 38 m 0xb0
 63 55 90 69 116 69 c 2
 119 69 l 2xb0
 145 68 170 66 192 65 c 1
 189 75 188 83 188 93 c 0
 188 273 194 406 194 574 c 0
 194 606 193 638 193 673 c 0
 192 728 171 714 89 732 c 0
 85 733 81 733 77 734 c 1
 77 739 l 2
 77 754 80 798 117 798 c 2
 119 798 l 2
 172 796 222 795 268 795 c 0
 309 795 347 796 381 798 c 2
 386 798 l 2
 409 798 426 787 426 772 c 2
 426 768 l 2
 423 750 397 734 369 732 c 0
 343 730 318 730 288 729 c 1
 294 717 297 703 297 687 c 0
 297 652 298 619 298 587 c 0
 298 418 292 286 292 107 c 2
 292 105 l 2
 292 78 293 77 329 77 c 2
 337 77 l 2
 352 77 373 76 400 75 c 0
 418 74 424 68 424 60 c 0
 424 41 390 11 390 11 c 1x70
 336 1 289 -3 241 -3 c 0
 193 -3 145 1 91 3 c 0
 69 4 53 15 53 29 c 0
 53 32 54 35 55 38 c 0xb0
EndSplineSet
Validated: 1
EndChar

StartChar: J
Encoding: 74 74 46
Width: 540
VWidth: 0
GlyphClass: 2
Flags: W
HStem: -14 78<155.859 292.647> 734 64<157.17 276.631 388 498.924>
VStem: 318 104<87.6492 523.556>
AnchorPoint: "LatinBelow.mark" 240 0 basechar 0
AnchorPoint: "LatinAbove.mark" 330 180 basechar 0
LayerCount: 2
Back
SplineSet
450 765 m 1
 373 760 282 761 180 765 c 1
 251 747 341 757 350 680 c 0
 362 572 370 344 370 223 c 0
 370 111 349 25 228 25 c 0
 163 25 99 61 70 100 c 1025
EndSplineSet
Fore
SplineSet
422 229 m 0
 422 134 413 4 251 -13 c 0
 241 -14 230 -14 220 -14 c 0
 130 -14 56 31 21 78 c 0
 17 83 16 88 16 94 c 0
 16 108 27 123 46 132 c 0
 56 137 67 139 78 139 c 0
 95 139 111 133 119 122 c 0
 142 91 196 64 236 64 c 0
 242 64 247 65 251 65 c 0
 291 69 318 102 318 216 c 0
 318 336 310 565 298 671 c 0
 291 728 245 710 152 734 c 1
 152 739 l 2
 152 754 155 798 192 798 c 2
 194 798 l 2
 247 796 297 795 343 795 c 0
 384 795 422 796 456 798 c 2
 461 798 l 2
 485 798 502 786 502 771 c 2
 502 768 l 2
 499 750 472 734 444 732 c 0
 426 731 408 731 388 730 c 1
 395 719 400 705 402 689 c 0
 414 579 422 351 422 229 c 0
EndSplineSet
Validated: 1
EndChar

StartChar: K
Encoding: 75 75 47
Width: 780
VWidth: 0
GlyphClass: 2
Flags: W
HStem: -14 26G<154 190 673 687> 789 20G<145 159 633.5 647.5>
VStem: 86 107<580.186 800.281> 121 108<-5.16879 367 544 721.233>
AnchorPoint: "LatinBelow.mark" 370 0 basechar 0
AnchorPoint: "LatinAbove.mark" 370 180 basechar 0
LayerCount: 2
Back
SplineSet
690 30 m 1
 653 75 383 376 130 455 c 1
 331 555 545 691 635 770 c 1025
140 770 m 1
 167 682 174 425 175 25 c 1029
EndSplineSet
Fore
SplineSet
129 807 m 0xe0
 135 809 142 809 148 809 c 0
 170 809 188 800 193 784 c 0xe0
 207 738 216 658 221 544 c 1
 379 632 529 734 595 792 c 0
 607 803 625 809 642 809 c 0
 653 809 664 807 672 802 c 0
 684 796 689 786 689 776 c 0
 689 767 685 757 675 748 c 0
 589 673 413 559 232 463 c 1
 475 353 702 97 738 54 c 0
 742 49 744 43 744 37 c 0
 744 23 734 8 716 -1 c 0
 705 -6 693 -9 681 -9 c 0
 665 -9 650 -4 642 6 c 0
 613 41 422 253 226 367 c 1
 228 270 229 158 229 31 c 0
 229 10 205 -11 175 -14 c 2
 167 -14 l 2
 141 -14 121 0 121 19 c 0xd0
 121 174 119 308 116 419 c 0
 112 421 107 422 103 423 c 2
 103 423 64 429 64 446 c 0
 64 455 74 466 104 481 c 0
 107 483 110 484 113 486 c 0
 108 622 100 714 87 756 c 0
 86 758 86 761 86 764 c 0
 86 782 104 801 129 807 c 0xe0
EndSplineSet
Validated: 1
EndChar

StartChar: L
Encoding: 76 76 48
Width: 660
VWidth: 0
GlyphClass: 2
Flags: W
HStem: -23 78<236.103 581.46> -9 78<310.529 627.711>
VStem: 126 108<61.2591 401.953 529.125 791.845> 144 108<215.256 793.948>
AnchorPoint: "LatinBelow.mark" 370 0 basechar 0
AnchorPoint: "LatinAbove.mark" 200 180 basechar 0
LayerCount: 2
Back
SplineSet
580 30 m 1
 297 18 172 -16 180 100 c 0
 190 243 212 562 185 765 c 1025
EndSplineSet
Fore
SplineSet
634 32 m 2x60
 631 11 605 -8 575 -9 c 0x60
 475 -13 382 -23 307 -23 c 0
 198 -23 126 -3 126 84 c 2
 126 96 l 1xa0
 132 188 144 355 144 514 c 0
 144 601 140 686 131 756 c 1
 131 760 l 2
 131 780 153 798 180 803 c 0
 184 804 188 804 192 804 c 0
 216 804 236 792 239 774 c 0
 249 701 252 613 252 525 c 0x90
 252 363 240 197 234 104 c 1
 234 94 l 2
 234 64 247 55 302 55 c 0xa0
 353 55 440 63 585 69 c 1
 588 69 l 2
 615 69 634 55 634 36 c 2
 634 32 l 2x60
EndSplineSet
Validated: 1
EndChar

StartChar: M
Encoding: 77 77 49
Width: 900
VWidth: 0
GlyphClass: 2
Flags: W
HStem: -19 21G<98.5 130 761 775>
VStem: 66 108<-9.94189 322.478> 102 105<354.505 586> 691 104<457.428 598 733.577 784> 726 108<0.260559 322.033>
AnchorPoint: "LatinBelow.mark" 450 0 basechar 0
AnchorPoint: "LatinAbove.mark" 450 180 basechar 0
LayerCount: 2
Back
SplineSet
120 20 m 5
 142 200 152 544 160 760 c 5
 362 403 432 197 450 180 c 5
 468 196 547 415 740 775 c 5
 744 541 761 170 780 30 c 1029
EndSplineSet
Fore
SplineSet
115 -19 m 2xc0
 112 -19 l 2
 85 -19 66 -5 66 14 c 2
 66 18 l 1xc0
 84 169 95 440 102 650 c 0
 103 687 105 723 106 755 c 1
 106 755 153 793 186 793 c 0
 196 793 205 789 211 779 c 0
 229 747 246 716 262 687 c 0
 356 514 421 353 458 270 c 1
 504 372 583 567 695 784 c 1
 695 784 737 805 766 805 c 0
 782 805 794 799 794 781 c 0
 794 771 795 761 795 751 c 0xb0
 800 517 816 170 834 39 c 1
 834 35 l 2
 834 15 812 -3 785 -8 c 0
 781 -9 777 -9 773 -9 c 0
 749 -9 729 3 726 21 c 0x88
 712 128 698 391 691 598 c 1
 569 352 527 195 485 158 c 0
 467 142 453 137 442 137 c 0
 425 137 414 149 410 153 c 0
 377 184 337 337 207 586 c 1xb0
 200 395 190 154 174 22 c 0
 171 1 145 -18 115 -19 c 2xc0
EndSplineSet
Validated: 1
EndChar

StartChar: N
Encoding: 78 78 50
Width: 820
VWidth: 0
GlyphClass: 2
Flags: W
HStem: -14 21G<144 180 660.5 684.5>
VStem: 97 118<432.177 602> 112 108<-4.625 504.52> 601 108<471.838 795.591> 613 108<177 548.843>
AnchorPoint: "LatinBelow.mark" 410 0 basechar 0
AnchorPoint: "LatinAbove.mark" 410 180 basechar 0
LayerCount: 2
Back
SplineSet
165 25 m 5
 167 276 167 590 150 770 c 5
 314 548 630 61 665 30 c 5
 669 198 668 602 655 765 c 1029
EndSplineSet
Fore
SplineSet
165 -14 m 2xa0
 157 -14 l 2
 131 -14 111 0 111 19 c 0
 111 76 112 136 112 197 c 0xa0
 112 398 108 609 97 747 c 0
 97 752 96 757 96 762 c 1
 96 762 141 804 175 804 c 0
 184 804 193 801 199 792 c 0
 313 638 498 345 613 177 c 1
 613 249 l 2xc8
 613 431 610 652 601 757 c 1
 601 760 l 2
 601 780 623 800 652 804 c 0
 655 804 659 805 662 805 c 0
 687 805 707 792 709 773 c 0x90
 718 661 721 441 721 258 c 0
 721 170 720 90 719 35 c 0
 718 1 696 -8 673 -8 c 0
 648 -8 621 3 621 3 c 2
 617 7 614 9 611 13 c 0
 563 70 372 375 215 602 c 1xc8
 219 496 220 369 220 246 c 0
 220 171 219 98 219 31 c 0
 219 10 195 -11 165 -14 c 2xa0
EndSplineSet
Validated: 1
EndChar

StartChar: O
Encoding: 79 79 51
Width: 830
VWidth: 0
GlyphClass: 2
Flags: W
HStem: -22 79<331.951 521.844> 742 79<323.643 516.994>
VStem: 66 108<242.258 554.392> 659 108<229.005 504.703>
AnchorPoint: "LatinOgonek.mark" 470 0 basechar 0
AnchorPoint: "LatinBelow.mark" 415 0 basechar 0
AnchorPoint: "LatinAbove.mark" 415 180 basechar 0
LayerCount: 2
Back
SplineSet
626 596 m 5
 678 583 713 473 713 384 c 4
 713 -107 120 -104 120 391 c 4
 120 847 573 867 646 638 c 1029
EndSplineSet
Fore
SplineSet
593 623 m 1
 567 703 493 742 421 742 c 0
 403 742 386 740 369 735 c 0
 284 713 174 620 174 397 c 0
 174 154 320 57 428 57 c 0
 434 57 441 57 447 58 c 0
 536 68 659 155 659 378 c 0
 659 457 620 549 601 559 c 0
 584 564 572 576 572 591 c 0
 572 596 573 602 577 608 c 0
 581 614 586 619 593 623 c 1
686 616 m 1
 745 572 767 472 767 390 c 0
 767 156 632 0 447 -20 c 0
 434 -21 422 -22 409 -22 c 0
 219 -22 66 131 66 385 c 0
 66 620 185 766 346 809 c 0
 377 817 408 821 438 821 c 0
 561 821 666 755 699 652 c 0
 700 649 700 647 700 644 c 0
 700 635 695 624 686 616 c 1
EndSplineSet
Validated: 1
EndChar

StartChar: P
Encoding: 80 80 52
Width: 760
VWidth: 0
GlyphClass: 2
Flags: W
HStem: -24 21G<159 194> 302 77<240.583 490.296> 365 74<46.5691 126.753> 744 79<227.62 497.044>
VStem: 116 108<436.538 634.739> 130 109<-11.6406 312 433 632.471> 592 111<469.638 654.502>
AnchorPoint: "LatinBelow.mark" 190 0 basechar 0
AnchorPoint: "LatinAbove.mark" 400 180 basechar 0
LayerCount: 2
Back
SplineSet
80 700 m 5
 829 1063 841 97 90 400 c 1029
170 605 m 5
 187 477 187 224 180 15 c 1029
EndSplineSet
Fore
SplineSet
179 -24 m 2xd6
 172 -24 l 2
 146 -24 126 -10 126 9 c 2
 126 10 l 2
 129 91 130 178 130 262 c 2
 130 339 l 1xd6
 107 346 82 355 58 365 c 0
 44 371 36 382 36 394 c 0
 36 402 39 410 46 418 c 0
 58 431 79 439 99 439 c 0
 107 439 115 438 122 435 c 0
 124 434 125 434 127 433 c 1
 125 498 121 554 116 596 c 1
 116 600 l 2
 116 620 138 638 165 643 c 0
 169 644 173 644 177 644 c 0
 201 644 221 632 224 614 c 0xba
 232 559 236 483 238 397 c 1
 288 384 331 379 368 379 c 0
 459 379 516 411 549 447 c 0
 578 479 592 521 592 562 c 0
 592 629 555 696 480 726 c 0
 453 737 420 744 379 744 c 0
 310 744 219 724 105 668 c 0
 95 663 84 661 73 661 c 0
 56 661 41 667 32 677 c 0
 28 682 26 688 26 694 c 0
 26 708 37 723 55 732 c 0
 184 795 300 823 396 823 c 0
 452 823 501 813 543 796 c 0
 650 753 703 665 703 576 c 0
 703 519 681 460 637 412 c 0
 575 344 476 302 350 302 c 0
 315 302 278 305 239 312 c 1
 239 216 237 114 234 20 c 0
 233 -1 209 -21 179 -24 c 2xd6
EndSplineSet
Validated: 1
EndChar

StartChar: Q
Encoding: 81 81 53
Width: 830
VWidth: 0
GlyphClass: 2
Flags: W
HStem: -206 68<708.212 769.478> -17 73<334.308 459.534> 514 72<547.031 645.147> 742 79<323.643 516.994>
VStem: 66 108<242.641 554.392> 407 94<149.632 458.517> 593 107<607.739 670.872> 675 95<230.164 482.681>
AnchorPoint: "LatinBelow.mark" 360 0 basechar 0
AnchorPoint: "LatinAbove.mark" 415 180 basechar 0
LayerCount: 2
Back
SplineSet
730 -170 m 1
 418 -44 356 550 605 550 c 0
 687 550 720 474 720 385 c 0
 720 -96 120 -104 120 391 c 0
 120 847 573 867 646 638 c 1025
EndSplineSet
Fore
SplineSet
547 93 m 1xfd
 616 138 675 228 675 380 c 0
 675 471 637 514 598 514 c 0
 566 514 526 489 508 401 c 0
 503 376 501 348 501 320 c 0
 501 248 516 167 547 93 c 1xfd
460 58 m 1
 425 141 407 232 407 312 c 0
 407 344 409 373 415 401 c 0
 433 488 484 586 612 586 c 0
 737 586 770 477 770 390 c 0
 770 222 694 91 580 27 c 1
 623 -47 683 -109 759 -138 c 0
 772 -143 779 -153 779 -164 c 0
 779 -171 776 -179 770 -186 c 0xfd
 759 -198 739 -206 721 -206 c 0
 714 -206 707 -205 701 -202 c 0
 611 -164 542 -92 493 -7 c 1
 479 -10 464 -13 449 -15 c 0
 435 -17 421 -17 408 -17 c 0
 219 -17 66 132 66 385 c 0
 66 620 185 766 346 809 c 0
 377 817 408 821 438 821 c 0
 561 821 666 755 699 652 c 0
 700 649 700 647 700 644 c 0
 700 626 683 608 658 601 c 0
 652 599 645 598 639 598 c 0
 617 598 598 608 593 624 c 0xfe
 567 704 493 742 421 742 c 0
 403 742 386 740 369 735 c 0
 284 713 174 620 174 397 c 0
 174 154 322 56 432 56 c 0
 438 56 443 56 449 57 c 0
 453 57 456 57 460 58 c 1
EndSplineSet
Validated: 1
EndChar

StartChar: R
Encoding: 82 82 54
Width: 780
VWidth: 0
GlyphClass: 2
Flags: W
HStem: -24 21G<159 194 675.5 689.5> 332 79<403.337 529.185> 745 77<237.621 511.191>
VStem: 116 108<430.947 634.739> 130 108<-12.3127 350 426 560.61> 605 110<485.258 661.146>
AnchorPoint: "LatinBelow.mark" 400 0 basechar 0
AnchorPoint: "LatinAbove.mark" 400 180 basechar 0
LayerCount: 2
Back
SplineSet
690 10 m 5
 545 118 260 400 260 400 c 5
 817 210 824 1042 80 700 c 1029
170 605 m 5
 187 477 187 224 180 15 c 1029
EndSplineSet
Fore
SplineSet
179 -24 m 2xec
 172 -24 l 2
 146 -24 126 -10 126 9 c 2
 126 10 l 2
 129 88 130 173 130 255 c 0xec
 130 391 126 519 116 596 c 1
 116 600 l 2
 116 620 138 638 165 643 c 0
 169 644 173 644 177 644 c 0
 201 644 221 632 224 614 c 0xf4
 231 565 235 500 237 426 c 1
 245 434 254 440 268 440 c 0
 274 440 281 439 289 436 c 0
 343 418 388 411 425 411 c 0
 463 411 492 418 514 428 c 0
 570 454 605 513 605 574 c 0
 605 606 596 639 574 668 c 0
 542 711 485 745 393 745 c 0
 320 745 225 724 104 668 c 0
 94 663 83 661 72 661 c 0
 55 661 39 667 31 678 c 0
 27 683 26 688 26 694 c 0
 26 708 37 723 56 732 c 0
 193 795 312 822 409 822 c 0
 534 822 624 778 672 713 c 0
 700 675 715 629 715 582 c 0
 715 498 667 412 562 364 c 0
 518 344 465 332 409 332 c 2
 402 332 l 1
 496 242 645 104 732 39 c 0
 740 33 744 25 744 16 c 0
 744 5 738 -7 725 -16 c 0
 713 -25 697 -29 682 -29 c 0
 669 -29 657 -26 648 -19 c 0
 524 73 310 280 238 350 c 1
 238 273 l 2
 238 189 237 101 234 20 c 0
 233 -1 209 -21 179 -24 c 2xec
EndSplineSet
Validated: 1
EndChar

StartChar: S
Encoding: 83 83 55
Width: 700
VWidth: 0
GlyphClass: 2
Flags: W
HStem: -22 78<260.996 480.108> 744 78<252.092 451.148>
VStem: 60 109<142.472 187.748 538.02 669.495> 494 110<594.958 701.06> 555 109<126.374 273.929>
AnchorPoint: "LatinCedilla.mark" 390 0 basechar 0
AnchorPoint: "LatinBelow.mark" 370 0 basechar 0
AnchorPoint: "LatinAbove.mark" 370 180 basechar 0
LayerCount: 2
Back
SplineSet
548 623 m 5
 560 704 495 783 382 783 c 4
 107 783 10 524 255 443 c 4
 299 428 432 381 468 369 c 4
 711 292 618 17 367 17 c 4
 240 17 157 76 122 163 c 1029
EndSplineSet
Fore
SplineSet
108 199 m 0xe8
 116 201 124 202 131 202 c 0
 151 202 168 194 174 179 c 0
 205 102 274 56 375 56 c 0
 447 56 497 84 527 124 c 0
 545 148 555 176 555 203 c 0xe8
 555 254 521 305 440 330 c 0
 402 343 269 389 226 404 c 0
 113 442 60 515 60 590 c 0
 60 601 61 611 63 622 c 0
 84 725 209 822 390 822 c 0
 529 822 604 737 604 648 c 0
 604 640 603 633 602 625 c 0
 599 604 571 585 542 584 c 2
 540 584 l 2
 514 584 494 598 494 617 c 2
 494 621 l 2xf0
 495 626 495 631 495 636 c 0
 495 695 443 744 374 744 c 0
 253 744 184 686 171 622 c 0
 170 615 169 609 169 602 c 0
 169 555 203 509 284 482 c 0
 329 467 460 420 496 408 c 0
 612 371 664 294 664 216 c 0
 664 174 648 131 620 94 c 0
 570 29 476 -22 359 -22 c 0
 206 -22 109 50 70 147 c 0
 69 150 68 154 68 157 c 0
 68 174 84 192 108 199 c 0xe8
EndSplineSet
Validated: 1
EndChar

StartChar: T
Encoding: 84 84 56
Width: 720
VWidth: 0
GlyphClass: 2
Flags: W
HStem: -19 21G<339 374> 722 78<402 659.422> 731 78<405.564 677.594>
VStem: 309 108<-8.54387 705.75>
AnchorPoint: "LatinCedilla.mark" 360 0 basechar 0
AnchorPoint: "LatinBelow.mark" 360 0 basechar 0
AnchorPoint: "LatinAbove.mark" 360 180 basechar 0
LayerCount: 2
Back
SplineSet
360 20 m 1
 366 332 364 540 355 680 c 0
 352 727 320 744 284 748 c 0
 218 756 95 767 90 770 c 1
 96 771 224 761 374 761 c 4
 458 761 549 767 630 770 c 1025
EndSplineSet
Fore
SplineSet
684 772 m 2xb0
 681 751 654 732 625 731 c 0xb0
 556 728 478 723 402 722 c 1
 406 711 408 701 409 688 c 0
 415 601 417 488 417 341 c 0
 417 249 416 145 414 25 c 0
 414 4 389 -16 359 -19 c 2
 352 -19 l 2
 326 -19 306 -4 306 15 c 0
 308 135 309 239 309 330 c 0
 309 476 307 586 301 672 c 0
 299 705 285 707 268 709 c 0
 199 717 91 715 52 738 c 0
 32 750 25 760 25 769 c 0
 25 795 85 808 85 808 c 2
 93 809 103 810 115 810 c 0
 167 810 257 800 382 800 c 0xd0
 463 800 552 806 635 809 c 2
 637 809 l 2
 663 809 684 795 684 776 c 2
 684 772 l 2xb0
EndSplineSet
Validated: 1
EndChar

StartChar: U
Encoding: 85 85 57
Width: 820
VWidth: 0
GlyphClass: 2
Flags: W
HStem: -24 78<296.636 528.842>
VStem: 96 108<156.872 623.077> 107 108<462.671 790.169> 603 108<133.948 312.314 463.637 790.698> 616 108<161.738 624.517>
AnchorPoint: "LatinOgonek.mark" 470 0 basechar 0
AnchorPoint: "LatinBelow.mark" 410 0 basechar 0
AnchorPoint: "LatinAbove.mark" 410 180 basechar 0
LayerCount: 2
Back
SplineSet
657 760 m 5
 660 588 670 417 670 320 c 4
 670 144 606 15 410 15 c 4
 235 15 150 99 150 320 c 4
 150 417 161 620 161 760 c 1029
EndSplineSet
Fore
SplineSet
656 799 m 2x90
 664 799 l 2
 691 799 711 785 711 766 c 0x90
 714 595 724 425 724 326 c 0
 724 287 721 249 714 214 c 0
 688 87 596 -24 402 -24 c 0
 190 -24 96 88 96 314 c 0xc8
 96 413 107 615 107 754 c 0
 107 775 131 796 161 799 c 2
 169 799 l 2
 195 799 215 785 215 766 c 0xa0
 215 625 204 421 204 326 c 0
 204 110 280 54 418 54 c 0
 532 54 585 102 607 214 c 0
 613 244 616 278 616 314 c 0xc8
 616 409 606 581 603 754 c 0
 603 775 626 796 656 799 c 2x90
EndSplineSet
Validated: 1
EndChar

StartChar: V
Encoding: 86 86 58
Width: 810
VWidth: 0
GlyphClass: 2
Flags: W
HStem: -21 21G<379 401.5>
VStem: 662 107<680.691 782.04>
AnchorPoint: "LatinBelow.mark" 405 0 basechar 0
AnchorPoint: "LatinAbove.mark" 405 180 basechar 0
LayerCount: 2
Back
SplineSet
715 752 m 5
 683 643 555 299 405 20 c 5
 350 183 206 583 95 765 c 1029
EndSplineSet
Fore
SplineSet
727 791 m 2
 752 790 769 775 769 757 c 0
 769 754 769 752 768 749 c 0
 735 637 607 294 455 11 c 1
 455 11 417 -21 386 -21 c 0
 372 -21 359 -14 352 6 c 0
 351 10 350 14 348 19 c 0
 290 188 150 573 45 745 c 0
 42 749 41 754 41 759 c 0
 41 774 54 791 74 799 c 0
 83 803 92 804 101 804 c 0
 120 804 138 797 145 785 c 0
 237 633 348 335 417 142 c 1
 537 388 636 665 662 755 c 0
 668 775 696 791 724 791 c 2
 727 791 l 2
EndSplineSet
Validated: 1
EndChar

StartChar: W
Encoding: 87 87 59
Width: 1100
VWidth: 0
GlyphClass: 2
Flags: W
HStem: -10 21G<273 295.5 763.5 786>
VStem: 46 107<697.267 790.261> 952 103<690.348 791.846>
AnchorPoint: "LatinBelow.mark" 550 0 basechar 0
AnchorPoint: "LatinAbove.mark" 550 180 basechar 0
LayerCount: 2
Back
SplineSet
1000 760 m 1
 929 563 879 343 795 25 c 1
 732 203 567 684 540 725 c 1
 516 684 354 160 305 20 c 1
 240 282 152 600 100 760 c 1025
EndSplineSet
Fore
SplineSet
1014 799 m 2
 1038 797 1055 782 1055 765 c 0
 1055 762 1054 758 1053 755 c 0
 983 561 930 342 846 23 c 1
 846 23 802 -10 770 -10 c 0
 757 -10 747 -5 742 10 c 0
 741 13 740 17 739 20 c 0
 693 149 600 448 541 608 c 1
 482 430 391 116 356 16 c 1
 356 16 311 -13 280 -13 c 0
 266 -13 255 -8 251 8 c 0
 186 269 99 587 47 746 c 0
 46 749 46 751 46 754 c 0
 46 772 63 790 88 797 c 0
 94 799 101 800 107 800 c 0
 129 800 148 790 153 774 c 0
 194 648 266 386 318 169 c 1
 380 377 470 694 495 736 c 0
 511 763 528 772 543 772 c 0
 569 772 590 746 590 746 c 1
 617 704 724 384 794 168 c 1
 847 392 895 606 952 765 c 0
 960 785 982 799 1009 799 c 2
 1014 799 l 2
EndSplineSet
Validated: 1
EndChar

StartChar: X
Encoding: 88 88 60
Width: 780
VWidth: 0
GlyphClass: 2
Flags: W
HStem: -9 21G<74 88>
AnchorPoint: "LatinBelow.mark" 390 0 basechar 0
AnchorPoint: "LatinAbove.mark" 390 180 basechar 0
LayerCount: 2
Back
SplineSet
85 30 m 1
 277 303 412 487 643 760 c 1025
690 43 m 1
 457 314 332 487 145 760 c 1025
EndSplineSet
Fore
SplineSet
122 793 m 0
 132 797 142 799 152 799 c 0
 170 799 186 793 194 781 c 0
 262 681 322 595 382 513 c 1
 447 595 516 681 598 777 c 0
 610 791 632 800 652 800 c 0
 659 800 666 798 673 796 c 0
 689 790 697 779 697 766 c 0
 697 758 694 750 688 743 c 0
 592 629 513 532 439 436 c 1
 525 321 616 207 737 67 c 0
 742 61 744 55 744 48 c 0
 744 34 734 21 717 12 c 0
 706 7 694 4 683 4 c 0
 667 4 652 9 643 19 c 0
 536 143 452 248 374 350 c 1
 296 246 221 140 133 16 c 0
 122 0 99 -9 77 -9 c 0
 71 -9 65 -9 59 -7 c 0
 41 -2 31 11 31 25 c 0
 31 31 33 38 37 44 c 0
 138 187 224 306 316 427 c 1
 245 523 176 622 96 739 c 0
 93 744 91 750 91 755 c 0
 91 770 102 784 122 793 c 0
EndSplineSet
Validated: 1
EndChar

StartChar: Y
Encoding: 89 89 61
Width: 720
VWidth: 0
GlyphClass: 2
Flags: W
HStem: -20 21G<350.5 364.5> 790 20G<93.5 108>
VStem: 35 108<715.854 800.407> 310 114<-10.5907 304.25> 578 107<710.674 790.238>
AnchorPoint: "LatinBelow.mark" 360 0 basechar 0
AnchorPoint: "LatinAbove.mark" 360 180 basechar 0
LayerCount: 2
Back
SplineSet
427 392 m 5
 393 355 381 345 357 336 c 5
 264 383 156 581 90 770 c 1029
370 20 m 5
 364 104 363 180 365 260 c 4
 367 363 474 399 630 760 c 1029
EndSplineSet
Fore
SplineSet
647 799 m 2
 670 797 685 783 685 766 c 0
 685 762 684 758 682 754 c 0
 627 626 577 537 536 472 c 0
 457 348 420 317 419 265 c 0
 418 241 418 218 418 194 c 0
 418 140 420 86 424 28 c 1
 424 25 l 2
 424 5 402 -15 373 -19 c 0
 370 -19 366 -20 363 -20 c 0
 338 -20 318 -7 316 12 c 0
 312 71 310 127 310 183 c 0
 310 207 310 231 311 255 c 0
 311 273 314 289 319 305 c 1
 267 332 223 383 182 448 c 0
 126 535 75 646 37 755 c 0
 36 758 35 761 35 764 c 0
 35 782 52 800 77 807 c 0
 84 809 90 810 97 810 c 0
 119 810 138 800 143 785 c 0
 179 680 230 571 282 490 c 0
 309 449 337 404 360 382 c 1
 381 413 408 449 438 496 c 0
 477 557 525 642 578 766 c 0
 586 785 614 799 640 799 c 2
 647 799 l 2
EndSplineSet
Validated: 1
EndChar

StartChar: Z
Encoding: 90 90 62
Width: 750
VWidth: 0
GlyphClass: 2
Flags: W
HStem: -13 87<178.542 627.034> 5 80<369.651 699.113> 709 80<71.5543 517> 715 80<76.5212 344.279>
AnchorPoint: "LatinBelow.mark" 380 0 basechar 0
AnchorPoint: "LatinAbove.mark" 380 180 basechar 0
LayerCount: 2
Back
SplineSet
645 45 m 5
 475 29 110 21 110 67 c 4
 110 139 360 430 618 760 c 5
 425 748 327 744 130 755 c 1029
EndSplineSet
Fore
SplineSet
709 51 m 2x40
 707 29 676 8 641 5 c 0x40
 577 -1 442 -13 316 -13 c 0
 175 -13 46 2 46 58 c 0
 46 152 277 410 517 715 c 1x90
 444 711 383 709 318 709 c 0x20
 257 709 192 711 111 715 c 0
 84 717 66 729 66 746 c 0
 66 750 67 754 69 758 c 0
 78 779 112 795 144 795 c 2
 149 795 l 1x10
 228 791 289 789 347 789 c 0
 433 789 511 793 626 800 c 1
 640 800 l 2
 678 800 689 790 689 778 c 0
 689 764 675 749 675 749 c 1
 434 441 201 162 176 85 c 1x60
 207 77 281 74 365 74 c 0x80
 464 74 577 78 649 85 c 1
 658 85 l 2
 687 85 709 72 709 53 c 2
 709 51 l 2x40
EndSplineSet
Validated: 1
EndChar

StartChar: bracketleft
Encoding: 91 91 63
Width: 360
VWidth: 0
GlyphClass: 2
Flags: W
HStem: -91 57<156 297.393> 830 58<153 298.27>
VStem: 92 79<130.506 681.815>
LayerCount: 2
Back
SplineSet
260 -60 m 1
 240 -60 177 -63 115 -62 c 1
 143 331 132 674 110 860 c 1
 159 858 234 858 260 860 c 1025
EndSplineSet
Fore
SplineSet
299 -60 m 2
 296 -76 275 -89 254 -89 c 0
 239 -89 189 -91 135 -91 c 2
 108 -91 l 2
 88 -91 75 -79 75 -66 c 2
 75 -65 l 1
 87 104 92 265 92 407 c 0
 92 594 83 749 71 853 c 1
 71 858 l 2
 71 868 75 889 114 889 c 2
 118 889 l 2
 147 888 188 887 219 887 c 0
 238 887 254 887 262 888 c 2
 267 888 l 2
 286 888 300 878 300 864 c 2
 300 863 l 2
 299 847 280 834 258 832 c 0
 241 831 215 830 186 830 c 2
 153 830 l 1
 164 724 171 577 171 406 c 0
 171 272 167 124 156 -34 c 1
 203 -34 247 -31 266 -31 c 0
 285 -31 299 -42 299 -56 c 2
 299 -60 l 2
EndSplineSet
Validated: 1
EndChar

StartChar: backslash
Encoding: 92 92 64
Width: 480
VWidth: 0
GlyphClass: 2
Flags: W
HStem: -29 21G<388 398> 809 20G<82.5 93>
VStem: 40 79<738.245 825.389>
LayerCount: 2
Back
SplineSet
400 0 m 1
 274 264 171 524 80 800 c 1025
EndSplineSet
Fore
SplineSet
71 827 m 0
 76 828 80 829 85 829 c 0
 101 829 115 822 119 810 c 0
 210 535 312 276 438 13 c 0
 439 10 440 8 440 5 c 0
 440 -7 428 -20 412 -26 c 0
 406 -28 401 -29 395 -29 c 0
 381 -29 367 -23 362 -13 c 0
 236 252 132 513 41 790 c 0
 40 792 40 794 40 796 c 0
 40 809 53 822 71 827 c 0
EndSplineSet
Validated: 1
EndChar

StartChar: bracketright
Encoding: 93 93 65
Width: 360
VWidth: 0
GlyphClass: 2
Flags: W
HStem: -90 58<61.7299 207> 829 58<61.8055 204>
VStem: 189 79<116.185 667.494>
LayerCount: 2
Back
SplineSet
100 858 m 1
 120 858 183 861 245 860 c 1
 217 467 228 124 250 -62 c 1
 201 -60 126 -60 100 -62 c 1025
EndSplineSet
Fore
SplineSet
61 858 m 2
 64 874 85 887 106 887 c 0
 121 887 171 889 225 889 c 2
 252 889 l 2
 272 889 285 877 285 864 c 2
 285 863 l 1
 273 694 268 533 268 391 c 0
 268 204 277 49 289 -55 c 1
 289 -60 l 2
 289 -70 285 -91 246 -91 c 2
 242 -91 l 2
 213 -90 172 -89 141 -89 c 0
 122 -89 106 -89 98 -90 c 2
 93 -90 l 2
 74 -90 60 -80 60 -66 c 2
 60 -65 l 2
 61 -49 80 -36 102 -34 c 0
 119 -33 145 -32 174 -32 c 2
 207 -32 l 1
 196 74 189 221 189 392 c 0
 189 526 193 674 204 832 c 1
 157 832 113 829 94 829 c 0
 75 829 61 840 61 854 c 2
 61 858 l 2
EndSplineSet
Validated: 1
EndChar

StartChar: asciicircum
Encoding: 94 94 66
Width: 510
VWidth: 0
GlyphClass: 2
Flags: W
HStem: 531 318
LayerCount: 2
Back
SplineSet
255 815 m 5
 339 731 443 575 450 560 c 5
 435 569 335 700 258 775 c 5
 188 696 76 569 60 560 c 5
 67 575 183 722 255 815 c 5
EndSplineSet
Fore
SplineSet
288 834 m 0
 376 746 473 594 483 573 c 1
 483 573 475 531 447 531 c 0
 441 531 435 532 427 537 c 0
 399 554 326 649 256 724 c 1
 186 645 111 558 76 538 c 1
 76 538 59 532 44 532 c 0
 33 532 23 535 23 547 c 0
 23 552 25 558 28 565 c 0
 40 591 148 731 221 826 c 1
 221 826 235 849 257 849 c 0
 266 849 277 845 288 834 c 0
EndSplineSet
Validated: 1
EndChar

StartChar: underscore
Encoding: 95 95 67
Width: 600
VWidth: 0
GlyphClass: 2
Flags: W
HStem: -69 80<34.9924 562.039>
LayerCount: 2
Back
SplineSet
520 -30 m 5
 381 -35 168 -33 80 -25 c 1029
EndSplineSet
Fore
SplineSet
32 -21 m 0
 39 -3 63 11 88 11 c 2
 93 11 l 1
 147 6 259 4 367 4 c 0
 423 4 479 4 525 6 c 2
 527 6 l 2
 551 6 569 -7 569 -24 c 2
 569 -28 l 2
 566 -47 542 -65 515 -66 c 0
 459 -68 393 -69 327 -69 c 0
 225 -69 124 -66 67 -61 c 0
 45 -59 30 -46 30 -30 c 0
 30 -27 31 -24 32 -21 c 0
EndSplineSet
Validated: 1
EndChar

StartChar: grave
Encoding: 96 96 68
Width: 360
VWidth: 0
GlyphClass: 2
Flags: W
HStem: 541 307
VStem: 20 303
LayerCount: 2
Back
SplineSet
60 785 m 5
 86 815 l 5
 170 736 288 585 295 570 c 5
 278 580 142 720 60 785 c 5
EndSplineSet
Fore
SplineSet
27 798 m 2
 53 828 l 1
 53 828 68 848 89 848 c 0
 98 848 108 844 119 834 c 0
 207 751 312 606 323 583 c 1
 323 583 321 541 296 541 c 0
 291 541 285 542 277 547 c 0
 248 564 111 699 29 764 c 0
 23 769 20 776 20 782 c 0
 20 788 23 793 27 798 c 2
EndSplineSet
Validated: 1
EndChar

StartChar: a
Encoding: 97 97 69
Width: 680
VWidth: 0
GlyphClass: 2
Flags: W
HStem: -21 72<225.748 357.571> -11 70<607.178 653.525> 549 72<293.112 416.394>
VStem: 60 99<126.817 379.327> 441 98<224.477 360 438.78 523.374>
AnchorPoint: "LatinOgonek.mark" 580 0 basechar 0
AnchorPoint: "LatinBelow.mark" 360 0 basechar 0
AnchorPoint: "LatinAbove.mark" 360 0 basechar 0
LayerCount: 2
Back
SplineSet
610 25 m 5
 569 36 531 86 490 340 c 5
 482 204 444 15 290 15 c 4
 -2 15 85 585 379 585 c 4
 470 585 490 492 490 467 c 1029
EndSplineSet
Fore
SplineSet
540 360 m 1xb8
 582 92 616 63 633 59 c 0
 650 55 659 43 659 30 c 0
 659 24 658 18 654 13 c 0
 644 -1 626 -11 607 -11 c 0x78
 602 -11 597 -10 592 -9 c 0
 547 4 518 43 491 150 c 1
 464 64 412 -21 283 -21 c 0
 117 -21 60 105 60 232 c 0
 60 262 63 292 69 320 c 0
 96 455 195 621 386 621 c 0
 526 621 539 496 539 472 c 0
 539 453 517 435 490 432 c 2
 483 432 l 2
 459 432 441 445 441 462 c 0
 441 488 414 549 372 549 c 0
 283 549 195 456 167 320 c 0
 162 294 159 268 159 244 c 0
 159 131 215 51 297 51 c 0
 356 51 404 111 427 226 c 0
 434 263 439 301 441 336 c 0
 442 350 454 372 473 372 c 0
 514 372 540 360 540 360 c 1xb8
EndSplineSet
Validated: 1
EndChar

StartChar: b
Encoding: 98 98 70
Width: 670
VWidth: 0
GlyphClass: 2
Flags: W
HStem: -21 72<221.914 380.375> 524 67<214.334 356.012> 546 71<253.376 424.378> 826 20G<134 147>
VStem: 81 98<525.874 839.172> 91 98<83.3053 765.94> 504 99<207.586 458.949>
AnchorPoint: "LatinBelow.mark" 330 0 basechar 0
AnchorPoint: "LatinAbove.mark" 160 180 basechar 0
LayerCount: 2
Back
SplineSet
260 560 m 1
 655 712 641 15 280 15 c 0
 209 15 140 68 140 130 c 0
 141 374 148 705 130 810 c 1025
EndSplineSet
Fore
SplineSet
214 542 m 0xd6
 212 546 211 550 211 554 c 0
 211 568 223 583 242 591 c 0xd6
 287 608 330 617 371 617 c 2
 373 617 l 2
 541 617 603 482 603 350 c 0
 603 321 600 292 594 264 c 0
 568 133 469 -21 273 -21 c 0
 172 -21 91 47 91 125 c 0xb6
 91 232 93 356 93 470 c 0
 93 616 91 745 81 801 c 1
 81 805 l 2
 81 823 99 840 124 845 c 0
 128 846 132 846 136 846 c 0
 158 846 176 835 179 819 c 0xba
 189 761 192 642 192 507 c 0
 192 385 189 251 189 135 c 0
 189 89 246 51 287 51 c 0
 390 51 471 136 497 264 c 0
 502 289 504 313 504 336 c 0
 504 455 442 546 357 546 c 0xb6
 336 546 310 541 278 529 c 0
 270 526 261 524 253 524 c 0
 236 524 221 531 214 542 c 0xd6
EndSplineSet
Validated: 1
EndChar

StartChar: c
Encoding: 99 99 71
Width: 600
VWidth: 0
GlyphClass: 2
Flags: W
HStem: -22 76<256.408 426.357> 548 76<256.238 407.325>
VStem: 58 104<161.017 438.343> 433 104<441.156 522.171>
AnchorPoint: "LatinCedilla.mark" 360 0 basechar 0
AnchorPoint: "LatinBelow.mark" 350 0 basechar 0
AnchorPoint: "LatinAbove.mark" 350 0 basechar 0
LayerCount: 2
Back
SplineSet
510 105 m 5
 428 -29 110 -44 110 295 c 4
 110 649 485 644 485 470 c 1029
EndSplineSet
Fore
SplineSet
532 141 m 0
 551 137 562 124 562 110 c 0
 562 105 560 99 557 94 c 0
 519 32 441 -11 357 -20 c 0
 346 -21 334 -22 323 -22 c 0
 179 -22 58 80 58 290 c 0
 58 490 178 607 322 622 c 0
 332 623 342 624 351 624 c 0
 454 624 537 565 537 475 c 0
 537 455 513 436 485 433 c 2
 478 433 l 2
 453 433 433 447 433 465 c 0
 433 520 386 548 337 548 c 0
 332 548 327 548 322 547 c 0
 264 541 162 485 162 300 c 0
 162 105 267 54 340 54 c 0
 346 54 352 54 357 55 c 0
 401 60 442 82 463 116 c 0
 473 132 495 143 517 143 c 0
 522 143 527 142 532 141 c 0
EndSplineSet
Validated: 1
EndChar

StartChar: d
Encoding: 100 100 72
Width: 720
VWidth: 0
GlyphClass: 2
Flags: W
HStem: -21 72<249.299 384.415> 544 72<264.592 425.53>
VStem: 61 98<158.648 417.704> 476 98<183.141 490.816 586 868.076>
AnchorPoint: "LatinBelow.mark" 360 0 basechar 0
AnchorPoint: "LatinAbove.mark" 510 180 basechar 0
LayerCount: 2
Back
SplineSet
640 15 m 1
 575 29 529 145 525 330 c 0
 522 453 534 678 525 840 c 1025
525 300 m 1
 506 186 450 15 320 15 c 0
 28 15 39 580 360 580 c 0
 515 580 520 403 522 380 c 2
 525 300 l 1
EndSplineSet
Fore
SplineSet
523 875 m 0
 526 875 530 876 533 876 c 0
 556 876 573 864 574 847 c 0
 577 800 577 751 577 702 c 0
 577 598 574 463 574 381 c 2
 574 336 l 2
 576 257 586 192 600 144 c 0
 620 77 652 51 660 49 c 0
 678 45 689 34 689 20 c 0
 689 15 688 10 685 5 c 0
 676 -10 655 -21 634 -21 c 0
 629 -21 624 -20 620 -19 c 0
 564 -5 534 51 514 120 c 0
 513 123 513 125 512 128 c 1
 480 60 427 -21 313 -21 c 0
 128 -21 61 139 61 275 c 0
 61 302 64 330 69 357 c 0
 93 478 183 616 367 616 c 0
 415 616 452 604 479 586 c 1
 479 692 l 2
 479 741 479 788 476 833 c 2
 476 834 l 2
 476 853 497 871 523 875 c 0
476 422 m 1
 465 474 436 544 353 544 c 0
 261 544 189 474 166 357 c 0
 161 334 159 309 159 285 c 0
 159 151 232 51 327 51 c 0
 360 51 403 79 437 151 c 0
 457 193 470 242 478 285 c 0
 477 298 476 310 476 324 c 2
 476 371 l 1
 476 422 l 1
EndSplineSet
Validated: 1
EndChar

StartChar: e
Encoding: 101 101 73
Width: 630
VWidth: 0
GlyphClass: 2
Flags: W
HStem: -20 72<267.898 443.698> 552 71<270.521 435.261>
VStem: 71 98<299 435.133> 471 98<368.776 516.355>
AnchorPoint: "LatinOgonek.mark" 390 0 basechar 0
AnchorPoint: "LatinBelow.mark" 340 0 basechar 0
AnchorPoint: "LatinAbove.mark" 340 0 basechar 0
LayerCount: 2
Back
SplineSet
530 105 m 5
 438 -29 130 -44 120 295 c 4
 110 642 520 663 520 450 c 4
 520 287 317 270 95 260 c 1029
EndSplineSet
Fore
SplineSet
177 229 m 1
 198 120 258 73 312 58 c 0
 326 54 341 52 355 52 c 0
 408 52 459 77 486 117 c 0
 496 131 517 141 537 141 c 0
 542 141 548 140 553 139 c 0
 570 134 580 123 580 110 c 0
 580 105 578 98 574 93 c 0
 527 26 434 -20 339 -20 c 0
 314 -20 289 -17 265 -10 c 0
 169 16 97 92 76 225 c 1
 57 229 45 239 45 253 c 2
 45 256 l 2
 46 268 57 281 71 288 c 1
 71 302 l 2
 71 489 192 603 337 621 c 0
 349 622 361 623 372 623 c 0
 482 623 569 558 569 455 c 0
 569 304 408 252 249 235 c 2
 177 229 l 1
169 299 m 1
 197 301 224 303 249 306 c 0
 397 322 471 349 471 445 c 0
 471 520 413 552 356 552 c 0
 350 552 345 552 339 551 c 0
 272 543 169 482 169 313 c 2
 169 301 l 1
 169 299 l 1
EndSplineSet
Validated: 1
EndChar

StartChar: f
Encoding: 102 102 74
Width: 480
VWidth: 0
GlyphClass: 2
Flags: W
HStem: -20 21G<196 228.5> 529 72<24.9924 147 248 406.873> 803 71<252.461 378.453>
VStem: 132 96<597.594 785.672> 167 98<-12.6965 391.009>
AnchorPoint: "LatinBelow.mark" 210 0 basechar 0
AnchorPoint: "LatinAbove.mark" 310 180 basechar 0
LayerCount: 2
Back
SplineSet
360 560 m 5
 215 555 162 557 70 565 c 1029
215 15 m 5
 219 315 202 513 180 705 c 4
 167 815 300 890 430 795 c 1029
EndSplineSet
Fore
SplineSet
215 -20 m 2xe8
 208 -20 l 2
 184 -20 166 -7 166 10 c 0
 166 40 167 68 167 96 c 0xe8
 167 265 160 400 149 523 c 1
 119 524 90 526 57 529 c 0
 35 531 20 544 20 560 c 0
 20 563 21 566 22 569 c 0
 29 587 53 601 78 601 c 2
 83 601 l 2
 105 599 129 597 147 596 c 1
 142 630 137 664 133 697 c 0
 132 703 132 709 132 715 c 0
 132 762 151 806 195 837 c 0
 229 862 271 874 314 874 c 0
 366 874 421 856 468 822 c 0
 476 816 479 809 479 801 c 0
 479 791 473 780 462 772 c 0
 451 764 436 759 422 759 c 0
 411 759 400 762 392 768 c 0
 356 795 326 803 303 803 c 0
 283 803 268 797 259 790 c 0
 243 778 228 755 228 724 c 0xf0
 228 720 229 717 229 713 c 0
 231 674 234 634 237 593 c 1
 270 593 313 594 365 596 c 2
 367 596 l 2
 391 596 409 583 409 566 c 2
 409 562 l 2
 406 543 382 525 355 524 c 0
 313 522 278 521 248 521 c 1
 258 401 265 269 265 106 c 0
 265 78 264 50 264 20 c 0
 264 1 242 -17 215 -20 c 2xe8
EndSplineSet
Validated: 1
EndChar

StartChar: g
Encoding: 103 103 75
Width: 650
VWidth: 0
GlyphClass: 2
Flags: W
HStem: -266 72<262.638 423.667> -21 72<225.748 358.538> 549 72<293.112 416.394>
VStem: 60 99<126.817 379.327> 441 98<236.17 356 438.78 523.374> 493 89<-104.182 164.897>
AnchorPoint: "LatinBelow.mark" 360 -180 basechar 0
AnchorPoint: "LatinAbove.mark" 360 0 basechar 0
LayerCount: 2
Back
SplineSet
490 340 m 5
 576 8 535 -230 340 -230 c 4
 283 -230 227 -208 200 -170 c 1029
490 340 m 5
 482 204 444 15 290 15 c 4
 -2 15 85 585 379 585 c 4
 470 585 490 492 490 467 c 1030
EndSplineSet
Fore
SplineSet
539 356 m 1xf8
 567 247 582 143 582 57 c 0
 582 16 579 -22 572 -57 c 0
 550 -169 477 -266 333 -266 c 0
 260 -266 189 -238 155 -190 c 0
 152 -186 150 -181 150 -176 c 0
 150 -163 161 -148 179 -140 c 0
 188 -136 197 -134 206 -134 c 0
 222 -134 237 -140 245 -150 c 0
 265 -178 306 -194 347 -194 c 0
 409 -194 459 -163 480 -57 c 0
 488 -18 493 27 493 78 c 0xf4
 493 106 492 135 488 166 c 1
 460 75 407 -21 283 -21 c 0
 117 -21 60 105 60 232 c 0
 60 262 63 292 69 320 c 0
 96 455 195 621 386 621 c 0
 526 621 539 496 539 472 c 0
 539 453 517 435 490 432 c 2
 483 432 l 2
 459 432 441 445 441 462 c 0
 441 488 414 549 372 549 c 0
 283 549 195 456 167 320 c 0
 162 294 159 268 159 244 c 0
 159 131 215 51 297 51 c 0
 356 51 404 111 427 226 c 0
 434 263 439 301 441 336 c 0
 442 355 452 376 477 376 c 0
 501 376 539 356 539 356 c 1xf8
EndSplineSet
Validated: 1
EndChar

StartChar: h
Encoding: 104 104 76
Width: 670
VWidth: 0
GlyphClass: 2
Flags: W
HStem: -14 21G<125.5 148.5 526 559.5> 549 72<346.483 458.164> 841 20G<119 131.5>
VStem: 106 98<12 222.642> 496 98<-3.5163 502.798>
AnchorPoint: "LatinBelow.mark" 330 0 basechar 0
AnchorPoint: "LatinAbove.mark" 160 180 basechar 0
LayerCount: 2
Back
SplineSet
155 20 m 1
 166 103 167 153 205 325 c 0
 233 451 282 585 425 585 c 0
 512 585 540 505 540 365 c 0
 540 239 543 130 545 25 c 1025
115 825 m 5
 140 761 154 312 155 20 c 1025
EndSplineSet
Fore
SplineSet
133 -14 m 0
 118 -14 106 1 106 15 c 0
 105 304 87 760 67 811 c 0
 66 814 65 817 65 820 c 0
 65 836 80 851 102 858 c 0
 108 860 116 861 122 861 c 0
 141 861 158 853 163 839 c 0
 181 794 191 613 197 425 c 1
 230 523 292 621 432 621 c 0
 570 621 589 503 589 370 c 0
 589 244 592 136 594 31 c 0
 594 12 573 -7 546 -10 c 2
 538 -10 l 2
 514 -10 496 2 496 19 c 0
 494 124 491 234 491 360 c 0
 491 507 454 549 418 549 c 0
 333 549 279 461 249 324 c 0
 211 153 212 106 204 12 c 1
 204 12 164 -14 133 -14 c 0
EndSplineSet
Validated: 1
EndChar

StartChar: i
Encoding: 105 105 77
Width: 340
VWidth: 0
GlyphClass: 2
Flags: W
HStem: -21 21G<181.5 194> 585 20G<151.5 184.5> 725 137<109.137 229.514>
VStem: 86 168<749.13 838.517> 114 100<34.625 596.875>
AnchorPoint: "LatinOgonek.mark" 180 0 basechar 0
AnchorPoint: "LatinBelow.mark" 180 0 basechar 0
AnchorPoint: "LatinAbove.mark" 180 210 basechar 0
AnchorPoint: "LatinAbove.mark" 180 180 basechar 0
LayerCount: 2
Back
SplineSet
195 15 m 1
 163 37 163 87 165 163 c 0
 169 328 167 405 165 570 c 1025
EndSplineSet
Fore
SplineSet
236 842 m 0xf0
 238 840 254 825 254 801 c 0
 254 797 254 792 253 788 c 0
 248 762 215 725 160 725 c 0
 110 725 86 756 86 786 c 0
 86 809 108 862 180 862 c 0
 186 862 192 861 196 860 c 2
 212 856 l 2
 222 853 231 848 236 842 c 0xf0
228 -8 m 0
 217 -16 201 -21 187 -21 c 0
 176 -21 166 -18 158 -13 c 0
 121 13 114 51 114 98 c 0
 114 117 115 137 116 158 c 0
 118 227 118 282 118 333 c 0
 118 403 117 469 116 564 c 0
 116 583 138 602 165 605 c 2
 173 605 l 2
 196 605 214 593 214 576 c 0
 215 481 216 415 216 344 c 0
 216 292 216 238 214 168 c 2
 214 145 l 2xe8
 214 82 221 50 232 43 c 0
 240 37 244 30 244 21 c 0
 244 11 239 0 228 -8 c 0
EndSplineSet
Validated: 1
EndChar

StartChar: j
Encoding: 106 106 78
Width: 340
VWidth: 0
GlyphClass: 2
Flags: W
HStem: -246 67<34.334 102.693> 586 20G<180.5 193.5> 725 137<109.137 229.514>
VStem: 86 168<749.13 838.517> 126 98<279.624 598.807> 146 98<-130.651 301.542>
AnchorPoint: "LatinBelow.mark" 180 -180 basechar 0
AnchorPoint: "LatinAbove.mark" 180 180 basechar 0
LayerCount: 2
Back
SplineSet
175 570 m 5
 186 446 195 260 195 10 c 0
 195 -127 153 -182 80 -210 c 1025
EndSplineSet
Fore
SplineSet
236 842 m 0xf0
 238 840 254 825 254 801 c 0
 254 797 254 792 253 788 c 0
 248 762 215 725 160 725 c 0
 110 725 86 756 86 786 c 0
 86 809 108 862 180 862 c 0
 186 862 192 861 196 860 c 2
 212 856 l 2
 222 853 231 848 236 842 c 0xf0
172 605 m 0
 175 605 179 606 182 606 c 0
 205 606 222 594 224 577 c 0xe8
 235 452 244 266 244 15 c 0
 244 -125 199 -202 98 -241 c 0
 90 -244 81 -246 73 -246 c 0
 56 -246 41 -239 34 -228 c 0
 32 -224 31 -220 31 -216 c 0
 31 -202 43 -187 62 -179 c 0
 107 -162 146 -129 146 5 c 0xe4
 146 254 137 440 126 563 c 1
 126 566 l 2xe8
 126 584 146 601 172 605 c 0
EndSplineSet
Validated: 1
EndChar

StartChar: k
Encoding: 107 107 79
Width: 620
VWidth: 0
GlyphClass: 2
Flags: W
HStem: -15 25G<141 173.5 525.5 538> 586 20G<501 513.5> 826 20G<129 141.5>
VStem: 107 100<-9.1669 265 414 660.713>
AnchorPoint: "LatinBelow.mark" 330 0 basechar 0
AnchorPoint: "LatinAbove.mark" 160 180 basechar 0
LayerCount: 2
Back
SplineSet
540 25 m 5
 513 58 315 282 130 340 c 5
 277 413 434 512 500 570 c 1029
125 810 m 5
 150 746 159 312 160 20 c 1029
EndSplineSet
Fore
SplineSet
112 843 m 0
 118 845 126 846 132 846 c 0
 151 846 168 838 173 824 c 0
 191 778 199 607 204 414 c 1
 318 477 418 549 464 590 c 0
 475 600 493 606 509 606 c 0
 518 606 527 604 534 600 c 0
 544 594 549 585 549 576 c 0
 549 567 545 558 536 550 c 0
 473 495 348 417 217 347 c 1
 394 261 558 78 584 46 c 0
 588 41 590 35 590 30 c 0
 590 17 580 4 563 -4 c 0
 554 -9 543 -11 533 -11 c 0
 518 -11 504 -6 496 4 c 0
 475 29 347 180 207 265 c 1
 208 182 209 99 209 25 c 0
 209 6 187 -12 160 -15 c 2
 153 -15 l 2
 129 -15 111 -2 111 15 c 0
 111 105 109 208 107 311 c 0
 106 311 106 312 105 312 c 2
 105 312 69 318 69 333 c 0
 69 341 78 351 105 364 c 1
 99 573 90 764 77 796 c 0
 76 799 75 802 75 805 c 0
 75 821 90 836 112 843 c 0
EndSplineSet
Validated: 1
EndChar

StartChar: l
Encoding: 108 108 80
Width: 360
VWidth: 0
GlyphClass: 2
Flags: W
HStem: -23 70<240.5 319.523> 820 20G<146.5 179>
VStem: 106 98<84.8896 830.452>
AnchorPoint: "LatinBelow.mark" 210 0 basechar 0
AnchorPoint: "LatinAbove.mark" 180 180 basechar 0
LayerCount: 2
Back
SplineSet
275 13 m 5
 228 24 164 51 160 151 c 4
 150 401 156 554 160 805 c 1029
EndSplineSet
Fore
SplineSet
320 3 m 0
 310 -12 289 -23 268 -23 c 0
 263 -23 258 -22 254 -21 c 0
 195 -7 116 32 111 145 c 0
 107 246 106 333 106 415 c 0
 106 536 109 651 111 800 c 0
 111 819 133 837 160 840 c 2
 167 840 l 2
 191 840 209 827 209 810 c 0
 207 661 204 546 204 425 c 0
 204 343 205 258 209 157 c 0
 212 70 261 55 296 47 c 0
 314 43 325 31 325 18 c 0
 325 13 323 8 320 3 c 0
EndSplineSet
Validated: 1
EndChar

StartChar: m
Encoding: 109 109 81
Width: 965
VWidth: 0
GlyphClass: 2
Flags: W
HStem: -10 21G<115.5 141 455.5 481 806 838.5> 549 72<290.474 403.271 630.144 741.261>
VStem: 76 101<467.705 609.112> 96 98<7 297.902> 436 98<16 286.612> 781 98<-0.452385 503.983>
AnchorPoint: "LatinBelow.mark" 510 0 basechar 0
AnchorPoint: "LatinAbove.mark" 510 0 basechar 0
LayerCount: 2
Back
SplineSet
825 25 m 1
 825 130 830 222 830 295 c 0
 830 495 794 585 700 585 c 0
 597 585 544 494 525 365 c 0
 499 192 496 107 485 24 c 1
 485 132 490 222 490 295 c 0
 490 495 454 585 360 585 c 0
 257 585 204 494 185 365 c 0
 159 192 156 98 145 15 c 1
 144 155 137 471 125 580 c 1025
EndSplineSet
Fore
SplineSet
463 -10 m 0xec
 448 -10 436 5 436 19 c 0
 436 128 441 218 441 290 c 0
 441 509 404 549 353 549 c 0
 300 549 244 501 224 366 c 0
 198 194 200 101 194 7 c 1
 194 7 159 -19 123 -19 c 0
 108 -19 96 -4 96 10 c 0xdc
 95 149 88 466 76 572 c 1
 76 575 l 2
 76 593 95 611 121 615 c 0
 125 616 128 616 131 616 c 0
 153 616 167 605 169 588 c 0
 172 558 175 513 177 461 c 1
 205 547 258 621 367 621 c 0
 460 621 502 566 521 474 c 1
 550 555 603 621 707 621 c 0
 854 621 879 491 879 300 c 0
 879 226 874 134 874 30 c 0
 874 11 852 -7 825 -10 c 2
 818 -10 l 2
 794 -10 776 3 776 20 c 0
 776 126 781 218 781 290 c 0
 781 509 744 549 693 549 c 0
 640 549 584 501 564 366 c 0
 538 194 540 111 534 16 c 1
 534 16 499 -10 463 -10 c 0xec
EndSplineSet
Validated: 1
EndChar

StartChar: n
Encoding: 110 110 82
Width: 660
VWidth: 0
GlyphClass: 2
Flags: W
HStem: -10 16G<120.5 145.5 516 549.5> 549 72<339.452 448.164>
VStem: 55 98<444.545 608.365> 96 98<10 204.201> 486 98<-3.5163 502.798>
AnchorPoint: "LatinBelow.mark" 330 0 basechar 0
AnchorPoint: "LatinAbove.mark" 330 0 basechar 0
LayerCount: 2
Back
SplineSet
145 20 m 5
 156 103 157 153 195 325 c 4
 223 451 272 585 415 585 c 4
 502 585 530 505 530 365 c 4
 530 239 533 130 535 25 c 1029
105 580 m 5
 130 516 144 312 145 20 c 1029
EndSplineSet
Fore
SplineSet
130 -15 m 0xd8
 111 -15 96 -1 96 15 c 0xd8
 95 305 78 511 57 566 c 0
 56 569 55 572 55 575 c 0
 55 591 70 606 92 613 c 0
 98 615 106 616 112 616 c 0
 131 616 148 608 153 594 c 0xe8
 167 558 176 492 183 399 c 1
 213 505 270 621 422 621 c 0
 560 621 579 503 579 370 c 0
 579 244 582 136 584 31 c 0
 584 12 563 -7 536 -10 c 2
 528 -10 l 2
 504 -10 486 2 486 19 c 0
 484 124 481 234 481 360 c 0
 481 507 444 549 408 549 c 0
 323 549 274 461 244 324 c 0
 206 153 202 106 194 10 c 1
 194 10 161 -15 130 -15 c 0xd8
EndSplineSet
Validated: 1
EndChar

StartChar: o
Encoding: 111 111 83
Width: 660
VWidth: 0
GlyphClass: 2
Flags: W
HStem: -21 72<264.383 415.134> 552 72<253.982 415.243>
VStem: 61 98<167.546 436.89> 506 98<153.815 395.285>
AnchorPoint: "LatinOgonek.mark" 370 0 basechar 0
AnchorPoint: "LatinBelow.mark" 330 0 basechar 0
AnchorPoint: "LatinAbove.mark" 330 0 basechar 0
LayerCount: 2
Back
SplineSet
490 449 m 5
 529 439 555 357 555 290 c 4
 555 -78 110 -76 110 295 c 4
 110 637 450 652 505 480 c 1029
EndSplineSet
Fore
SplineSet
456 471 m 1
 436 527 383 552 334 552 c 0
 321 552 309 550 297 547 c 0
 240 531 159 464 159 300 c 0
 159 118 269 51 343 51 c 0
 347 51 351 52 355 52 c 0
 414 58 506 119 506 285 c 0
 506 341 480 406 466 416 c 1
 451 421 441 431 441 444 c 0
 441 449 442 455 446 460 c 0
 448 464 452 468 456 471 c 1
546 465 m 1
 588 428 604 356 604 295 c 0
 604 119 503 -3 356 -19 c 0
 346 -20 335 -21 325 -21 c 0
 176 -21 61 99 61 290 c 0
 61 468 150 580 277 614 c 0
 302 621 326 624 350 624 c 0
 446 624 528 572 553 493 c 0
 554 491 554 488 554 486 c 0
 554 479 551 472 546 465 c 1
EndSplineSet
Validated: 1
EndChar

StartChar: p
Encoding: 112 112 84
Width: 680
VWidth: 0
GlyphClass: 2
Flags: W
HStem: -246 21G<130 160.5> -16 72<264.547 426.843> 549 72<288.628 430.001>
VStem: 41 88<547.62 613.54> 101 102<-236.646 33 118.451 423.152> 523 99<176.148 434.745>
AnchorPoint: "LatinBelow.mark" 180 -180 basechar 0
AnchorPoint: "LatinAbove.mark" 360 0 basechar 0
LayerCount: 2
Back
SplineSet
80 585 m 5
 121 530 141 408 145 270 c 4
 149 147 148 -103 140 -210 c 1029
145 300 m 5
 164 414 200 585 350 585 c 4
 642 585 631 20 330 20 c 4
 175 20 150 197 148 220 c 6
 145 300 l 5
EndSplineSet
Fore
SplineSet
147 -246 m 2xec
 142 -246 l 2
 118 -246 101 -231 101 -214 c 2
 101 -213 l 1xec
 106 -147 108 -24 108 89 c 0
 108 156 107 219 106 264 c 0
 102 400 79 520 46 565 c 0
 43 570 41 575 41 580 c 0
 41 593 51 606 68 614 c 0
 77 618 87 620 96 620 c 0
 110 620 122 615 129 605 c 0xf4
 149 574 163 530 172 476 c 1
 201 552 255 621 367 621 c 0
 552 621 622 465 622 320 c 0
 622 291 619 262 614 235 c 0
 590 118 506 -16 333 -16 c 0
 276 -16 234 4 203 33 c 1
 203 -32 l 2
 203 -101 202 -165 199 -207 c 0
 198 -226 174 -244 147 -246 c 2xec
202 174 m 1
 220 116 265 56 347 56 c 0
 426 56 493 121 516 235 c 0
 521 259 523 283 523 307 c 0
 523 438 452 549 353 549 c 0
 277 549 232 468 208 348 c 0
 205 332 202 316 199 301 c 2
 202 174 l 1
EndSplineSet
Validated: 1
EndChar

StartChar: q
Encoding: 113 113 85
Width: 670
VWidth: 0
GlyphClass: 2
Flags: W
HStem: -261 87<578.047 640.687> -17 71<234.208 417.755> 9 67<307.989 450.666> 549 72<280.417 438.086>
VStem: 59 100<142.27 397.349> 459 98<-183.872 308.749> 471 98<176.162 517.066>
AnchorPoint: "LatinBelow.mark" 450 -180 basechar 0
AnchorPoint: "LatinAbove.mark" 360 0 basechar 0
LayerCount: 2
Back
SplineSet
610 -210 m 1
 515 -269 508 -154 508 12 c 0
 508 147 520 318 520 470 c 0
 520 532 451 585 380 585 c 0
 19 585 10 -112 405 40 c 1025
EndSplineSet
Fore
SplineSet
451 58 m 0xba
 453 54 454 50 454 46 c 0
 454 32 442 17 423 9 c 0xba
 378 -8 334 -17 293 -17 c 0
 122 -17 59 119 59 253 c 0
 59 282 62 312 68 339 c 0
 94 469 192 621 387 621 c 0
 488 621 569 553 569 475 c 0xda
 569 322 557 151 557 17 c 0
 557 -81 558 -161 578 -186 c 1
 579 -185 580 -185 581 -184 c 0
 592 -177 604 -174 616 -174 c 0
 629 -174 642 -178 650 -185 c 0
 656 -191 659 -198 659 -205 c 0
 659 -216 652 -228 639 -236 c 0
 618 -249 590 -261 560 -261 c 0
 555 -261 550 -261 545 -260 c 0
 526 -257 510 -251 502 -241 c 0
 464 -197 459 -104 459 7 c 0xdc
 459 143 471 314 471 465 c 0
 471 511 414 549 373 549 c 0
 271 549 191 465 166 339 c 0
 161 314 159 289 159 266 c 0
 159 146 221 54 307 54 c 0xda
 328 54 355 59 387 71 c 0
 395 74 404 76 412 76 c 0
 429 76 444 69 451 58 c 0xba
EndSplineSet
Validated: 1
EndChar

StartChar: r
Encoding: 114 114 86
Width: 510
VWidth: 0
GlyphClass: 2
Flags: W
HStem: -13 21G<189 217> 536 70<26.4775 83.8188> 549 72<323.233 431.531>
VStem: 171 100<15 312.546>
AnchorPoint: "LatinBelow.mark" 210 0 basechar 0
AnchorPoint: "LatinAbove.mark" 210 0 basechar 0
LayerCount: 2
Back
SplineSet
440 560 m 1
 307 641 245 512 235 379 c 0
 222 200 226 160 220 20 c 1
 214 153 210 238 190 360 c 0
 173 464 136 552 70 570 c 1025
EndSplineSet
Fore
SplineSet
196 -13 m 0xb0
 182 -13 172 2 171 14 c 0
 165 147 166 230 146 351 c 0
 129 456 86 527 47 536 c 0
 30 540 20 552 20 565 c 0
 20 571 22 577 26 582 c 0
 36 596 58 606 78 606 c 0xd0
 83 606 88 605 93 604 c 0
 159 586 191 523 209 453 c 1
 226 533 263 615 361 621 c 1
 373 621 l 2
 410 621 443 609 475 589 c 0
 485 583 489 575 489 566 c 0
 489 557 485 547 475 539 c 0
 463 529 447 524 432 524 c 0
 422 524 412 526 405 531 c 0
 378 548 361 549 355 549 c 0
 336 549 287 494 279 382 c 0
 272 284 271 229 271 175 c 2
 271 147 l 2
 271 112 271 80 269 15 c 1
 269 15 238 -13 196 -13 c 0xb0
EndSplineSet
Validated: 1
EndChar

StartChar: s
Encoding: 115 115 87
Width: 570
VWidth: 0
GlyphClass: 2
Flags: W
HStem: -20 72<206.302 391.967> 554 72<193.763 360.726>
VStem: 56 93<404.592 513.567> 60 98<97.8161 153.365> 381 99<441.662 533.436> 431 95<89.8179 209.212>
AnchorPoint: "LatinCedilla.mark" 300 0 basechar 0
AnchorPoint: "LatinBelow.mark" 290 0 basechar 0
AnchorPoint: "LatinAbove.mark" 290 0 basechar 0
LayerCount: 2
Back
SplineSet
430 470 m 5
 439 531 390 590 305 590 c 4
 99 590 26 396 210 335 c 4
 243 324 343 289 370 280 c 4
 552 222 482 16 294 16 c 4
 199 16 136 60 110 125 c 1029
EndSplineSet
Fore
SplineSet
97 158 m 0xd4
 103 160 111 161 117 161 c 0
 136 161 153 153 158 139 c 0
 180 83 229 52 301 52 c 0
 356 52 391 70 412 98 c 0
 424 114 431 132 431 150 c 0xd4
 431 188 404 226 344 245 c 0
 315 255 216 289 184 300 c 0
 97 329 56 387 56 445 c 0
 56 453 56 461 58 469 c 0
 74 550 172 626 312 626 c 0
 422 626 480 558 480 489 c 0
 480 483 480 477 479 471 c 0
 476 452 452 435 425 434 c 2
 423 434 l 2
 399 434 381 448 381 465 c 2
 381 469 l 2
 382 473 382 476 382 480 c 0
 382 522 345 554 298 554 c 0
 207 554 159 514 150 469 c 0
 149 465 149 461 149 457 c 0xe8
 149 424 176 390 236 370 c 0
 270 359 369 324 396 315 c 0
 485 287 526 228 526 167 c 0
 526 134 514 100 491 71 c 0
 452 20 378 -20 287 -20 c 0
 169 -20 92 37 62 111 c 0
 61 114 60 117 60 120 c 0
 60 136 75 151 97 158 c 0xd4
EndSplineSet
Validated: 1
EndChar

StartChar: t
Encoding: 116 116 88
Width: 480
VWidth: 0
GlyphClass: 2
Flags: W
HStem: -18 69<253.394 358.347> 524 77<24.9924 141 239 404.093>
VStem: 131 98<74.332 444.741> 145 89<596 747.03>
AnchorPoint: "LatinCedilla.mark" 270 0 basechar 0
AnchorPoint: "LatinBelow.mark" 270 0 basechar 0
AnchorPoint: "LatinAbove.mark" 180 120 basechar 0
LayerCount: 2
Back
SplineSet
360 560 m 5
 215 555 162 557 70 565 c 1029
400 60 m 5
 270 -35 180 40 180 150 c 4
 180 326 199 518 185 715 c 1029
EndSplineSet
Fore
SplineSet
183 750 m 0xd0
 186 750 190 751 193 751 c 0
 216 751 233 739 234 722 c 0
 235 708 235 693 235 679 c 0
 235 650 234 622 234 593 c 1xd0
 267 593 313 594 365 596 c 2
 367 596 l 2
 391 596 409 583 409 566 c 2
 409 562 l 2
 406 543 382 525 355 524 c 0
 309 522 271 522 239 522 c 1
 237 394 229 270 229 155 c 0
 229 111 247 77 268 62 c 0
 276 56 285 51 297 51 c 0
 313 51 334 59 367 83 c 0
 378 91 393 96 407 96 c 0
 418 96 429 93 437 87 c 0
 445 81 449 73 449 65 c 0
 449 55 444 45 433 37 c 0
 383 0 329 -18 281 -18 c 0
 248 -18 217 -9 193 8 c 0
 150 39 131 90 131 145 c 0xe0
 131 266 140 394 141 524 c 1
 114 525 87 526 57 529 c 0
 35 531 20 544 20 560 c 0
 20 563 21 566 22 569 c 0
 29 587 53 601 78 601 c 2
 83 601 l 2
 104 599 127 597 145 596 c 1
 144 633 139 671 136 708 c 2
 136 709 l 2
 136 728 157 746 183 750 c 0xd0
EndSplineSet
Validated: 1
EndChar

StartChar: u
Encoding: 117 117 89
Width: 680
VWidth: 0
GlyphClass: 2
Flags: W
HStem: -21 72<235.75 364.815> 591 20G<135.5 148 504.5 527>
VStem: 86 98<109.842 605.889> 471 93<300.737 592>
AnchorPoint: "LatinOgonek.mark" 580 0 basechar 0
AnchorPoint: "LatinBelow.mark" 360 0 basechar 0
AnchorPoint: "LatinAbove.mark" 330 0 basechar 0
LayerCount: 2
Back
SplineSet
610 20 m 5
 544 77 520 209 515 575 c 5
 507 345 502 15 290 15 c 4
 199 15 135 85 135 235 c 4
 135 361 139 483 130 575 c 1029
EndSplineSet
Fore
SplineSet
564 592 m 1
 569 201 600 89 650 45 c 0
 656 39 659 33 659 26 c 0
 659 15 652 3 639 -5 c 0
 628 -12 613 -16 600 -16 c 0
 588 -16 577 -13 570 -5 c 0
 539 30 517 83 503 173 c 1
 472 74 414 -21 283 -21 c 0
 150 -21 86 78 86 230 c 0
 86 289 87 347 87 402 c 0
 87 463 86 520 81 567 c 1
 81 570 l 2
 81 588 101 606 127 610 c 0
 131 611 134 611 137 611 c 0
 159 611 177 600 179 583 c 0
 184 533 185 475 185 413 c 0
 185 358 184 299 184 240 c 0
 184 92 248 51 297 51 c 0
 365 51 416 109 443 245 c 0
 463 346 467 468 471 571 c 0
 472 590 493 611 516 611 c 0
 538 611 564 592 564 592 c 1
EndSplineSet
Validated: 1
EndChar

StartChar: v
Encoding: 118 118 90
Width: 630
VWidth: 0
GlyphClass: 2
Flags: W
HStem: -18 21G<291.5 312> 581 20G<87 99.5>
VStem: 497 97<483.313 582.985>
AnchorPoint: "LatinBelow.mark" 315 0 basechar 0
AnchorPoint: "LatinAbove.mark" 315 0 basechar 0
LayerCount: 2
Back
SplineSet
545 555 m 1
 521 474 426 227 315 20 c 1
 274 141 167 430 85 565 c 1025
EndSplineSet
Fore
SplineSet
556 591 m 2
 578 590 594 577 594 561 c 0
 594 558 594 556 593 553 c 0
 568 469 474 222 361 12 c 1
 361 12 326 -18 298 -18 c 0
 285 -18 273 -11 267 7 c 0
 266 10 264 14 263 18 c 0
 220 143 116 420 39 547 c 0
 37 551 35 556 35 560 c 0
 35 574 47 588 66 596 c 0
 74 599 83 601 91 601 c 0
 108 601 124 594 131 583 c 0
 197 475 274 270 326 129 c 1
 410 302 478 494 497 557 c 0
 503 575 529 591 554 591 c 2
 556 591 l 2
EndSplineSet
Validated: 1
EndChar

StartChar: w
Encoding: 119 119 91
Width: 840
VWidth: 0
GlyphClass: 2
Flags: W
HStem: -11 21G<211 231 572 592.5> 581 20G<94 106.5 746 774>
VStem: 41 97<495.924 593.526>
AnchorPoint: "LatinBelow.mark" 420 0 basechar 0
AnchorPoint: "LatinAbove.mark" 420 0 basechar 0
LayerCount: 2
Back
SplineSet
750 565 m 1
 698 420 662 254 600 20 c 1
 554 151 433 505 413 535 c 1
 395 505 276 118 240 15 c 1
 192 208 128 447 90 565 c 1025
EndSplineSet
Fore
SplineSet
763 601 m 2
 785 599 800 586 800 570 c 0
 800 567 799 564 798 561 c 0
 747 419 709 253 647 18 c 1
 647 18 607 -11 578 -11 c 0
 566 -11 557 -6 552 7 c 0
 522 93 458 307 414 429 c 1
 371 297 310 80 286 11 c 1
 286 11 245 -15 217 -15 c 0
 205 -15 195 -10 191 4 c 0
 143 197 80 435 42 552 c 0
 41 554 41 556 41 559 c 0
 41 575 57 592 79 598 c 0
 85 600 91 600 97 600 c 0
 116 600 133 592 138 578 c 0
 166 490 218 300 252 148 c 1
 295 298 356 513 375 545 c 0
 390 570 405 578 418 578 c 0
 440 578 456 554 456 554 c 1
 477 523 550 303 599 148 c 1
 632 299 667 459 707 569 c 0
 714 587 734 601 758 601 c 2
 763 601 l 2
EndSplineSet
Validated: 1
EndChar

StartChar: x
Encoding: 120 120 92
Width: 600
VWidth: 0
GlyphClass: 2
Flags: W
HStem: -6 21G<64.5 77> 581 20G<121.5 134.5 483 495.5>
AnchorPoint: "LatinBelow.mark" 300 0 basechar 0
AnchorPoint: "LatinAbove.mark" 300 0 basechar 0
LayerCount: 2
Back
SplineSet
75 30 m 1
 219 235 312 360 485 565 c 1025
520 40 m 1
 345 243 260 360 120 565 c 1025
EndSplineSet
Fore
SplineSet
99 595 m 0
 108 599 117 601 126 601 c 0
 143 601 158 594 165 584 c 0
 213 514 254 449 295 393 c 1
 339 449 387 513 444 580 c 0
 455 593 474 600 492 600 c 0
 499 600 506 599 512 597 c 0
 526 592 534 582 534 570 c 0
 534 563 531 557 526 550 c 0
 456 466 394 397 341 329 c 1
 403 247 473 166 563 62 c 0
 567 57 569 52 569 46 c 0
 569 34 560 20 544 12 c 0
 534 7 523 5 513 5 c 0
 498 5 485 9 477 18 c 0
 400 107 340 185 286 256 c 1
 233 185 180 106 118 18 c 0
 108 4 87 -6 67 -6 c 0
 62 -6 56 -5 51 -4 c 0
 35 1 26 12 26 24 c 0
 26 30 28 36 32 42 c 0
 107 148 173 234 239 320 c 1
 188 389 134 460 75 546 c 0
 72 550 71 555 71 560 c 0
 71 573 81 587 99 595 c 0
EndSplineSet
Validated: 1
EndChar

StartChar: y
Encoding: 121 121 93
Width: 630
VWidth: 0
GlyphClass: 2
Flags: W
HStem: -257 72<210.983 332.032> 585 20G<111 123.5>
VStem: 56 98<436.609 598.096>
AnchorPoint: "LatinBelow.mark" 315 -180 basechar 0
AnchorPoint: "LatinAbove.mark" 315 0 basechar 0
LayerCount: 2
Back
SplineSet
525 560 m 1
 512 479 492 356 465 260 c 0
 433 146 364 40 295 40 c 0
 212 40 169 216 105 570 c 1025
525 560 m 1
 505 370 488 282 465 150 c 0
 422 -95 397 -297 180 -197 c 1025
EndSplineSet
Fore
SplineSet
574 573 m 1
 554 382 542 283 519 151 c 0
 493 5 475 -131 400 -207 c 0
 366 -241 321 -257 272 -257 c 0
 233 -257 191 -247 149 -228 c 0
 137 -222 130 -213 130 -202 c 0
 130 -194 136 -183 143 -176 c 0
 154 -165 171 -154 188 -154 c 0
 196 -154 204 -156 211 -159 c 0
 247 -177 265 -185 282 -185 c 0
 302 -185 312 -177 322 -169 c 0
 369 -130 399 -24 423 106 c 1
 393 49 355 4 288 4 c 0
 141 4 117 223 56 560 c 1
 56 564 l 2
 56 582 74 599 99 604 c 0
 104 605 109 605 113 605 c 0
 134 605 152 596 154 580 c 0
 208 247 244 89 303 76 c 1
 332 80 392 156 422 262 c 0
 448 356 463 478 476 559 c 0
 479 575 497 594 518 594 c 0
 548 594 574 573 574 573 c 1
EndSplineSet
Validated: 1
EndChar

StartChar: z
Encoding: 122 122 94
Width: 590
VWidth: 0
GlyphClass: 2
Flags: W
HStem: -17 78<161.547 530.174> -3 72<257.505 548.066> 525 72<63.875 392> 530 72<66.8279 273.982>
AnchorPoint: "LatinBelow.mark" 300 0 basechar 0
AnchorPoint: "LatinAbove.mark" 300 0 basechar 0
LayerCount: 2
Back
SplineSet
500 33 m 1
 372 21 100 16 100 50 c 0
 100 104 286 322 480 570 c 1
 335 561 263 558 115 566 c 1025
EndSplineSet
Fore
SplineSet
554 38 m 2x40
 553 19 527 0 497 -3 c 0x40
 452 -7 349 -17 253 -17 c 0
 145 -17 46 -5 46 43 c 0
 46 118 215 305 392 529 c 1
 345 527 303 525 260 525 c 0xa0
 213 525 163 527 101 530 c 0
 77 532 61 543 61 559 c 0
 61 562 62 566 63 569 c 0
 71 588 97 602 124 602 c 2
 129 602 l 2x10
 187 599 233 597 276 597 c 0
 340 597 398 601 485 606 c 1
 499 606 l 2
 532 606 541 597 541 586 c 0
 541 573 527 558 527 558 c 1
 353 335 186 134 158 68 c 1
 186 63 240 61 299 61 c 0xa0
 371 61 451 64 503 69 c 1
 511 69 l 2
 536 69 554 56 554 39 c 2
 554 38 l 2x40
EndSplineSet
Validated: 1
EndChar

StartChar: braceleft
Encoding: 123 123 95
Width: 360
VWidth: 0
GlyphClass: 2
Flags: W
HStem: -89 58<205.639 298.194> 831 58<198.979 298.194>
VStem: 112 80<-18.0431 239.758 548.456 827.072> 128 79<52.1201 332.986 448.085 764.925>
LayerCount: 2
Back
SplineSet
260 -60 m 1
 124 -60 150 53 162 162 c 0
 172 251 182 353 70 400 c 1
 191 433 180 534 166 648 c 0
 152 767 124 860 260 860 c 1025
EndSplineSet
Fore
SplineSet
299 860 m 2xd0
 296 844 275 831 254 831 c 0
 243 831 235 831 228 830 c 0
 203 826 194 810 194 772 c 0
 194 745 199 707 205 655 c 0
 209 620 215 583 215 548 c 0
 215 491 200 437 140 399 c 1
 195 358 207 302 207 247 c 0xd0
 207 218 204 190 201 164 c 0
 196 121 192 85 192 55 c 0
 192 0 207 -31 266 -31 c 0
 285 -31 299 -42 299 -56 c 2
 299 -60 l 2
 296 -76 275 -89 254 -89 c 0
 137 -89 112 -25 112 46 c 0xe0
 112 85 119 126 123 160 c 0
 126 186 128 211 128 235 c 0
 128 296 112 348 47 375 c 0
 29 383 22 390 22 397 c 0
 22 414 61 427 61 427 c 1
 117 442 134 482 134 546 c 0
 134 573 131 605 127 641 c 0
 123 678 113 721 113 761 c 0
 113 819 134 871 222 885 c 0
 236 887 251 889 266 889 c 0
 285 889 299 878 299 864 c 2
 299 860 l 2xd0
EndSplineSet
Validated: 1
EndChar

StartChar: bar
Encoding: 124 124 96
Width: 360
VWidth: 0
GlyphClass: 2
Flags: W
VStem: 142 80<-86.0349 886.991>
LayerCount: 2
Back
SplineSet
175 860 m 5
 184 554 182 324 180 -60 c 1029
EndSplineSet
Fore
SplineSet
174 890 m 0
 176 890 177 890 179 890 c 0
 199 890 215 879 215 864 c 0
 220 688 222 537 222 368 c 0
 222 242 221 107 220 -57 c 0
 220 -74 202 -88 180 -90 c 0
 178 -90 177 -90 175 -90 c 0
 155 -90 140 -79 140 -63 c 0
 141 101 142 237 142 362 c 0
 142 531 140 680 135 856 c 0
 135 872 152 888 174 890 c 0
EndSplineSet
Validated: 1
EndChar

StartChar: braceright
Encoding: 125 125 97
Width: 360
VWidth: 0
GlyphClass: 2
Flags: W
HStem: -89 58<61.8055 161.021> 831 58<61.8055 154.361>
VStem: 145 81<35.0754 345.485 476.129 747.88> 166 81<-27.4075 251.544 560.242 819.956>
LayerCount: 2
Back
SplineSet
100 860 m 1
 236 860 210 747 198 638 c 0
 188 549 178 447 290 400 c 1
 169 367 180 266 194 152 c 0
 208 33 236 -60 100 -60 c 1025
EndSplineSet
Fore
SplineSet
61 -60 m 2xd0
 64 -44 85 -31 106 -31 c 0
 117 -31 125 -31 132 -30 c 0
 157 -26 166 -10 166 28 c 0xd0
 166 55 161 93 155 145 c 0
 151 180 145 217 145 252 c 0
 145 309 160 363 220 401 c 1
 165 442 153 498 153 553 c 0
 153 582 156 610 159 636 c 0
 164 679 168 715 168 745 c 0
 168 800 153 831 94 831 c 0
 75 831 61 842 61 856 c 2
 61 860 l 2
 64 876 85 889 106 889 c 0
 223 889 248 825 248 754 c 0
 248 715 241 674 237 640 c 0
 234 614 232 589 232 565 c 0
 232 504 248 452 313 425 c 0
 331 417 338 410 338 403 c 0
 338 386 299 373 299 373 c 1
 243 358 226 318 226 254 c 0xe0
 226 227 229 195 233 159 c 0
 237 122 247 79 247 39 c 0
 247 -19 226 -71 138 -85 c 0
 124 -87 109 -89 94 -89 c 0
 75 -89 61 -78 61 -64 c 2
 61 -60 l 2xd0
EndSplineSet
Validated: 1
EndChar

StartChar: asciitilde
Encoding: 126 126 98
Width: 600
VWidth: 0
GlyphClass: 2
Flags: W
HStem: 249 72<359.281 430.115> 359 72<170.621 240.622>
VStem: 51 96<266 337.053> 452 97<340.566 414.098>
LayerCount: 2
Back
SplineSet
500 385 m 5
 488 349 452 285 396 285 c 4
 316 285 283 395 204 395 c 4
 147 395 114 331 100 295 c 1029
EndSplineSet
Fore
SplineSet
511 421 m 2
 533 419 549 406 549 390 c 0
 549 387 549 385 548 382 c 0
 541 358 525 329 501 302 c 0
 480 279 442 249 389 249 c 0
 346 249 317 267 296 283 c 0
 269 304 248 328 228 344 c 0
 213 357 202 359 197 359 c 0
 196 359 192 358 182 348 c 0
 167 332 154 308 147 290 c 0
 140 273 117 260 93 260 c 2
 86 260 l 2
 65 262 51 275 51 290 c 0
 51 293 52 297 53 300 c 0
 62 322 76 353 102 382 c 0
 123 404 160 431 211 431 c 0
 254 431 284 414 306 396 c 0
 332 376 353 350 372 335 c 0
 387 323 398 321 403 321 c 2
 404 321 l 2
 406 321 411 322 421 334 c 0
 435 349 447 374 452 388 c 0
 458 406 482 421 507 421 c 2
 511 421 l 2
EndSplineSet
Validated: 1
EndChar

StartChar: exclamdown
Encoding: 161 161 99
Width: 330
VWidth: 0
GlyphClass: 2
Flags: W
HStem: 469 137<105.486 225.863>
VStem: 81 168<492.483 581.87> 110 119<-224.529 106.416> 125 80<27.5636 326.594>
LayerCount: 2
Fore
SplineSet
99 489 m 256xc0
 97 491 81 506 81 530 c 256
 81 534 81 539 82 543 c 256
 87 569 120 606 175 606 c 256
 225 606 249 575 249 545 c 256
 249 522 227 469 155 469 c 256
 149 469 143 470 139 471 c 258
 123 475 l 258
 113 478 104 483 99 489 c 256xc0
194 -227 m 258
 154 -234 l 258
 151 -235 147 -235 143 -235 c 256
 128 -235 110 -229 110 -211 c 258
 110 -210 l 258xa0
 112 -124 108 27 125 298 c 256
 126 316 154 333 177 333 c 256
 192 333 204 326 205 306 c 256x90
 213 168 219 -108 229 -193 c 256
 229 -194 229 -194 229 -195 c 256xa0
 229 -210 212 -224 194 -227 c 258
EndSplineSet
Validated: 1
EndChar

StartChar: cent
Encoding: 162 162 100
Width: 600
VWidth: 0
GlyphClass: 2
Flags: W
HStem: 71 75<365 427.503>
VStem: 58 104<251.042 525.498> 293 70<-100.144 72.4817 151 630 714 927.734> 295 70<-128.16 72.4817 151 406.062 417.376 630 714 928.483> 433 104<531.156 614.217>
LayerCount: 2
Back
SplineSet
335 -100 m 1
 321 293 325 507 330 900 c 1029
EndSplineSet
Fore
SplineSet
336 -130 m 0xd8
 335 -130 333 -130 332 -130 c 0
 315 -130 301 -118 300 -103 c 0
 298 -42 296 15 295 69 c 1xd8
 164 82 58 184 58 380 c 0
 58 566 162 680 293 707 c 1xe8
 294 766 294 830 295 898 c 0
 295 914 311 929 330 930 c 0
 331 930 331 930 332 930 c 0
 350 930 365 917 365 902 c 0xd8
 364 835 364 773 363 714 c 1
 461 710 537 652 537 565 c 0
 537 545 513 526 485 523 c 2
 478 523 l 2
 453 523 433 537 433 555 c 0
 433 601 401 628 362 636 c 1
 361 559 360 486 360 414 c 0
 360 327 361 240 363 146 c 1xe8
 405 152 443 174 463 206 c 0
 473 222 495 233 517 233 c 0
 522 233 527 232 532 231 c 0
 551 227 562 214 562 200 c 0
 562 195 560 189 557 184 c 0
 520 124 446 82 365 71 c 1
 366 18 368 -37 370 -97 c 2
 370 -98 l 2
 370 -113 354 -128 336 -130 c 0xd8
293 151 m 1xe8
 291 242 290 326 290 410 c 0
 290 482 291 553 292 630 c 1
 235 610 162 546 162 390 c 0
 162 235 229 171 293 151 c 1xe8
EndSplineSet
Validated: 1
EndChar

StartChar: sterling
Encoding: 163 163 101
Width: 720
VWidth: 0
GlyphClass: 2
Flags: W
HStem: -11 82<489.898 587.418> 214 62<140.318 230.522> 431 62<77.2936 224 326 554.88> 751 82<339.668 449.562>
VStem: 46 88<84.7969 211.031> 212 104<497.062 728.696> 231 95<265.423 431 495 639.765> 240 90<193.461 197.603 265 430.889> 599 103<75.9386 245.033>
LayerCount: 2
Back
SplineSet
385 120 m 4
 453 68 502 30 555 30 c 4
 643 30 656 142 645 210 c 1028
530 710 m 5
 437 852 254 800 265 630 c 4
 271 530 282 414 285 300 c 1028
285 300 m 4
 290 137 275 25 210 25 c 4
 128 25 90 90 90 150 c 4
 90 200 120 245 180 245 c 4
 238 245 319 170 385 120 c 1028
120 470 m 5
 208 462 376 460 515 465 c 1029
EndSplineSet
Fore
SplineSet
77 474 m 0xfa80
 83 490 106 501 128 501 c 0
 130 501 131 501 133 501 c 0
 157 499 188 496 224 495 c 1
 219 539 215 583 213 624 c 0
 213 629 212 635 212 640 c 0
 212 737 274 819 376 831 c 0
 384 832 393 833 401 833 c 0
 472 833 536 795 577 732 c 0
 580 727 582 721 582 715 c 0
 582 700 572 685 553 676 c 0
 544 672 533 670 523 670 c 0
 506 670 491 676 483 688 c 0
 450 738 411 751 388 751 c 0
 385 751 383 751 381 751 c 0
 359 748 316 725 316 651 c 0xfc80
 316 646 317 641 317 636 c 0
 320 591 322 543 324 493 c 1
 337 493 350 493 363 493 c 0
 416 493 470 494 520 496 c 0
 521 496 522 496 523 496 c 0
 544 496 559 486 559 471 c 0
 559 470 559 468 559 467 c 0
 556 450 534 435 510 434 c 0
 458 432 402 431 348 431 c 0
 341 431 333 431 326 431 c 1xfa80
 327 389 329 347 330 305 c 2
 330 213 l 1
 337 208 344 202 351 197 c 0
 375 178 399 161 420 145 c 0
 491 91 528 71 561 71 c 0
 563 71 564 71 565 71 c 0
 583 72 599 97 599 145 c 0
 599 161 597 180 593 201 c 0
 593 203 593 204 593 206 c 0
 593 226 613 245 639 250 c 0
 643 251 646 251 650 251 c 0
 674 251 694 238 697 219 c 0
 699 205 702 186 702 164 c 0
 702 98 681 11 578 -8 c 0
 569 -10 558 -11 549 -11 c 0
 476 -11 415 50 350 100 c 0
 341 107 330 117 320 125 c 1
 319 118 319 106 317 100 c 0
 308 63 297 25 249 4 c 0
 235 -2 218 -6 203 -6 c 0
 84 -6 46 81 46 145 c 0
 46 156 47 167 49 177 c 0
 59 221 102 276 187 276 c 0
 208 276 225 271 241 265 c 1
 241 274 240 285 240 295 c 0xf980
 239 341 235 388 231 433 c 1
 183 434 140 436 107 439 c 0
 88 441 75 452 75 465 c 0
 75 468 76 471 77 474 c 0xfa80
240 182 m 1xf980
 234 186 228 189 222 193 c 0
 197 208 176 214 173 214 c 0
 160 214 145 210 137 177 c 0
 135 170 134 163 134 155 c 0
 134 102 170 59 212 56 c 1xfc80
 222 68 233 105 238 157 c 0
 239 165 240 173 240 182 c 1xf980
EndSplineSet
Validated: 1
EndChar

StartChar: brokenbar
Encoding: 166 166 102
Width: 360
VWidth: 0
GlyphClass: 2
Flags: W
VStem: 141 80<-86.659 326.694 473.306 887.491>
LayerCount: 2
Back
SplineSet
175 860 m 5
 178 741 180 610 181 500 c 1028
181 300 m 4
 181 213 181 46 180 -60 c 1029
EndSplineSet
Fore
SplineSet
174 890 m 0
 176 890 177 890 179 890 c 0
 199 890 215 879 215 864 c 0
 218 745 220 614 221 504 c 0
 221 488 203 472 181 470 c 0
 179 470 178 470 176 470 c 0
 156 470 141 481 141 496 c 0
 140 606 138 737 135 856 c 0
 135 872 152 888 174 890 c 0
181 330 m 0
 183 330 184 330 186 330 c 0
 206 330 221 319 221 304 c 0
 221 217 221 49 220 -57 c 0
 220 -74 202 -88 180 -90 c 0
 178 -90 177 -90 175 -90 c 0
 155 -90 140 -79 140 -63 c 0
 141 43 141 209 141 296 c 0
 141 312 159 328 181 330 c 0
EndSplineSet
Validated: 1
EndChar

StartChar: copyright
Encoding: 169 169 104
Width: 1020
VWidth: 0
GlyphClass: 2
Flags: W
HStem: -27 54<382.399 649.244> 170 64<451.94 577.488> 549 64<449.629 556.355> 773 54<362.579 639.594>
VStem: 83 74<253.793 541.089> 315 90<283.95 499.4> 565 90<477.542 541.836> 863 74<259.102 519.715>
LayerCount: 2
Back
SplineSet
610 504 m 1
 610 620 360 624 360 388 c 0
 360 162 573 171 627 261 c 1025
835 586 m 1
 981 444 888 0 510 0 c 0
 283 0 120 180 120 380 c 0
 120 628 277 800 499 800 c 0
 715 800 803 680 835 616 c 1025
EndSplineSet
Fore
SplineSet
865 604 m 1
 914 556 937 483 937 403 c 0
 937 374 934 344 928 314 c 0
 894 153 761 -27 504 -27 c 0
 250 -27 83 169 83 376 c 0
 83 416 86 454 94 490 c 0
 135 684 288 827 505 827 c 0
 742 827 837 695 870 628 c 0
 871 626 872 623 872 621 c 0
 872 616 869 609 865 604 c 1
805 598 m 0
 803 600 801 602 800 604 c 0
 769 665 688 773 493 773 c 0
 335 773 206 672 168 490 c 0
 161 457 157 421 157 384 c 0
 157 191 316 27 516 27 c 0
 709 27 823 160 855 314 c 0
 860 341 863 367 863 393 c 0
 863 466 842 531 804 568 c 0
 800 572 798 576 798 581 c 0
 798 587 801 593 805 598 c 0
646 292 m 0
 662 288 671 278 671 266 c 0
 671 261 670 257 667 252 c 0
 641 208 586 177 526 171 c 0
 518 170 510 170 502 170 c 0
 399 170 315 242 315 383 c 0
 315 517 397 601 501 612 c 0
 508 613 516 613 523 613 c 0
 597 613 655 572 655 509 c 0
 655 492 634 475 610 472 c 2
 603 472 l 2
 582 472 565 484 565 499 c 0
 565 534 536 549 508 549 c 2
 501 549 l 2
 471 546 405 515 405 393 c 0
 405 263 475 234 518 234 c 2
 526 234 l 2
 551 237 575 250 587 270 c 0
 595 284 615 293 634 293 c 0
 638 293 642 293 646 292 c 0
EndSplineSet
Validated: 1
EndChar

StartChar: guillemotleft
Encoding: 171 171 105
Width: 720
VWidth: 0
GlyphClass: 2
Flags: W
HStem: 596 20G<323.5 335 593.5 605>
LayerCount: 2
Back
SplineSet
605 100 m 1
 549 152 446 257 385 340 c 1
 470 414 562 521 595 580 c 1025
335 100 m 1
 279 152 176 257 115 340 c 1
 200 414 292 521 325 580 c 1025
EndSplineSet
Fore
SplineSet
633 74 m 0
 623 68 613 65 603 65 c 0
 592 65 582 69 574 76 c 0
 517 129 404 234 341 320 c 0
 338 324 336 329 336 334 c 0
 336 343 341 352 349 360 c 0
 429 430 531 537 560 589 c 0
 569 605 584 616 603 616 c 0
 607 616 610 616 614 615 c 0
 630 612 636 603 636 592 c 0
 636 586 634 578 630 571 c 0
 596 510 526 417 444 341 c 1
 503 265 586 171 636 124 c 0
 644 117 648 107 648 98 c 0
 648 89 644 80 633 74 c 0
363 74 m 0
 353 68 343 65 333 65 c 0
 322 65 312 69 304 76 c 0
 247 129 134 234 71 320 c 0
 68 324 66 329 66 334 c 0
 66 343 71 352 79 360 c 0
 159 430 261 537 290 589 c 0
 299 605 314 616 333 616 c 0
 337 616 340 616 344 615 c 0
 360 612 366 603 366 592 c 0
 366 586 364 578 360 571 c 0
 326 510 256 417 174 341 c 1
 233 265 316 171 366 124 c 0
 374 117 378 107 378 98 c 0
 378 89 374 80 363 74 c 0
EndSplineSet
Validated: 1
EndChar

StartChar: logicalnot
Encoding: 172 172 106
Width: 600
VWidth: 0
GlyphClass: 2
Flags: W
HStem: 302 78<63.8879 400>
VStem: 399 90<179.96 303>
LayerCount: 2
Back
SplineSet
444 210 m 28
 445 340 l 5
 306 335 193 337 105 345 c 1029
EndSplineSet
Fore
SplineSet
444 175 m 0
 443 175 441 175 440 175 c 0
 418 175 399 189 399 207 c 0
 400 303 l 1
 368 302 337 302 308 302 c 0
 226 302 156 305 95 310 c 0
 74 312 60 326 60 342 c 0
 60 344 60 347 61 349 c 0
 66 367 87 380 110 380 c 0
 112 380 113 380 115 380 c 0
 169 375 233 372 308 372 c 0
 351 372 398 373 448 375 c 0
 449 375 449 375 450 375 c 0
 470 375 490 361 490 343 c 0
 489 213 l 0
 489 194 468 177 444 175 c 0
EndSplineSet
Validated: 1
EndChar

StartChar: registered
Encoding: 174 174 107
Width: 810
VWidth: 0
GlyphClass: 2
Flags: W
HStem: 319 42<317.475 518.357> 757 52<346.531 470.065> 919 42<302.019 512.618>
VStem: 90 60<515.572 763.929> 301 71<470.75 592 664 721.248> 480 74<660.273 740.807> 677 60<521.228 741.723>
LayerCount: 2
Back
SplineSet
300 752 m 1
 579 880 576 569 368 640 c 1
 368 640 476 533 530 493 c 1025
338 495 m 1
 341 573 341 668 335 716 c 1025
657 780 m 1
 767 674 697 340 413 340 c 0
 243 340 120 475 120 625 c 0
 120 811 239 940 405 940 c 0
 567 940 633 850 657 802 c 1025
EndSplineSet
Fore
SplineSet
682 794 m 1
 719 758 737 703 737 644 c 0
 737 623 734 601 730 579 c 0
 705 457 605 319 409 319 c 0
 217 319 90 466 90 622 c 0
 90 651 93 678 98 704 c 0
 128 852 244 961 409 961 c 0
 588 961 660 862 685 812 c 0
 686 810 686 808 686 806 c 0
 686 802 685 798 682 794 c 1
632 788 m 0
 631 789 630 791 629 792 c 0
 606 838 546 919 401 919 c 0
 283 919 185 842 157 704 c 0
 152 680 150 655 150 628 c 0
 150 484 269 361 417 361 c 0
 562 361 648 463 671 579 c 0
 675 598 677 617 677 635 c 0
 677 690 660 739 632 766 c 0
 629 769 628 772 628 776 c 0
 628 780 629 784 632 788 c 0
337 469 m 2
 332 469 l 2
 315 469 301 479 301 491 c 2
 301 492 l 2
 302 524 303 559 303 592 c 0
 303 639 302 683 298 710 c 1
 298 713 l 2
 298 718 300 722 303 726 c 1
 300 726 298 725 296 725 c 0
 284 725 273 730 267 737 c 0
 264 740 263 744 263 748 c 0
 263 758 271 768 284 774 c 0
 338 798 386 809 426 809 c 0
 478 809 516 792 537 764 c 0
 548 749 554 730 554 711 c 0
 554 676 533 638 486 617 c 0
 475 612 462 609 448 606 c 1
 482 574 532 533 558 513 c 0
 564 509 567 503 567 497 c 0
 567 489 562 481 554 475 c 0
 546 469 535 466 525 466 c 0
 516 466 508 468 502 473 c 0
 466 499 410 555 373 592 c 1
 373 561 373 528 372 498 c 0
 371 484 357 471 337 469 c 2
345 742 m 1
 358 740 365 733 367 722 c 0
 369 706 370 687 371 664 c 0
 375 664 380 663 385 661 c 0
 401 655 414 654 424 654 c 0
 438 654 448 657 455 660 c 0
 469 665 480 684 480 704 c 0
 480 714 477 724 470 734 c 0
 461 746 444 757 415 757 c 0
 397 757 374 753 345 742 c 1
EndSplineSet
Validated: 1
EndChar

StartChar: macron
Encoding: 175 175 108
Width: 510
VWidth: 0
GlyphClass: 2
Flags: W
HStem: 771 80<49.9924 457.039>
LayerCount: 2
Back
SplineSet
415 810 m 5
 276 805 183 807 95 815 c 1029
EndSplineSet
Fore
SplineSet
464 812 m 0
 461 793 437 775 410 774 c 0
 358 772 313 771 271 771 c 0
 199 771 140 774 82 779 c 0
 60 781 45 794 45 810 c 0
 45 813 46 816 47 819 c 0
 54 837 78 851 103 851 c 0
 105 851 106 851 108 851 c 0
 162 846 217 843 286 843 c 0
 326 843 370 844 420 846 c 0
 421 846 421 846 422 846 c 0
 446 846 464 833 464 816 c 0
 464 815 464 813 464 812 c 0
EndSplineSet
Validated: 1
EndChar

StartChar: degree
Encoding: 176 176 109
Width: 330
VWidth: 0
GlyphClass: 2
Flags: W
HStem: 688 52<133.699 231.903> 884 48<135.34 195.765>
VStem: 49 70<754.718 872.034> 241 70<750.482 869.001>
LayerCount: 2
Back
SplineSet
210 906 m 5
 262 886 276 846 276 798 c 4
 276 748 226 714 174 714 c 4
 133 714 84 748 84 804 c 4
 84 856 115 906 174 906 c 1030
EndSplineSet
Fore
SplineSet
188 884 m 0
 182 882 175 880 169 880 c 0
 149 880 127 866 120 827 c 0
 119 821 119 815 119 808 c 0
 119 761 161 740 179 740 c 0
 207 740 234 755 240 785 c 0
 241 788 241 791 241 794 c 0
 241 839 229 868 191 883 c 0
 190 883 189 884 188 884 c 0
196 928 m 1
 202 930 209 932 215 932 c 0
 220 932 225 931 229 929 c 0
 295 904 311 853 311 802 c 0
 311 796 310 791 309 785 c 0
 299 730 236 688 169 688 c 0
 105 688 49 735 49 800 c 0
 49 809 50 818 52 827 c 0
 61 873 99 932 179 932 c 0
 185 932 191 930 196 928 c 1
EndSplineSet
Validated: 1
EndChar

StartChar: plusminus
Encoding: 177 177 110
Width: 600
VWidth: 0
GlyphClass: 2
Flags: W
HStem: 137 78<83.8879 515.154> 400 70<82.8322 256 348 517.563>
VStem: 250 96<464.359 590.307> 260 90<269.699 392 463 588.483>
LayerCount: 2
Back
SplineSet
475 175 m 5
 336 170 213 172 125 180 c 1029
295 560 m 5
 302 471 303 425 305 300 c 1028
475 430 m 5
 336 425 213 427 125 435 c 1029
EndSplineSet
Fore
SplineSet
520 432 m 0xe0
 519 413 496 396 472 395 c 0
 429 393 387 392 348 392 c 1
 349 367 349 339 350 304 c 0
 350 285 330 267 306 265 c 0
 304 265 303 265 301 265 c 0
 279 265 260 278 260 296 c 0xd0
 259 335 259 366 258 393 c 1
 205 394 157 396 115 400 c 0
 94 402 80 416 80 432 c 0
 80 434 80 437 81 439 c 0
 86 457 107 470 130 470 c 0
 132 470 133 470 135 470 c 0
 169 467 210 464 256 463 c 1
 255 492 253 520 250 554 c 0
 250 555 250 556 250 557 c 0
 250 575 269 592 292 595 c 0
 294 595 297 595 299 595 c 0
 320 595 338 583 340 566 c 0
 343 527 345 495 346 462 c 1
 388 462 432 463 478 465 c 0
 479 465 479 465 480 465 c 0
 502 465 520 451 520 433 c 0
 520 432 l 0xe0
520 177 m 0
 519 158 496 141 472 140 c 0
 420 138 370 137 324 137 c 0
 244 137 173 140 115 145 c 0
 94 147 80 161 80 177 c 0
 80 179 80 182 81 184 c 0
 86 202 107 215 130 215 c 0
 132 215 133 215 135 215 c 0
 188 210 256 207 334 207 c 0
 379 207 428 208 478 210 c 0
 479 210 479 210 480 210 c 0
 502 210 520 196 520 178 c 0
 520 177 l 0
EndSplineSet
Validated: 1
EndChar

StartChar: acute
Encoding: 180 180 111
Width: 360
VWidth: 0
GlyphClass: 2
Flags: W
HStem: 541 310
VStem: 23 317
LayerCount: 2
Back
SplineSet
300 785 m 5
 218 695 82 580 65 570 c 5
 72 585 195 716 274 815 c 5
 300 785 l 5
EndSplineSet
Fore
SplineSet
332 770 m 0
 246 676 116 564 87 547 c 0
 87 547 68 541 51 541 c 0
 37 541 23 545 23 559 c 0
 23 564 25 570 28 577 c 0
 42 608 161 729 241 829 c 0
 241 829 256 851 277 851 c 0
 286 851 297 847 308 834 c 0
 334 804 l 0
 338 800 340 794 340 789 c 0
 340 782 337 776 332 770 c 0
EndSplineSet
Validated: 1
EndChar

StartChar: uni00B5
Encoding: 181 181 112
Width: 680
VWidth: 0
GlyphClass: 2
Flags: W
HStem: -245 21G<111 143.5> -21 72<231.226 366.041> 591 20G<135.5 148 504.5 527>
VStem: 81 104<-234.808 29 101.586 603.614> 471 93<300.737 606.049>
LayerCount: 2
Back
SplineSet
610 20 m 5
 544 77 520 209 515 575 c 1029
515 575 m 5
 507 345 502 15 290 15 c 4
 199 15 135 85 135 235 c 1028
130 575 m 4
 141 456 134 232 130 -210 c 1028
EndSplineSet
Fore
SplineSet
127 610 m 0
 131 611 134 611 137 611 c 0
 159 611 177 600 179 583 c 0
 183 534 185 470 185 382 c 0
 185 327 184 263 183 188 c 1
 197 90 244 51 297 51 c 0
 365 51 416 109 443 245 c 0
 463 346 467 468 471 571 c 0
 472 590 493 611 516 611 c 0
 538 611 564 592 564 592 c 1
 569 201 600 89 650 45 c 0
 656 39 659 33 659 26 c 0
 659 15 652 3 639 -5 c 0
 628 -12 613 -16 600 -16 c 0
 588 -16 577 -13 570 -5 c 0
 539 30 517 83 503 173 c 1
 472 74 414 -21 298 -21 c 0
 251 -21 211 -3 181 29 c 1
 180 -41 180 -119 179 -205 c 0
 179 -224 157 -242 130 -245 c 0
 128 -245 125 -245 123 -245 c 0
 99 -245 81 -232 81 -215 c 0
 83 51 87 238 87 370 c 0
 87 457 85 521 81 567 c 0
 81 568 81 569 81 570 c 0
 81 588 101 606 127 610 c 0
EndSplineSet
Validated: 1
EndChar

StartChar: periodcentered
Encoding: 183 183 113
Width: 340
VWidth: 0
GlyphClass: 2
Flags: W
HStem: 285 137<109.137 229.514>
VStem: 86 168<309.13 398.517>
LayerCount: 2
Fore
SplineSet
236 402 m 0
 238 400 254 385 254 361 c 0
 254 357 254 352 253 348 c 0
 248 322 215 285 160 285 c 0
 110 285 86 316 86 346 c 0
 86 369 108 422 180 422 c 0
 186 422 192 421 196 420 c 2
 212 416 l 2
 222 413 231 408 236 402 c 0
EndSplineSet
Validated: 1
EndChar

StartChar: questiondown
Encoding: 191 191 119
Width: 480
VWidth: 0
GlyphClass: 2
Flags: W
HStem: -255 72<168.611 339.354> 469 137<185.486 305.863>
VStem: 31 98<-143.867 2.46817> 161 168<492.483 581.87> 229 90<182.675 315.274> 372 97<-152.365 -23.2035>
LayerCount: 2
Fore
SplineSet
179 489 m 256xf4
 177 491 161 506 161 530 c 256
 161 534 161 539 162 543 c 256
 167 569 200 606 255 606 c 256
 305 606 329 575 329 545 c 256
 329 522 307 469 235 469 c 256
 229 469 223 470 219 471 c 258
 203 475 l 258
 193 478 184 483 179 489 c 256xf4
251 343 m 0
 258 345 265 346 271 346 c 0
 286 346 296 339 302 326 c 0
 314 298 319 273 319 250 c 0
 319 109 129 42 129 -64 c 0
 129 -92 136 -114 146 -131 c 0
 168 -168 209 -183 250 -183 c 0
 272 -183 293 -179 312 -172 c 0
 343 -159 372 -137 372 -101 c 0
 372 -86 366 -68 354 -47 c 0
 352 -43 350 -38 350 -34 c 0
 350 -20 362 -6 381 2 c 0
 389 5 398 7 406 7 c 0
 423 7 439 0 446 -11 c 0
 462 -37 469 -63 469 -88 c 0
 469 -152 420 -206 349 -234 c 0
 314 -248 275 -255 237 -255 c 0
 162 -255 90 -227 54 -167 c 0
 39 -141 31 -110 31 -74 c 0
 31 98 229 135 229 247 c 0xec
 229 262 226 278 218 296 c 0
 217 299 216 303 216 306 c 0
 216 321 230 336 251 343 c 0
EndSplineSet
Validated: 1
EndChar

StartChar: Ccedilla
Encoding: 199 199 126
Width: 750
VWidth: 0
GlyphClass: 2
Flags: W
HStem: -255 51<349.716 485.248> -115 40<437.33 481.763> -20 82<330.488 405> 739 82<331.244 521.092>
VStem: 68 114<236.812 554.552> 494 70<-192.595 -125.647> 569 114<596.072 692.146>
AnchorPoint: "LatinAbove.mark" 405 180 basechar 0
LayerCount: 2
Fore
SplineSet
684 178 m 0
 705 174 717 160 717 145 c 0
 717 140 715 134 712 128 c 0
 666 53 573 -1 471 -16 c 1
 437 -76 l 1
 444 -75 453 -75 462 -75 c 0
 480 -75 500 -77 513 -82 c 0
 548 -96 564 -122 564 -150 c 0
 564 -173 553 -197 535 -215 c 0
 510 -240 472 -255 430 -255 c 0
 401 -255 369 -248 338 -232 c 0
 330 -228 325 -221 325 -214 c 0
 325 -208 328 -202 333 -197 c 0
 341 -189 353 -185 365 -185 c 0
 371 -185 377 -186 382 -188 c 0
 406 -200 425 -204 440 -204 c 0
 461 -204 474 -196 482 -188 c 0
 490 -180 494 -170 494 -160 c 0
 494 -147 487 -135 469 -126 c 0
 456 -120 438 -115 410 -115 c 0
 407 -115 405 -115 402 -115 c 0
 401 -115 399 -115 398 -115 c 0
 375 -115 369 -106 369 -98 c 0
 369 -91 373 -85 373 -84 c 2
 405 -20 l 1
 224 -16 68 113 68 387 c 0
 68 651 225 799 407 819 c 0
 420 820 432 821 445 821 c 0
 576 821 683 747 683 632 c 0
 683 610 657 589 626 586 c 2
 618 586 l 2
 591 586 569 600 569 620 c 0
 569 699 501 739 429 739 c 0
 422 739 414 739 407 738 c 0
 320 729 182 648 182 399 c 0
 182 137 325 62 432 62 c 0
 440 62 449 62 457 63 c 0
 520 70 578 101 608 150 c 0
 619 168 645 179 670 179 c 0
 675 179 679 179 684 178 c 0
EndSplineSet
Validated: 1
Colour: ff0000
EndChar

StartChar: Eth
Encoding: 208 208 135
Width: 810
VWidth: 0
GlyphClass: 2
Flags: W
HStem: -21 80<229.796 462.974> 336 62<2.29363 125 233 434.88> 742 78<215.043 480.636>
VStem: 116 108<404.606 634.739> 125 108<67.7108 336 401 636.47> 630 109<246.508 572.033>
AnchorPoint: "LatinBelow.mark" 380 0 basechar 0
AnchorPoint: "LatinAbove.mark" 380 180 basechar 0
LayerCount: 2
Back
SplineSet
395 370 m 5
 256 365 133 367 45 375 c 1029
EndSplineSet
Fore
SplineSet
439 372 m 0xec
 436 355 414 340 390 339 c 0
 338 337 289 336 242 336 c 0
 239 336 236 336 233 336 c 0
 232 230 229 129 229 80 c 1
 241 70 282 59 333 59 c 0
 386 59 449 70 502 106 c 0
 568 150 630 236 630 400 c 0
 630 424 629 449 626 476 c 0
 605 673 490 742 361 742 c 0
 339 742 317 740 295 736 c 0
 235 726 170 704 109 670 c 0
 98 664 86 661 74 661 c 0
 58 661 43 666 34 675 c 0
 28 681 26 687 26 694 c 0
 26 707 35 721 51 730 c 0
 125 771 206 800 287 813 c 0
 317 818 346 820 375 820 c 0
 562 820 711 717 734 494 c 0
 737 465 739 438 739 412 c 0
 739 123 550 1 370 -18 c 0
 351 -20 332 -21 313 -21 c 0
 228 -21 151 -1 127 42 c 0
 123 48 121 56 121 64 c 0
 121 113 124 226 125 338 c 1
 91 339 60 342 32 344 c 0
 13 346 0 357 0 370 c 0
 0 373 1 376 2 379 c 0
 8 395 31 406 53 406 c 0
 55 406 56 406 58 406 c 0
 78 404 101 402 125 401 c 1xec
 125 478 122 550 116 596 c 1
 116 600 l 2
 116 620 138 638 165 643 c 0
 169 644 173 644 177 644 c 0
 201 644 221 632 224 614 c 0xf4
 231 562 233 481 233 398 c 1
 241 398 249 398 257 398 c 0
 302 398 350 399 400 401 c 0
 401 401 402 401 403 401 c 0
 424 401 439 391 439 376 c 0
 439 375 439 373 439 372 c 0xec
EndSplineSet
Validated: 1
Colour: ff0000
EndChar

StartChar: multiply
Encoding: 215 215 142
Width: 600
VWidth: 0
GlyphClass: 2
Flags: W
LayerCount: 2
Back
SplineSet
135 515 m 4
 241 415 358 290 470 165 c 1028
465 515 m 4
 336 387 257 293 140 165 c 1028
EndSplineSet
Fore
SplineSet
496 546 m 0
 508 540 514 531 514 521 c 0
 514 513 510 504 503 497 c 0
 450 444 405 397 363 351 c 1
 413 298 464 242 513 187 c 0
 518 182 520 176 520 170 c 0
 520 158 511 145 495 137 c 0
 485 132 475 130 464 130 c 0
 449 130 435 134 427 143 c 0
 385 190 342 237 300 282 c 1
 262 240 224 196 180 148 c 0
 169 136 150 129 132 129 c 0
 124 129 118 130 111 133 c 0
 98 138 91 149 91 160 c 0
 91 167 94 175 100 182 c 0
 153 240 198 290 244 341 c 1
 193 395 142 446 94 491 c 0
 88 496 86 502 86 509 c 0
 86 520 93 533 107 541 c 0
 117 547 130 550 142 550 c 0
 155 550 168 546 176 539 c 0
 218 499 262 456 307 410 c 1
 343 449 382 489 427 533 c 0
 438 544 456 551 473 551 c 0
 481 551 489 549 496 546 c 0
EndSplineSet
Validated: 1
Colour: ff0000
EndChar

StartChar: Oslash
Encoding: 216 216 143
Width: 830
VWidth: 0
GlyphClass: 2
Flags: W
HStem: -22 79<328.416 522.01> 742 79<323.643 516.829>
VStem: 66 108<238.576 554.392> 659 108<229.005 504.941>
AnchorPoint: "LatinBelow.mark" 415 0 basechar 0
AnchorPoint: "LatinAbove.mark" 415 180 basechar 0
LayerCount: 2
Back
SplineSet
750 765 m 5
 588 567 259 210 80 35 c 1029
EndSplineSet
Fore
SplineSet
769 788 m 0
 779 784 784 777 784 769 c 0
 784 764 783 759 779 754 c 0
 755 725 727 692 697 657 c 0
 698 655 698 654 699 652 c 0
 700 649 700 647 700 644 c 0
 700 635 695 624 686 616 c 1
 745 572 767 472 767 390 c 0
 767 156 632 0 447 -20 c 0
 434 -21 422 -22 409 -22 c 0
 315 -22 231 15 169 83 c 1
 147 61 126 41 107 22 c 0
 99 14 86 10 74 10 c 0
 68 10 63 11 58 13 c 0
 50 17 46 24 46 32 c 0
 46 38 48 43 53 48 c 0
 77 72 105 99 134 129 c 1
 91 195 66 282 66 385 c 0
 66 620 185 766 346 809 c 0
 377 817 408 821 438 821 c 0
 535 821 620 780 668 713 c 1
 687 735 705 756 721 776 c 0
 728 785 741 791 754 791 c 0
 759 791 764 790 769 788 c 0
587 619 m 0
 589 621 590 623 592 625 c 0
 565 704 492 742 421 742 c 0
 403 742 386 740 369 735 c 0
 284 713 174 620 174 397 c 0
 174 321 189 258 212 209 c 1
 329 332 464 479 576 607 c 0
 577 608 l 0
 580 612 583 616 587 619 c 0
607 554 m 1
 491 423 357 277 242 158 c 1
 294 87 367 57 428 57 c 0
 434 57 441 57 447 58 c 0
 536 68 659 155 659 378 c 0
 659 449 627 531 607 554 c 1
EndSplineSet
Validated: 1
Colour: ff0000
EndChar

StartChar: Thorn
Encoding: 222 222 149
Width: 810
VWidth: 0
GlyphClass: 2
Flags: W
HStem: -10 78<37.4423 153.158 254 348.252> 2 71<309.517 364.759> 176 74<323.611 574.107> 582 78<349.731 581.507> 726 70<57.1504 121.484> 739 72<243.641 362.594>
VStem: 151 103<68.0249 216 293.426 528.95 597 714.377> 659 111<329.329 506.712>
AnchorPoint: "LatinBelow.mark" 240 0 basechar 0
AnchorPoint: "LatinAbove.mark" 240 180 basechar 0
LayerCount: 2
Back
SplineSet
199 535 m 5
 867 898 876 -28 207 275 c 1029
305 775 m 1
 228 770 167 756 65 760 c 1
 136 742 190 757 191 680 c 0
 193 460 195 313 195 100 c 0
 195 35 233 42 325 37 c 1
 237 22 187 26 75 31 c 1025
EndSplineSet
Fore
SplineSet
369 779 m 0x37
 366 759 339 741 310 739 c 0
 305 739 301 739 296 739 c 0
 287 739 279 739 270 739 c 0
 262 739 249 739 241 738 c 1
 248 724 250 710 250 692 c 0
 250 659 251 628 251 597 c 1
 346 640 433 660 506 660 c 0
 554 660 596 652 633 635 c 0
 724 593 770 513 770 431 c 0
 770 375 749 317 706 270 c 0
 652 210 569 176 465 176 c 0
 402 176 331 189 254 216 c 1
 254 178 254 138 254 97 c 0
 254 89 254 83 254 79 c 0
 254 70 255 68 266 68 c 0xb7
 273 68 291 69 309 69 c 0
 320 69 333 72 349 73 c 1
 349 73 369 49 369 29 c 0
 369 17 362 6 339 2 c 0x73
 288 -7 247 -10 204 -10 c 0
 165 -10 123 -7 71 -5 c 0
 46 -4 30 8 30 24 c 0
 30 27 31 30 32 33 c 0
 39 52 68 67 96 67 c 0
 97 67 98 67 99 67 c 0
 120 66 136 61 154 60 c 1
 152 68 151 78 151 88 c 0
 151 301 149 458 147 678 c 0
 146 735 142 702 48 726 c 0
 39 728 36 733 36 738 c 0
 36 759 88 796 88 796 c 1xbb
 100 795 111 795 122 795 c 0
 195 795 245 806 320 811 c 0
 322 811 323 811 325 811 c 0
 350 811 369 799 369 782 c 0
 369 781 369 780 369 779 c 0x37
252 516 m 1
 253 444 253 375 253 304 c 1
 341 264 410 250 465 250 c 0
 542 250 590 279 618 310 c 0
 645 340 659 379 659 418 c 0
 659 477 628 536 568 563 c 0
 544 574 514 582 476 582 c 0
 420 582 346 565 252 516 c 1
EndSplineSet
Validated: 1
Colour: ff0000
EndChar

StartChar: germandbls
Encoding: 223 223 150
Width: 780
VWidth: 0
GlyphClass: 2
Flags: W
HStem: -20 72<428.703 594.759> 795 72<263.549 412.13>
VStem: 100 99<338.178 731.805> 117 98<-12.3576 444.45> 325 100<436.947 544.996> 637 102<95.9123 258.817>
AnchorPoint: "LatinAbove.mark_1" 420 0 basechar 0
AnchorPoint: "LatinAbove.mark" 340 180 basechar 0
LayerCount: 2
Back
SplineSet
331 115 m 5
 355 74 407 16 508 16 c 4
 707 16 747 257 600 325 c 4
 578 335 476 372 450 385 c 4
 310 453 377 615 565 615 c 5
 482 953 134 843 150 630 c 4
 164 437 169 232 165 15 c 1029
EndSplineSet
Fore
SplineSet
313 146 m 0xec
 321 149 330 151 338 151 c 0
 355 151 370 144 377 133 c 0
 399 95 442 52 515 52 c 0
 555 52 580 63 601 84 c 0
 625 108 637 142 637 177 c 0
 637 224 615 273 569 294 c 1
 550 303 449 339 418 354 c 1
 364 381 334 419 327 460 c 0
 326 466 325 473 325 479 c 0
 325 549 391 622 504 644 c 1
 462 763 387 795 335 795 c 0
 329 795 324 795 319 794 c 0
 265 786 199 736 199 650 c 0
 199 646 199 641 199 637 c 1xec
 210 486 215 328 215 163 c 0
 215 116 215 68 214 20 c 0
 214 1 191 -17 164 -20 c 0
 162 -20 159 -20 157 -20 c 0
 134 -20 116 -7 116 10 c 0
 117 58 117 105 117 152 c 0xdc
 117 316 112 474 101 623 c 0
 101 628 100 634 100 639 c 0
 100 749 189 846 314 864 c 0
 327 866 339 867 352 867 c 0
 472 867 575 785 614 626 c 0
 615 622 616 618 616 614 c 0
 616 582 577 579 563 579 c 0
 560 579 558 579 558 579 c 0
 476 579 434 543 426 503 c 0
 425 499 425 494 425 490 c 0
 425 463 441 436 482 416 c 1
 503 405 605 368 631 356 c 1
 704 322 739 257 739 191 c 0
 739 140 719 89 679 49 c 0
 639 9 576 -20 501 -20 c 0
 372 -20 311 53 285 97 c 0
 283 101 282 105 282 109 c 0
 282 123 294 138 313 146 c 0xec
EndSplineSet
Validated: 1
Colour: ff0000
EndChar

StartChar: ccedilla
Encoding: 231 231 157
Width: 600
VWidth: 0
GlyphClass: 2
Flags: W
HStem: -255 51<259.716 395.248> -115 40<347.33 391.763> -22 76<256.617 314> 548 76<256.238 407.325>
VStem: 58 104<162.093 438.343> 404 70<-192.595 -125.647> 433 104<441.156 522.171>
AnchorPoint: "LatinAbove.mark" 350 0 basechar 0
LayerCount: 2
Fore
SplineSet
532 141 m 0xfa
 551 137 562 124 562 110 c 0
 562 105 560 99 557 94 c 0
 523 38 456 -2 381 -16 c 1
 347 -76 l 1
 354 -75 363 -75 372 -75 c 0
 390 -75 410 -77 423 -82 c 0
 458 -96 474 -122 474 -150 c 0
 474 -173 463 -197 445 -215 c 0
 420 -240 382 -255 340 -255 c 0
 311 -255 279 -248 248 -232 c 0
 240 -228 235 -221 235 -214 c 0
 235 -208 238 -202 243 -197 c 0
 251 -189 263 -185 275 -185 c 0
 281 -185 287 -186 292 -188 c 0
 316 -200 335 -204 350 -204 c 0
 371 -204 384 -196 392 -188 c 0
 400 -180 404 -170 404 -160 c 0xfc
 404 -147 397 -135 379 -126 c 0
 366 -120 348 -115 320 -115 c 0
 317 -115 315 -115 312 -115 c 0
 311 -115 309 -115 308 -115 c 0
 285 -115 279 -106 279 -98 c 0
 279 -91 283 -85 283 -84 c 2
 314 -22 l 1
 174 -18 58 84 58 290 c 0
 58 490 178 607 322 622 c 0
 332 623 342 624 351 624 c 0
 454 624 537 565 537 475 c 0
 537 455 513 436 485 433 c 2
 478 433 l 2
 453 433 433 447 433 465 c 0
 433 520 386 548 337 548 c 0
 332 548 327 548 322 547 c 0
 264 541 162 485 162 300 c 0
 162 105 267 54 340 54 c 0
 346 54 352 54 357 55 c 0
 401 60 442 82 463 116 c 0
 473 132 495 143 517 143 c 0
 522 143 527 142 532 141 c 0xfa
EndSplineSet
Validated: 1
Colour: ff0000
EndChar

StartChar: igrave
Encoding: 236 236 162
Width: 340
VWidth: 0
GlyphClass: 2
Flags: W
HStem: -21 21G<181.5 194> 585 20G<151.5 184.5> 699 202
VStem: 25 265 114 100<34.625 596.875>
AnchorPoint: "LatinBelow.mark" 180 0 basechar 0
AnchorPoint: "LatinAbove.mark" 180 210 basechar 0
LayerCount: 2
Back
SplineSet
70 854 m 5
 96 884 l 5
 160 817 228 729 240 714 c 5
 223 725 142 804 70 854 c 5
EndSplineSet
Fore
Refer: 219 768 N 1 0 0 1 180 0 2
Refer: 182 305 N 1 0 0 1 0 0 3
Validated: 1
Colour: ff0000
EndChar

StartChar: iacute
Encoding: 237 237 163
Width: 340
VWidth: 0
GlyphClass: 2
Flags: W
HStem: -21 21G<181.5 194> 585 20G<151.5 184.5> 699 202
VStem: 114 100<34.625 596.875> 248 91<844 882>
AnchorPoint: "LatinBelow.mark" 180 0 basechar 0
AnchorPoint: "LatinAbove.mark" 180 210 basechar 0
LayerCount: 2
Back
SplineSet
270 854 m 5
 198 804 117 725 100 714 c 5
 112 729 180 817 244 884 c 5
 270 854 l 5
EndSplineSet
Fore
Refer: 220 769 N 1 0 0 1 180 0 2
Refer: 182 305 N 1 0 0 1 0 0 3
Validated: 1
Colour: ff0000
EndChar

StartChar: icircumflex
Encoding: 238 238 164
Width: 340
VWidth: 0
GlyphClass: 2
Flags: W
HStem: -21 21G<181.5 194> 585 20G<151.5 184.5> 688 198
VStem: -7 370 114 100<34.625 596.875>
AnchorPoint: "LatinBelow.mark" 180 0 basechar 0
AnchorPoint: "LatinAbove.mark" 180 210 basechar 0
LayerCount: 2
Back
SplineSet
170 885 m 5
 232 820 289 738 295 726 c 5
 283 733 229 803 172 855 c 5
 121 807 58 733 45 726 c 5
 51 738 116 821 170 885 c 5
EndSplineSet
Fore
Refer: 221 770 N 1 0 0 1 180 0 2
Refer: 182 305 N 1 0 0 1 0 0 3
Validated: 1
Colour: ff0000
EndChar

StartChar: eth
Encoding: 240 240 166
Width: 660
VWidth: 0
GlyphClass: 2
Flags: W
HStem: -21 72<264.695 415.134> 553 71<259.199 428.822> 705 60<141.026 319.298> 815 56<526.814 599.714> 840 63<248.469 293.28>
VStem: 61 98<167.546 437.117> 506 98<153.815 446.68>
AnchorPoint: "LatinBelow.mark" 330 0 basechar 0
AnchorPoint: "LatinAbove.mark" 340 180 basechar 0
LayerCount: 2
Back
SplineSet
565 840 m 4
 466 790 340 753 180 735 c 1028
280 870 m 5
 338 839 429 744 490 605 c 4
 529 517 555 411 555 290 c 4
 555 -78 110 -76 110 295 c 4
 110 637 450 652 505 480 c 1029
EndSplineSet
Fore
SplineSet
248 893 m 0xee
 258 900 269 903 279 903 c 2xee
 308 895 l 1
 337 878 373 850 409 811 c 1
 460 827 506 845 546 865 c 0
 554 869 562 871 570 871 c 0
 582 871 594 866 600 858 c 0
 603 854 605 849 605 844 c 0
 605 833 597 822 584 815 c 0xf6
 544 795 499 777 450 761 c 1
 480 721 508 674 532 620 c 0
 572 529 604 420 604 295 c 0
 604 119 503 -3 356 -19 c 0
 345 -20 335 -21 325 -21 c 0
 177 -21 61 99 61 290 c 0
 61 468 150 579 277 614 c 0
 301 621 324 624 346 624 c 0
 383 624 416 615 444 600 c 1
 420 655 392 700 365 737 c 1
 309 723 248 713 181 705 c 0
 179 705 178 705 176 705 c 0
 156 705 141 716 140 731 c 2
 140 732 l 2
 140 748 158 763 179 765 c 0
 231 771 278 778 322 788 c 1
 297 813 273 831 252 840 c 0
 241 845 236 856 236 867 c 0
 236 877 240 887 248 893 c 0xee
159 300 m 0
 159 118 269 51 343 51 c 0
 347 51 351 52 355 52 c 0
 414 58 506 119 506 285 c 0
 506 342 501 396 492 446 c 1
 482 448 476 456 472 467 c 0
 454 524 400 553 344 553 c 0
 329 553 314 551 299 547 c 0
 242 530 159 466 159 300 c 0
EndSplineSet
Validated: 1
Colour: ff0000
EndChar

StartChar: divide
Encoding: 247 247 173
Width: 600
VWidth: 0
GlyphClass: 2
Flags: W
HStem: 120 123<239.75 351.788> 301 80<79.9924 517.039> 442 123<239.75 351.788>
VStem: 221 150<140.04 223.386 462.04 545.386>
LayerCount: 2
Back
SplineSet
475 340 m 5
 336 335 213 337 125 345 c 1029
EndSplineSet
Fore
SplineSet
353 548 m 0
 355 545 371 532 371 510 c 0
 371 506 370 502 369 498 c 0
 365 474 335 442 287 442 c 0
 243 442 221 469 221 497 c 0
 221 518 243 565 305 565 c 0
 310 565 315 565 318 564 c 2
 334 560 l 2
 342 558 349 553 353 548 c 0
353 226 m 0
 355 223 371 210 371 188 c 0
 371 184 370 180 369 176 c 0
 365 152 335 120 287 120 c 0
 243 120 221 147 221 175 c 0
 221 196 243 243 305 243 c 0
 310 243 315 243 318 242 c 2
 334 238 l 2
 342 236 349 231 353 226 c 0
EndSplineSet
Refer: 17 45 N 1 0 0 1 0 0 2
Validated: 1
Colour: ff0000
EndChar

StartChar: oslash
Encoding: 248 248 174
Width: 660
VWidth: 0
GlyphClass: 2
Flags: W
HStem: -21 72<260.793 415.134> 552 72<253.982 414.148> 591 20G<577.5 586.5>
VStem: 61 98<178.172 436.89> 506 98<153.815 395.675>
AnchorPoint: "LatinBelow.mark" 330 0 basechar 0
AnchorPoint: "LatinAbove.mark" 330 0 basechar 0
LayerCount: 2
Back
SplineSet
580 585 m 5
 418 386 265 215 80 35 c 1029
EndSplineSet
Fore
SplineSet
599 608 m 0xb8
 609 604 614 597 614 589 c 0
 614 584 613 579 609 574 c 0
 589 550 570 526 550 502 c 0
 551 499 552 496 553 493 c 0
 554 491 554 488 554 486 c 0
 554 479 551 472 546 465 c 1
 588 428 604 356 604 295 c 0
 604 119 503 -3 356 -19 c 0
 346 -20 335 -21 325 -21 c 0
 254 -21 190 6 143 56 c 1
 131 44 119 33 107 21 c 0
 99 13 87 9 75 9 c 0
 69 9 63 11 58 13 c 0
 50 17 46 24 46 32 c 0
 46 38 48 44 53 49 c 0
 72 67 90 85 108 103 c 1
 78 153 61 216 61 290 c 0
 61 468 150 580 277 614 c 0
 302 621 326 624 350 624 c 0xd8
 418 624 478 598 517 555 c 1
 528 569 540 582 551 596 c 0
 558 605 571 611 584 611 c 0
 589 611 594 610 599 608 c 0xb8
472 410 m 1
 387 312 302 217 210 123 c 1
 248 72 301 51 343 51 c 0
 347 51 351 52 355 52 c 0
 414 58 506 119 506 285 c 0
 506 334 486 390 472 410 c 1
180 176 m 1
 275 274 364 373 453 478 c 1
 431 529 381 552 334 552 c 0
 321 552 309 550 297 547 c 0
 240 531 159 464 159 300 c 0
 159 251 167 209 180 176 c 1
EndSplineSet
Validated: 1
Colour: ff0000
EndChar

StartChar: thorn
Encoding: 254 254 180
Width: 680
VWidth: 0
GlyphClass: 2
Flags: W
HStem: -246 21G<122 152.5> -16 72<260.132 416.843> 549 72<272.211 420.001> 826 20G<119 131.5>
VStem: 91 98<-239.141 29 137.898 364.545> 513 99<176.148 434.745>
AnchorPoint: "LatinBelow.mark" 180 -180 basechar 0
AnchorPoint: "LatinAbove.mark" 160 180 basechar 0
LayerCount: 2
Back
SplineSet
115 810 m 5
 140 746 154 136 140 -210 c 1029
145 300 m 5
 164 414 200 585 350 585 c 4
 642 585 631 20 330 20 c 4
 175 20 150 197 148 220 c 1030
EndSplineSet
Fore
SplineSet
102 843 m 0
 108 845 116 846 122 846 c 0
 141 846 158 838 163 824 c 0
 175 793 184 681 189 534 c 1
 224 584 276 621 357 621 c 0
 542 621 612 465 612 320 c 0
 612 291 609 262 604 235 c 0
 580 118 496 -16 323 -16 c 0
 266 -16 224 2 194 29 c 1
 193 -55 192 -135 189 -206 c 0
 188 -225 166 -244 139 -246 c 0
 137 -246 136 -246 134 -246 c 0
 110 -246 91 -232 91 -215 c 2
 91 -214 l 2
 94 -129 96 -28 96 78 c 0
 96 399 82 758 67 796 c 0
 66 799 65 802 65 805 c 0
 65 821 80 836 102 843 c 0
195 189 m 1
 210 137 248 56 337 56 c 0
 416 56 483 121 506 235 c 0
 511 259 513 283 513 307 c 0
 513 438 442 549 343 549 c 0
 258 549 217 469 193 350 c 1
 194 297 195 243 195 189 c 1
EndSplineSet
Validated: 1
Colour: ff0000
EndChar

StartChar: dotlessi
Encoding: 305 305 182
Width: 340
VWidth: 0
GlyphClass: 2
Flags: W
HStem: -21 21G<181.5 194> 585 20G<151.5 184.5>
VStem: 114 100<34.625 596.875>
AnchorPoint: "LatinOgonek.mark" 180 0 basechar 0
AnchorPoint: "LatinBelow.mark" 180 0 basechar 0
AnchorPoint: "LatinAbove.mark" 180 0 basechar 0
LayerCount: 2
Back
SplineSet
195 15 m 5
 163 37 163 87 165 163 c 4
 169 328 167 405 165 570 c 1029
EndSplineSet
Fore
SplineSet
228 -8 m 0
 217 -16 201 -21 187 -21 c 0
 176 -21 166 -18 158 -13 c 0
 121 13 114 51 114 98 c 0
 114 117 115 137 116 158 c 0
 118 227 118 282 118 333 c 0
 118 403 117 469 116 564 c 0
 116 583 138 602 165 605 c 2
 173 605 l 2
 196 605 214 593 214 576 c 0
 215 481 216 415 216 344 c 0
 216 292 216 238 214 168 c 2
 214 145 l 2
 214 82 221 50 232 43 c 0
 240 37 244 30 244 21 c 0
 244 11 239 0 228 -8 c 0
EndSplineSet
Validated: 1
Colour: ff0000
EndChar

StartChar: Lslash
Encoding: 321 321 183
Width: 660
VWidth: 0
GlyphClass: 2
Flags: W
HStem: -23 78<236.103 581.46> -9 78<310.529 627.711> 590 20G<418.5 427.5>
VStem: 126 108<61.2591 318.742 518.077 791.845> 144 108<94.001 323 372.329 422.059 473 793.682>
LayerCount: 2
Back
SplineSet
420 585 m 4
 302 473 176 371 30 285 c 1028
EndSplineSet
Fore
SplineSet
443 606 m 0xa8
 451 602 454 596 454 589 c 0
 454 583 452 577 446 571 c 0
 384 512 319 455 250 402 c 1
 246 283 238 173 234 104 c 1
 234 94 l 2
 234 64 247 55 302 55 c 0xb0
 353 55 440 63 585 69 c 1
 588 69 l 2
 615 69 634 55 634 36 c 2
 634 32 l 2
 631 11 605 -8 575 -9 c 0x70
 475 -13 382 -23 307 -23 c 0
 198 -23 126 -3 126 84 c 2
 126 96 l 2xb0
 130 151 135 232 139 323 c 1
 110 303 80 284 49 266 c 0
 42 262 33 260 25 260 c 0
 15 260 6 263 1 268 c 0
 -3 272 -4 276 -4 281 c 0
 -4 289 1 298 11 304 c 0
 56 331 100 359 142 389 c 1
 143 430 144 472 144 514 c 0
 144 601 140 686 131 756 c 1
 131 760 l 2
 131 780 153 798 180 803 c 0
 184 804 188 804 192 804 c 0
 216 804 236 792 239 774 c 0
 249 701 252 613 252 525 c 0
 252 508 252 490 252 473 c 1
 301 513 348 555 394 599 c 0
 401 606 413 610 424 610 c 0
 431 610 438 609 443 606 c 0xa8
EndSplineSet
Validated: 1
Colour: ff0000
EndChar

StartChar: lslash
Encoding: 322 322 184
Width: 390
VWidth: 0
GlyphClass: 2
Flags: W
HStem: -23 70<255.5 334.523> 590 20G<359 368> 820 20G<161.5 194>
VStem: 121 98<84.8896 322 372.493 432.602 486 830.452>
LayerCount: 2
Back
SplineSet
360 585 m 4
 303 526 147 371 30 285 c 1028
EndSplineSet
Fore
SplineSet
381 607 m 0
 390 603 394 596 394 588 c 0
 394 583 392 577 387 572 c 0
 354 538 290 474 219 408 c 1
 219 331 220 251 224 157 c 0
 227 70 276 55 311 47 c 0
 329 43 340 31 340 18 c 0
 340 13 338 8 335 3 c 0
 325 -12 304 -23 283 -23 c 0
 278 -23 273 -22 269 -21 c 0
 210 -7 131 32 126 145 c 0
 123 209 123 267 122 322 c 1
 99 302 75 284 53 268 c 0
 45 263 36 260 26 260 c 0
 18 260 10 262 4 266 c 0
 -2 270 -4 276 -4 282 c 0
 -4 289 -1 297 7 302 c 0
 42 328 82 360 121 395 c 1
 121 402 121 409 121 415 c 0
 121 536 124 651 126 800 c 0
 126 819 148 837 175 840 c 2
 182 840 l 2
 206 840 224 827 224 810 c 0
 222 686 220 586 219 486 c 1
 268 532 309 574 333 598 c 0
 341 606 353 610 365 610 c 0
 371 610 376 609 381 607 c 0
EndSplineSet
Validated: 1
Colour: ff0000
EndChar

StartChar: florin
Encoding: 402 402 190
Width: 480
VWidth: 0
GlyphClass: 2
Flags: W
HStem: -245 21G<79.5 92> 529 72<24.9924 142 249 406.873> 803 71<252.461 378.453>
VStem: 130 98<597.639 785.672> 168 98<-103.292 425.844>
LayerCount: 2
Back
SplineSet
360 560 m 5
 215 555 162 557 70 565 c 1029
95 -210 m 5
 136 -195 166 -161 186 -117 c 4
 204 -78 214 -32 215 15 c 4
 224 283 202 513 180 705 c 4
 167 815 300 890 430 795 c 1029
EndSplineSet
Fore
SplineSet
49 -227 m 0xe8
 47 -223 46 -220 46 -216 c 0
 46 -202 58 -186 78 -179 c 0
 97 -172 121 -150 139 -110 c 0
 155 -75 165 -34 166 10 c 0
 167 52 168 93 168 133 c 0xe8
 168 274 160 404 149 523 c 1
 119 524 90 526 57 529 c 0
 35 531 20 544 20 560 c 0
 20 563 21 566 22 569 c 0
 29 587 53 601 78 601 c 0
 80 601 81 601 83 601 c 0
 105 599 124 597 142 596 c 1
 138 631 135 664 131 697 c 0
 130 703 130 709 130 715 c 0
 130 762 151 806 195 837 c 0
 229 862 271 874 314 874 c 0
 366 874 421 856 468 822 c 0
 476 816 479 809 479 801 c 0
 479 791 473 780 462 772 c 0
 451 764 436 759 422 759 c 0
 411 759 400 762 392 768 c 0
 356 795 326 803 303 803 c 0
 283 803 268 797 259 790 c 0
 243 778 228 755 228 724 c 0xf0
 228 720 229 717 229 713 c 0
 234 675 238 635 242 593 c 1
 275 593 314 594 365 596 c 0
 366 596 366 596 367 596 c 0
 391 596 409 583 409 566 c 0
 409 565 409 563 409 562 c 0
 406 543 382 525 355 524 c 0
 313 522 279 521 249 521 c 1
 259 407 266 281 266 145 c 0
 266 104 265 63 264 20 c 0
 263 -30 253 -81 233 -124 c 0
 211 -172 175 -218 112 -241 c 0
 104 -244 96 -245 88 -245 c 0
 71 -245 55 -239 49 -227 c 0xe8
EndSplineSet
Validated: 1
Colour: ff0000
EndChar

StartChar: endash
Encoding: 8211 8211 199
Width: 660
VWidth: 0
GlyphClass: 2
Flags: W
HStem: 301 80<79.9924 577.039>
LayerCount: 2
Fore
SplineSet
77 349 m 0
 84 367 108 381 133 381 c 2
 138 381 l 1
 192 376 290 374 390 374 c 0
 442 374 494 374 540 376 c 2
 542 376 l 2
 566 376 584 363 584 346 c 2
 584 342 l 2
 581 323 557 305 530 304 c 0
 474 302 413 301 353 301 c 0
 259 301 169 304 112 309 c 0
 90 311 75 324 75 340 c 0
 75 343 76 346 77 349 c 0
EndSplineSet
Validated: 1
Colour: ff00
EndChar

StartChar: emdash
Encoding: 8212 8212 200
Width: 1200
VWidth: 0
GlyphClass: 2
Flags: W
HStem: 299 72<360.495 1055.19> 309 72<94.9924 394.108 797.815 1106.87>
LayerCount: 2
Fore
SplineSet
92 349 m 0x40
 99 367 123 381 148 381 c 2
 153 381 l 1x40
 228 374 440 371 650 371 c 0
 810 371 969 373 1065 376 c 2
 1067 376 l 2
 1091 376 1109 363 1109 346 c 2
 1109 342 l 2
 1106 323 1082 305 1055 304 c 0
 948 301 774 299 602 299 c 0x80
 403 299 208 301 127 309 c 0
 105 311 90 324 90 340 c 0
 90 343 91 346 92 349 c 0x40
EndSplineSet
Validated: 1
Colour: ff00
EndChar

StartChar: quoteleft
Encoding: 8216 8216 201
Width: 330
VWidth: 0
GlyphClass: 2
Flags: W
HStem: 540 61<163.63 226.484> 791 54<209.173 263.668>
VStem: 69 90<601.296 737.381>
LayerCount: 2
Back
SplineSet
220 585 m 5
 99 512 59 734 225 815 c 1029
EndSplineSet
Fore
SplineSet
256 607 m 0
 262 602 264 596 264 590 c 0
 264 580 258 570 246 563 c 0
 242 560 237 558 232 556 c 0
 212 547 191 540 169 540 c 0
 167 540 166 540 164 540 c 0
 131 541 109 554 96 569 c 0
 79 588 69 617 69 649 c 0
 69 714 108 792 204 839 c 0
 213 843 223 845 232 845 c 0
 245 845 257 841 264 834 c 0
 268 830 269 826 269 821 c 0
 269 810 261 798 246 791 c 0
 186 762 159 702 159 656 c 0
 159 636 165 618 174 608 c 0
 178 604 181 601 182 601 c 1
 183 601 187 603 194 607 c 0
 204 613 216 616 227 616 c 0
 238 616 249 613 256 607 c 0
EndSplineSet
Validated: 1
Colour: ff00
EndChar

StartChar: quotedblleft
Encoding: 8220 8220 204
Width: 540
VWidth: 0
GlyphClass: 2
Flags: W
HStem: 540 63<171 212.436 396 437.436> 557 59<172.048 239.67 397.048 464.67> 826 20G<212 223 437 448>
VStem: 64 92<604.396 741.91> 289 92<604.396 741.91>
LayerCount: 2
Back
SplineSet
205 585 m 5
 96 512 61 734 210 815 c 1029
430 585 m 1
 321 512 286 734 435 815 c 1025
EndSplineSet
Fore
SplineSet
240 608 m 0x78
 246 603 250 598 250 591 c 0
 250 582 244 572 233 565 c 0
 229 562 225 559 221 557 c 0x78
 202 547 180 540 157 540 c 0
 155 540 154 540 152 540 c 0
 125 541 108 552 96 563 c 0
 76 582 64 614 64 650 c 0
 64 714 100 791 186 838 c 0
 196 843 207 846 217 846 c 0
 229 846 241 842 248 835 c 0
 253 830 255 825 255 819 c 0
 255 809 248 799 234 792 c 0
 179 762 156 700 156 654 c 0
 156 632 161 613 171 604 c 0
 171 604 171 603 172 603 c 1xb8
 173 604 175 604 177 605 c 0
 187 612 201 616 213 616 c 0
 223 616 233 613 240 608 c 0x78
465 608 m 0
 471 603 475 598 475 591 c 0
 475 582 469 572 458 565 c 0
 454 562 450 559 446 557 c 0x78
 427 547 405 540 382 540 c 0
 380 540 379 540 377 540 c 0
 350 541 333 552 321 563 c 0
 301 582 289 614 289 650 c 0
 289 714 325 791 411 838 c 0
 421 843 432 846 442 846 c 0
 454 846 466 842 473 835 c 0
 478 830 480 825 480 819 c 0
 480 809 473 799 459 792 c 0
 404 762 381 700 381 654 c 0
 381 632 386 613 396 604 c 0
 396 604 396 603 397 603 c 1xb8
 398 604 400 604 402 605 c 0
 412 612 426 616 438 616 c 0
 448 616 458 613 465 608 c 0
EndSplineSet
Validated: 1
Colour: ff00
EndChar

StartChar: quotedblright
Encoding: 8221 8221 205
Width: 540
VWidth: 0
GlyphClass: 2
Flags: W
HStem: 769 59<75.3303 142.952 300.33 367.952> 782 63<102.564 144 327.564 369>
VStem: 159 92<643.09 780.604> 384 92<643.09 780.604>
LayerCount: 2
Back
SplineSet
335 800 m 1
 444 873 479 651 330 570 c 1025
110 800 m 5
 219 873 254 651 105 570 c 1029
EndSplineSet
Fore
Refer: 206 8222 S 1 0 0 1 0 720 2
Validated: 1
Colour: ff00
EndChar

StartChar: quotedblbase
Encoding: 8222 8222 206
Width: 540
VWidth: 0
GlyphClass: 2
Flags: W
HStem: 49 59<75.3303 142.952 300.33 367.952> 62 63<102.564 144 327.564 369>
VStem: 159 92<-76.9095 60.6036> 384 92<-76.9095 60.6036>
LayerCount: 2
Back
SplineSet
335 80 m 5
 444 153 479 -69 330 -150 c 1029
110 80 m 5
 219 153 254 -69 105 -150 c 1029
EndSplineSet
Fore
SplineSet
300 57 m 0xb0
 294 62 290 67 290 74 c 0
 290 83 296 93 307 100 c 0
 311 103 315 106 319 108 c 0xb0
 338 118 360 125 383 125 c 0
 385 125 386 125 388 125 c 0
 415 124 432 113 444 102 c 0
 464 83 476 51 476 15 c 0
 476 -49 440 -126 354 -173 c 0
 344 -178 333 -181 323 -181 c 0
 311 -181 299 -177 292 -170 c 0
 287 -165 285 -160 285 -154 c 0
 285 -144 292 -134 306 -127 c 0
 361 -97 384 -35 384 11 c 0
 384 33 379 52 369 61 c 0
 369 61 369 62 368 62 c 1x70
 367 61 365 61 363 60 c 0
 353 53 339 49 327 49 c 0
 317 49 307 52 300 57 c 0xb0
75 57 m 0
 69 62 65 67 65 74 c 0
 65 83 71 93 82 100 c 0
 86 103 90 106 94 108 c 0xb0
 113 118 135 125 158 125 c 0
 160 125 161 125 163 125 c 0
 190 124 207 113 219 102 c 0
 239 83 251 51 251 15 c 0
 251 -49 215 -126 129 -173 c 0
 119 -178 108 -181 98 -181 c 0
 86 -181 74 -177 67 -170 c 0
 62 -165 60 -160 60 -154 c 0
 60 -144 67 -134 81 -127 c 0
 136 -97 159 -35 159 11 c 0
 159 33 154 52 144 61 c 0
 144 61 144 62 143 62 c 1x70
 142 61 140 61 138 60 c 0
 128 53 114 49 102 49 c 0
 92 49 82 52 75 57 c 0
EndSplineSet
Validated: 1
Colour: ff00
EndChar

StartChar: dagger
Encoding: 8224 8224 207
Width: 450
VWidth: 0
GlyphClass: 2
Flags: W
HStem: 620 60<6.66632 184 265 443.811>
VStem: 187 80<-86.0349 616 676 886.991>
LayerCount: 2
Back
SplineSet
405 650 m 4
 302 645 156 644 45 650 c 1028
220 860 m 5
 229 554 227 324 225 -60 c 1029
EndSplineSet
Fore
SplineSet
219 890 m 0
 221 890 222 890 224 890 c 0
 244 890 260 879 260 864 c 0
 262 799 263 737 264 676 c 1
 315 676 365 678 407 680 c 0
 408 680 409 680 410 680 c 0
 430 680 445 669 445 653 c 0
 445 652 l 0
 444 635 425 621 403 620 c 0
 362 618 314 617 265 616 c 1
 266 537 267 459 267 376 c 0
 267 248 266 110 265 -57 c 0
 265 -74 247 -88 225 -90 c 0
 223 -90 222 -90 220 -90 c 0
 200 -90 185 -79 185 -63 c 0
 186 106 187 245 187 374 c 0
 187 457 186 536 185 616 c 1
 134 616 84 618 38 620 c 0
 19 621 5 633 5 647 c 0
 5 649 6 650 6 652 c 0
 10 668 30 680 50 680 c 0
 51 680 51 680 52 680 c 0
 92 678 138 676 184 676 c 1
 183 734 182 793 180 856 c 0
 180 872 197 888 219 890 c 0
EndSplineSet
Validated: 1
Colour: ff00
EndChar

StartChar: daggerdbl
Encoding: 8225 8225 208
Width: 450
VWidth: 0
GlyphClass: 2
Flags: W
HStem: 120 60<7.66632 186 266 443.606> 620 60<6.66632 184 265 443.811>
VStem: 187 80<-86.0349 115 176 616 676 886.991>
LayerCount: 2
Back
SplineSet
405 150 m 4
 304 143 157 144 46 150 c 1028
405 650 m 4
 302 645 156 644 45 650 c 1028
220 860 m 5
 229 554 227 324 225 -60 c 1029
EndSplineSet
Fore
SplineSet
219 890 m 0
 221 890 222 890 224 890 c 0
 244 890 260 879 260 864 c 0
 262 799 263 737 264 676 c 1
 315 676 365 678 407 680 c 0
 408 680 409 680 410 680 c 0
 430 680 445 669 445 653 c 0
 445 652 l 0
 444 635 425 621 403 620 c 0
 362 618 314 617 265 616 c 1
 266 534 267 453 267 367 c 0
 267 306 266 243 266 175 c 1
 317 175 366 177 406 180 c 0
 407 180 408 180 409 180 c 0
 429 180 445 170 445 154 c 0
 445 153 l 0
 444 136 426 121 404 120 c 0
 363 117 315 115 266 115 c 1
 266 61 265 4 265 -57 c 0
 265 -74 247 -88 225 -90 c 0
 223 -90 222 -90 220 -90 c 0
 200 -90 185 -79 185 -63 c 0
 185 0 186 59 186 115 c 1
 135 116 84 118 39 120 c 0
 20 121 6 133 6 147 c 0
 6 149 7 150 7 152 c 0
 11 168 31 180 51 180 c 0
 52 180 52 180 53 180 c 0
 94 178 139 177 186 176 c 1
 186 244 187 306 187 367 c 0
 187 453 186 534 185 616 c 1
 134 616 84 618 38 620 c 0
 19 621 5 633 5 647 c 0
 5 649 6 650 6 652 c 0
 10 668 30 680 50 680 c 0
 51 680 51 680 52 680 c 0
 92 678 138 676 184 676 c 1
 183 734 182 793 180 856 c 0
 180 872 197 888 219 890 c 0
EndSplineSet
Validated: 1
Colour: ff00
EndChar

StartChar: bullet
Encoding: 8226 8226 209
Width: 720
VWidth: 0
GlyphClass: 2
Flags: W
HStem: 234 232<280.203 376.766 377.234 436.403>
VStem: 231 258<282.222 418.241>
LayerCount: 2
Back
SplineSet
355 430 m 6
 385 430 l 5
 428 413 440 380 440 340 c 4
 440 298 398 270 355 270 c 4
 321 270 280 298 280 345 c 4
 280 388 306 430 355 430 c 6
EndSplineSet
Fore
SplineSet
377 464 m 0
 382 465 387 466 392 466 c 0
 400 466 407 464 413 462 c 0
 475 437 489 389 489 345 c 0
 489 290 434 242 365 235 c 0
 359 234 354 234 348 234 c 0
 281 234 231 280 231 340 c 0
 231 379 247 435 316 458 c 0
 326 461 336 464 347 465 c 0
 352 465 357 466 362 466 c 0
 367 466 372 465 377 464 c 0
EndSplineSet
Validated: 1
Colour: ff00
EndChar

StartChar: ellipsis
Encoding: 8230 8230 210
Width: 720
VWidth: 0
GlyphClass: 3
Flags: W
HStem: 2 123<78.75 190.788 303.75 415.788 528.75 640.788>
VStem: 60 150<22.0399 105.386> 285 150<22.0399 105.386> 510 150<22.0399 105.386>
CounterMasks: 1 70
LayerCount: 2
Fore
SplineSet
417 108 m 0
 419 105 435 92 435 70 c 0
 435 66 434 62 433 58 c 0
 429 34 399 2 351 2 c 0
 307 2 285 29 285 57 c 0
 285 78 307 125 369 125 c 0
 374 125 379 125 382 124 c 2
 398 120 l 2
 406 118 413 113 417 108 c 0
642 108 m 0
 644 105 660 92 660 70 c 0
 660 66 659 62 658 58 c 0
 654 34 624 2 576 2 c 0
 532 2 510 29 510 57 c 0
 510 78 532 125 594 125 c 0
 599 125 604 125 607 124 c 2
 623 120 l 2
 631 118 638 113 642 108 c 0
192 108 m 0
 194 105 210 92 210 70 c 0
 210 66 209 62 208 58 c 0
 204 34 174 2 126 2 c 0
 82 2 60 29 60 57 c 0
 60 78 82 125 144 125 c 0
 149 125 154 125 157 124 c 2
 173 120 l 2
 181 118 188 113 192 108 c 0
EndSplineSet
Validated: 1
Colour: ff00
EndChar

StartChar: guilsinglleft
Encoding: 8249 8249 211
Width: 450
VWidth: 0
GlyphClass: 2
Flags: W
HStem: 596 20G<323.5 335>
VStem: 66 312
LayerCount: 2
Fore
SplineSet
363 74 m 0
 353 68 343 65 333 65 c 0
 322 65 312 69 304 76 c 0
 247 129 134 234 71 320 c 0
 68 324 66 329 66 334 c 0
 66 343 71 352 79 360 c 0
 159 430 261 537 290 589 c 0
 299 605 314 616 333 616 c 0
 337 616 340 616 344 615 c 0
 360 612 366 603 366 592 c 0
 366 586 364 578 360 571 c 0
 326 510 256 417 174 341 c 1
 233 265 316 171 366 124 c 0
 374 117 378 107 378 98 c 0
 378 89 374 80 363 74 c 0
EndSplineSet
Validated: 1
Colour: ff00
EndChar

StartChar: fraction
Encoding: 8260 8260 213
Width: 720
VWidth: 0
GlyphClass: 2
Flags: W
LayerCount: 2
Back
SplineSet
630 765 m 5
 476 546 246 229 90 35 c 1029
EndSplineSet
Fore
SplineSet
648 790 m 0
 661 787 669 779 669 770 c 0
 669 766 668 762 665 758 c 0
 511 539 281 222 124 27 c 0
 115 17 98 9 82 9 c 0
 78 9 74 10 70 11 c 0
 57 14 51 22 51 30 c 0
 51 34 52 39 56 43 c 0
 211 236 441 553 595 772 c 0
 603 784 621 791 638 791 c 0
 642 791 645 791 648 790 c 0
EndSplineSet
Validated: 1
Colour: ff00
EndChar

StartChar: Euro
Encoding: 8364 8364 214
Width: 720
VWidth: 0
GlyphClass: 2
Flags: W
HStem: -15 72<334.37 505.812> 277 56<22.29 117 224 305.688 309.297 493.748> 448 58<221 448.7> 453 56<22.29 118 221 296.688 300.392 493.602> 745 71<339.291 498.111>
VStem: 115 98<330.148 449> 566 99<597.814 676.719>
LayerCount: 2
Back
SplineSet
60 305 m 5
 148 297 316 295 455 300 c 1029
60 485 m 5
 148 477 316 475 455 480 c 1029
620 139 m 1
 511 -40 164 -59 164 393 c 0
 164 865 568 858 615 626 c 1025
EndSplineSet
Fore
SplineSet
641 173 m 0xee
 659 169 669 157 669 144 c 0
 669 139 668 134 665 129 c 0
 619 54 533 -3 435 -13 c 0
 424 -14 413 -15 402 -15 c 0
 266 -15 155 78 124 272 c 1
 96 273 71 275 50 277 c 0
 32 279 21 289 21 301 c 0
 21 303 21 306 22 308 c 0
 28 322 46 333 65 333 c 2
 70 333 l 2
 84 332 99 331 117 330 c 1
 116 349 115 368 115 388 c 0
 115 410 116 432 118 453 c 1
 93 454 69 455 50 457 c 0
 32 459 21 469 21 481 c 0
 21 483 21 486 22 488 c 0
 28 502 46 513 65 513 c 2
 70 513 l 2
 86 512 104 510 125 509 c 1xde
 155 681 250 784 376 810 c 0
 396 814 416 816 435 816 c 0
 551 816 643 741 664 636 c 0
 664 634 665 633 665 631 c 0
 665 614 647 597 622 592 c 0
 617 591 612 590 607 590 c 0
 586 590 569 601 566 616 c 0
 548 705 476 745 416 745 c 0
 407 745 398 744 390 742 c 0
 333 730 248 667 221 506 c 1
 280 506 l 2xee
 340 506 402 507 459 509 c 2
 461 509 l 2xde
 480 509 494 498 494 484 c 2
 494 481 l 2
 492 465 472 452 451 451 c 0
 402 449 349 448 298 448 c 0
 270 448 242 448 215 449 c 1
 214 433 213 416 213 398 c 0
 213 372 214 348 216 326 c 1
 275 326 l 2
 336 326 401 327 459 329 c 2
 461 329 l 2
 480 329 494 318 494 304 c 2
 494 301 l 2
 492 285 472 272 451 271 c 0
 405 269 356 268 307 268 c 0
 279 268 251 269 224 269 c 1
 257 104 351 57 420 57 c 0
 425 57 430 58 435 58 c 0
 486 63 541 94 575 149 c 0
 584 164 606 175 627 175 c 0
 632 175 637 174 641 173 c 0xee
EndSplineSet
Validated: 1
Colour: ff00
EndChar

StartChar: trademark
Encoding: 8482 8482 215
Width: 720
VWidth: 0
GlyphClass: 2
Flags: W
HStem: 616 21G<502 510.5> 833 56<41.089 135.02 208 314.292> 845 48<32.0059 131.999 209.17 317.893>
VStem: 137 74<547.497 832> 595 70<596.516 747 833.359 891.847> 607 74<555.945 743.809>
LayerCount: 2
Back
SplineSet
173 570 m 5
 175 695 175 775 171 831 c 4
 170 850 157 856 143 858 c 4
 117 861 67 866 65 867 c 5
 67 867 119 863 179 863 c 4
 213 863 249 866 281 867 c 1029
380 575 m 5
 389 647 393 785 396 871 c 5
 477 729 506 645 513 639 c 5
 520 645 551 733 628 877 c 5
 630 783 636 635 644 579 c 1029
EndSplineSet
Fore
SplineSet
377 549 m 0xb8
 376 549 375 549 374 549 c 0
 356 549 343 559 343 571 c 0
 343 572 343 572 343 573 c 0
 351 638 355 762 358 848 c 0
 358 855 359 861 359 867 c 0
 359 867 393 893 415 893 c 0
 422 893 427 890 431 884 c 0
 469 817 497 750 515 712 c 1
 534 753 558 816 593 882 c 0
 593 882 625 896 646 896 c 0
 657 896 665 892 665 882 c 0
 665 877 665 871 665 866 c 0xb8
 667 772 674 637 681 586 c 0
 681 585 681 585 681 584 c 0
 681 572 667 558 648 554 c 0
 645 553 641 553 638 553 c 0
 622 553 609 561 607 572 c 0xb4
 602 606 598 679 595 747 c 1
 566 685 558 650 535 630 c 0
 523 620 514 616 507 616 c 0
 497 616 491 623 488 626 c 0
 470 641 460 676 428 743 c 1
 425 686 422 616 417 577 c 0
 415 563 397 550 377 549 c 0xb8
173 545 m 0
 171 545 169 545 167 545 c 0
 149 545 136 553 136 566 c 0
 137 618 137 662 137 700 c 0
 137 753 136 794 134 826 c 1
 134 832 132 832 132 832 c 1
 132 832 131 833 130 833 c 1xd0
 101 836 63 833 40 845 c 0
 40 845 32 857 32 869 c 0
 32 881 40 893 71 893 c 0xb0
 81 893 125 889 185 889 c 0xd0
 216 889 252 892 286 893 c 0
 287 893 287 893 288 893 c 0
 306 893 318 883 318 871 c 0
 318 870 318 869 318 868 c 0
 316 854 296 842 276 841 c 0
 256 840 233 839 208 838 c 1
 208 838 208 837 208 836 c 1
 210 803 211 762 211 708 c 0
 211 670 211 626 210 574 c 0
 210 560 193 547 173 545 c 0
EndSplineSet
Validated: 1
Colour: ff00
EndChar

StartChar: uni0300
Encoding: 768 768 219
Width: 0
VWidth: 0
GlyphClass: 4
Flags: W
HStem: 699 202
VStem: -155 265
AnchorPoint: "LatinAbove.mkmk" 0 0 mark 0
AnchorPoint: "LatinAbove.mkmk" 0 180 basemark 0
AnchorPoint: "LatinAbove.mark_1" 0 0 mark 0
AnchorPoint: "LatinAbove.mark" 0 0 mark 0
LayerCount: 2
Back
SplineSet
-120 840 m 5
 -99 870 l 5
 -15 803 61 730 75 715 c 5
 58 723 -38 790 -120 840 c 5
EndSplineSet
Fore
SplineSet
-155 847 m 2
 -134 877 l 0
 -134 877 -121 901 -97 901 c 0
 -88 901 -78 898 -67 889 c 0
 18 821 95 742 110 726 c 0
 110 726 90 699 64 699 c 0
 59 699 53 701 48 703 c 0
 23 715 -68 770 -150 820 c 0
 -156 824 -159 829 -159 835 c 0
 -159 839 -158 843 -155 847 c 2
EndSplineSet
Validated: 1
EndChar

StartChar: uni0301
Encoding: 769 769 220
Width: 0
VWidth: 0
GlyphClass: 4
Flags: W
HStem: 699 202
VStem: 68 91<844 882>
AnchorPoint: "LatinAbove.mkmk" 0 0 mark 0
AnchorPoint: "LatinAbove.mkmk" 0 180 basemark 0
AnchorPoint: "LatinAbove.mark_1" 0 0 mark 0
AnchorPoint: "LatinAbove.mark" 0 0 mark 0
LayerCount: 2
Back
SplineSet
120 840 m 5
 38 781 -58 719 -75 715 c 5
 -61 726 15 792 99 870 c 5
 120 840 l 5
EndSplineSet
Fore
SplineSet
147 825 m 0
 63 765 -17 712 -63 701 c 0
 -63 701 -74 699 -85 699 c 0
 -97 699 -110 701 -110 710 c 0
 -110 714 -107 721 -98 729 c 0
 -88 739 -15 805 68 882 c 0
 68 882 86 901 106 901 c 0
 116 901 126 897 135 884 c 0
 156 854 l 0
 158 851 159 847 159 844 c 0
 159 837 155 831 147 825 c 0
EndSplineSet
Validated: 1
EndChar

StartChar: uni0302
Encoding: 770 770 221
Width: 0
VWidth: 0
GlyphClass: 4
Flags: W
HStem: 688 198
VStem: -187 370
AnchorPoint: "LatinAbove.mkmk" 0 0 mark 0
AnchorPoint: "LatinAbove.mkmk" 0 180 basemark 0
AnchorPoint: "LatinAbove.mark_1" 0 0 mark 0
AnchorPoint: "LatinAbove.mark" 0 0 mark 0
LayerCount: 2
Back
SplineSet
-2 855 m 5
 62 796 144 722 150 710 c 5
 138 717 62 778 0 825 c 5
 -56 782 -137 717 -150 710 c 5
 -144 722 -60 796 -2 855 c 5
EndSplineSet
Fore
SplineSet
32 873 m 0
 97 813 172 744 183 722 c 0
 183 722 169 688 144 688 c 0
 138 688 133 690 126 694 c 0
 110 703 50 747 -5 790 c 1
 -58 749 -110 709 -134 696 c 0
 -134 696 -157 686 -173 686 c 0
 -181 686 -187 689 -187 697 c 0
 -187 701 -185 706 -182 713 c 0
 -168 740 -92 807 -34 866 c 0
 -34 866 -19 886 3 886 c 0
 12 886 22 882 32 873 c 0
EndSplineSet
Validated: 1
EndChar

StartChar: uni0303
Encoding: 771 771 222
Width: 0
VWidth: 0
GlyphClass: 4
Flags: W
HStem: 730 60<42.8611 107.498> 818 60<-105.318 -41.3748>
VStem: -199 399
AnchorPoint: "LatinAbove.mkmk" 0 0 mark 0
AnchorPoint: "LatinAbove.mkmk" 0 180 basemark 0
AnchorPoint: "LatinAbove.mark_1" 0 0 mark 0
AnchorPoint: "LatinAbove.mark" 0 0 mark 0
LayerCount: 2
Back
SplineSet
160 840 m 1
 150 811 122 760 77 760 c 4
 46 760 23 781 1 803 c 0
 -22 825 -45 848 -77 848 c 0
 -123 848 -149 797 -160 768 c 1025
EndSplineSet
Fore
SplineSet
171 870 m 0
 189 868 200 857 200 844 c 0
 200 841 200 839 199 836 c 0
 190 811 159 730 73 730 c 0
 19 730 -10 762 -30 782 c 1
 -56 807 -73 818 -81 818 c 0
 -86 818 -108 798 -121 763 c 0
 -126 749 -144 738 -163 738 c 0
 -165 738 -168 738 -170 738 c 0
 -187 740 -199 752 -199 765 c 0
 -199 768 -198 770 -197 773 c 0
 -188 796 -158 878 -71 878 c 0
 -15 878 13 844 34 824 c 1
 58 800 75 790 83 790 c 0
 87 790 112 811 123 844 c 0
 129 859 147 870 166 870 c 0
 168 870 169 870 171 870 c 0
EndSplineSet
Validated: 1
EndChar

StartChar: uni0306
Encoding: 774 774 223
Width: 0
VWidth: 0
GlyphClass: 4
Flags: W
HStem: 705 67<-71.1692 87.5769>
VStem: -184 63<818.719 881.084>
AnchorPoint: "LatinAbove.mkmk" 0 0 mark 0
AnchorPoint: "LatinAbove.mkmk" 0 180 basemark 0
AnchorPoint: "LatinAbove.mark_1" 0 0 mark 0
AnchorPoint: "LatinAbove.mark" 0 0 mark 0
LayerCount: 2
Back
SplineSet
0 731 m 4
 -114 731 -148 809 -150 855 c 5
 -140 822 -112 746 2 746 c 4
 115 746 142 818 150 865 c 5
 158 806 113 731 0 731 c 4
EndSplineSet
Fore
SplineSet
-8 705 m 0
 -148 705 -182 800 -184 849 c 0
 -184 850 l 0
 -184 869 -164 883 -146 883 c 0
 -135 883 -125 878 -121 865 c 0
 -111 831 -74 772 10 772 c 0
 13 772 17 772 20 772 c 0
 82 775 113 815 121 863 c 0
 123 878 145 894 162 894 c 0
 173 894 182 888 184 872 c 0
 185 867 185 861 185 856 c 0
 185 844 183 833 180 821 c 0
 164 767 101 705 -8 705 c 0
EndSplineSet
Validated: 1
EndChar

StartChar: uni0307
Encoding: 775 775 224
Width: 0
VWidth: 0
GlyphClass: 4
Flags: W
HStem: 725 137<-60.8628 59.5143>
VStem: -84 168<749.13 838.517>
AnchorPoint: "LatinAbove.mkmk" 0 0 mark 0
AnchorPoint: "LatinAbove.mkmk" 0 180 basemark 0
AnchorPoint: "LatinAbove.mark_1" 0 0 mark 0
AnchorPoint: "LatinAbove.mark" 0 0 mark 0
LayerCount: 2
Fore
SplineSet
66 842 m 0
 68 840 84 825 84 801 c 0
 84 797 84 792 83 788 c 0
 78 762 45 725 -10 725 c 0
 -60 725 -84 756 -84 786 c 0
 -84 809 -62 862 10 862 c 0
 16 862 22 861 26 860 c 2
 42 856 l 2
 52 853 61 848 66 842 c 0
EndSplineSet
Validated: 1
EndChar

StartChar: uni0308
Encoding: 776 776 225
Width: 0
VWidth: 0
GlyphClass: 4
Flags: W
HStem: 725 137<-184.829 -69.3363 67.1709 182.664>
VStem: -205 158<747.58 841.324> 47 158<747.58 841.324>
AnchorPoint: "LatinAbove.mkmk" 0 0 mark 0
AnchorPoint: "LatinAbove.mkmk" 0 180 basemark 0
AnchorPoint: "LatinAbove.mark_1" 0 0 mark 0
AnchorPoint: "LatinAbove.mark" 0 0 mark 0
LayerCount: 2
Fore
SplineSet
187 842 m 0
 189 840 205 825 205 801 c 0
 205 797 205 792 204 788 c 0
 199 762 171 725 116 725 c 0
 66 725 47 756 47 786 c 0
 47 809 64 862 136 862 c 0
 142 862 148 861 152 860 c 2
 163 856 l 2
 173 853 182 848 187 842 c 0
-65 842 m 0
 -63 840 -47 825 -47 801 c 0
 -47 797 -47 792 -48 788 c 0
 -53 762 -81 725 -136 725 c 0
 -186 725 -205 756 -205 786 c 0
 -205 809 -188 862 -116 862 c 0
 -110 862 -104 861 -100 860 c 2
 -89 856 l 2
 -79 853 -70 848 -65 842 c 0
EndSplineSet
Validated: 1
EndChar

StartChar: uni030A
Encoding: 778 778 226
Width: 0
VWidth: 0
GlyphClass: 4
Flags: W
HStem: 673 54<-35.5664 40.4302> 833 54<-36.0349 4.7649>
VStem: -117 74<733.863 832.064> 43 74<730.044 829.038>
AnchorPoint: "LatinAbove.mkmk" 0 0 mark 0
AnchorPoint: "LatinAbove.mkmk" 0 180 basemark 0
AnchorPoint: "LatinAbove.mark_1" 0 0 mark 0
AnchorPoint: "LatinAbove.mark" 0 0 mark 0
LayerCount: 2
Back
SplineSet
25 860 m 5
 68 843 80 810 80 770 c 4
 80 728 38 700 -5 700 c 4
 -39 700 -80 728 -80 775 c 4
 -80 818 -54 860 -5 860 c 1030
EndSplineSet
Fore
SplineSet
5 836 m 0
 0 835 -6 833 -11 833 c 0
 -19 833 -34 827 -41 796 c 0
 -42 790 -43 785 -43 779 c 0
 -43 741 -8 727 1 727 c 0
 18 727 37 736 42 758 c 0
 43 761 43 763 43 766 c 0
 43 802 32 824 5 836 c 0
15 884 m 0
 21 886 26 886 31 886 c 0
 36 886 42 886 46 884 c 0
 103 861 117 817 117 774 c 0
 117 768 116 763 115 758 c 0
 105 710 49 673 -11 673 c 0
 -70 673 -117 715 -117 771 c 0
 -117 779 -116 788 -114 796 c 0
 -106 834 -72 887 1 887 c 0
 6 887 11 886 15 884 c 0
EndSplineSet
Validated: 1
EndChar

StartChar: uni0327
Encoding: 807 807 227
Width: 0
VWidth: 0
GlyphClass: 4
Flags: W
HStem: -255 51<-100.284 35.2482> -115 40<-12.6704 31.7634>
VStem: -32 61<6 23.4683> 44 70<-192.595 -125.647>
AnchorPoint: "LatinCedilla.mark" 0 0 mark 0
LayerCount: 2
Back
SplineSet
0 0 m 28
 -45 -90 l 5
 166 -81 78 -293 -90 -210 c 1029
EndSplineSet
Fore
SplineSet
10 23 m 0
 21 21 29 14 29 4 c 0
 29 1 29 -3 27 -6 c 0
 -13 -76 l 1
 -6 -75 3 -75 12 -75 c 0
 30 -75 50 -77 63 -82 c 0
 98 -96 114 -122 114 -150 c 0
 114 -173 103 -197 85 -215 c 0
 60 -240 22 -255 -20 -255 c 0
 -49 -255 -81 -248 -112 -232 c 0
 -120 -228 -125 -221 -125 -214 c 0
 -125 -208 -122 -202 -117 -197 c 0
 -109 -189 -97 -185 -85 -185 c 0
 -79 -185 -73 -186 -68 -188 c 0
 -44 -200 -25 -204 -10 -204 c 0
 11 -204 24 -196 32 -188 c 0
 40 -180 44 -170 44 -160 c 0
 44 -147 37 -135 19 -126 c 0
 6 -120 -12 -115 -40 -115 c 0
 -43 -115 -45 -115 -48 -115 c 0
 -49 -115 -51 -115 -52 -115 c 0
 -75 -115 -81 -106 -81 -98 c 0
 -81 -91 -77 -85 -77 -84 c 0
 -32 6 l 0
 -26 18 -13 24 1 24 c 0
 4 24 7 24 10 23 c 0
EndSplineSet
Validated: 1
EndChar

StartChar: yen
Encoding: 165 165 228
Width: 720
VWidth: 0
Flags: W
HStem: -20 21G<350.5 364.5> 170 60<111.325 310 418 613.44> 325 60<111.325 230 473 613.44> 790 20G<93.5 108>
VStem: 35 108<715.854 800.407> 310 114<-10.5907 162 223 304.25> 578 107<710.674 790.238>
LayerCount: 2
Fore
SplineSet
111 358 m 0
 115 374 133 385 153 385 c 0
 155 385 156 385 158 385 c 0
 180 383 204 382 230 381 c 1
 213 401 198 423 182 448 c 0
 126 535 75 646 37 755 c 0
 36 758 35 761 35 764 c 0
 35 782 52 800 77 807 c 0
 84 809 90 810 97 810 c 0
 119 810 138 800 143 785 c 0
 179 680 230 571 282 490 c 0
 309 449 337 404 360 382 c 1
 381 413 408 449 438 496 c 0
 477 557 525 642 578 766 c 0
 586 785 614 799 640 799 c 2
 647 799 l 2
 670 797 685 783 685 766 c 0
 685 762 684 758 682 754 c 0
 627 626 577 537 536 472 c 0
 511 432 490 401 473 377 c 1
 507 377 542 379 578 380 c 0
 579 380 579 380 580 380 c 0
 600 380 614 369 614 354 c 0
 614 353 614 352 614 351 c 0
 612 334 594 321 572 320 c 0
 525 318 479 317 434 317 c 1
 424 299 419 283 419 265 c 0
 418 250 418 236 418 222 c 1
 465 222 517 223 578 225 c 0
 579 225 579 225 580 225 c 0
 600 225 614 214 614 199 c 0
 614 198 614 197 614 196 c 0
 612 179 594 166 572 165 c 0
 514 163 463 162 418 162 c 1
 419 118 421 75 424 28 c 2
 424 25 l 2
 424 5 402 -15 373 -19 c 0
 370 -19 366 -20 363 -20 c 0
 338 -20 318 -7 316 12 c 0
 312 64 310 114 310 163 c 1
 249 164 196 166 142 170 c 0
 123 171 110 183 110 197 c 0
 110 199 111 201 111 203 c 0
 115 219 135 230 155 230 c 0
 156 230 157 230 158 230 c 0
 207 227 255 224 310 223 c 1
 310 234 311 244 311 255 c 0
 311 273 314 289 319 305 c 1
 312 309 304 313 297 318 c 1
 240 319 188 322 142 325 c 0
 123 327 110 338 110 352 c 0
 110 354 111 356 111 358 c 0
EndSplineSet
Validated: 1
EndChar

StartChar: currency
Encoding: 164 164 229
Width: 720
VWidth: 0
Flags: W
HStem: 167 72<281.784 447.016> 556 72<281.42 397.624>
VStem: 119 98<304.05 488.785> 503 98<292.646 485.05>
LayerCount: 2
Back
SplineSet
108 647 m 4
 145 612 179 579 217 541 c 1028
500 246 m 4
 538 205 574 165 611 123 c 1028
603 647 m 4
 565 610 532 576 499 542 c 1028
229 243 m 4
 193 203 156 167 116 123 c 1028
401 587 m 5
 518 561 552 472 552 371 c 4
 552 270 451 203 348 203 c 4
 266 203 168 270 168 383 c 4
 168 498 244 589 365 592 c 1028
EndSplineSet
Fore
SplineSet
398 622 m 1
 401 622 405 623 408 623 c 0
 413 623 418 622 422 621 c 0
 450 615 474 606 494 595 c 1
 516 618 540 640 565 665 c 0
 576 676 594 683 611 683 c 0
 619 683 627 681 634 678 c 0
 646 672 652 663 652 653 c 0
 652 645 648 636 641 629 c 0
 610 599 582 570 555 542 c 1
 590 495 601 435 601 376 c 0
 601 364 600 353 598 342 c 0
 592 310 576 281 554 256 c 1
 588 219 621 183 654 145 c 0
 658 140 660 135 660 129 c 0
 660 117 652 103 636 95 c 0
 626 90 616 88 605 88 c 0
 590 88 576 92 568 101 c 0
 538 135 509 167 479 200 c 1
 438 179 390 167 341 167 c 0
 304 167 269 176 237 192 c 1
 211 164 184 137 156 107 c 0
 145 95 125 87 107 87 c 0
 100 87 93 88 87 91 c 0
 74 96 67 107 67 118 c 0
 67 125 70 132 76 139 c 0
 110 177 141 208 171 240 c 1
 139 276 119 323 119 378 c 0
 119 392 120 405 122 419 c 0
 128 457 142 495 166 527 c 1
 132 561 101 591 67 623 c 0
 61 628 59 634 59 641 c 0
 59 652 66 665 80 673 c 0
 90 679 103 682 115 682 c 0
 128 682 141 678 149 671 c 0
 178 644 205 617 234 589 c 1
 271 612 317 627 371 628 c 0
 381 628 390 626 398 622 c 1
368 557 m 0
 365 557 362 556 359 556 c 0
 291 554 234 510 220 422 c 0
 218 411 217 400 217 388 c 0
 217 288 306 239 355 239 c 0
 420 239 487 275 500 342 c 0
 502 349 503 358 503 366 c 0
 503 464 469 533 380 553 c 0
 376 554 372 555 368 557 c 0
EndSplineSet
Validated: 1
EndChar

StartChar: section
Encoding: 167 167 230
Width: 720
VWidth: 0
Flags: W
HStem: -266 72<256.446 454.136> 747 72<270.001 454.031>
VStem: 80 98<-119.639 -56.0423> 102 99<550.067 686.724> 120 93<254.481 407.766> 491 99<595.127 709.734> 516 99<-134.588 12.9656 143.822 304.128>
LayerCount: 2
Back
SplineSet
247 460 m 4
 142 400 126 231 280 171 c 4
 321 155 409 115 441 102 c 4
 654 14 576 -230 350 -230 c 4
 236 -230 162 -171 130 -84 c 1029
540 623 m 5
 551 704 493 783 391 783 c 4
 143 783 60 555 276 463 c 4
 316 446 421 398 453 384 c 4
 605 317 591 166 496 92 c 1028
EndSplineSet
Fore
SplineSet
535 587 m 0xd4
 534 587 534 587 533 587 c 0
 509 587 491 600 491 617 c 0
 491 618 491 620 491 621 c 0
 492 627 492 632 492 638 c 0
 492 701 443 747 384 747 c 0
 310 747 261 724 232 693 c 0
 212 672 201 646 201 619 c 0xd4
 201 574 231 527 305 495 c 0
 346 477 452 429 483 415 c 0
 499 408 512 400 525 392 c 0
 587 351 615 295 615 239 c 0
 615 185 590 130 546 88 c 1
 593 48 615 -2 615 -51 c 0
 615 -62 614 -73 612 -84 c 0
 594 -175 495 -266 343 -266 c 0
 202 -266 117 -192 82 -98 c 0
 81 -95 80 -93 80 -90 c 0
 80 -74 96 -58 118 -51 c 0
 124 -49 131 -48 137 -48 c 0
 156 -48 173 -56 178 -70 c 0xe2
 207 -150 270 -194 357 -194 c 0
 445 -194 501 -147 514 -84 c 0
 515 -76 516 -69 516 -61 c 0
 516 -11 485 40 412 70 c 0
 378 84 291 124 252 139 c 0
 159 175 120 244 120 312 c 0xca
 120 359 138 406 171 443 c 0
 177 449 183 456 190 462 c 1
 131 503 102 556 102 609 c 0
 102 650 120 691 153 727 c 0
 204 782 292 819 398 819 c 0
 527 819 590 732 590 647 c 0
 590 640 590 632 589 625 c 0
 586 606 562 588 535 587 c 0xd4
483 128 m 1
 507 153 520 187 520 222 c 0
 520 263 501 306 454 336 c 0
 445 342 434 348 423 353 c 0
 393 366 303 407 258 426 c 1
 252 421 246 416 242 411 c 0
 223 389 213 361 213 331 c 0xc8
 213 281 242 229 308 203 c 0
 351 186 440 146 470 134 c 0
 474 132 479 130 483 128 c 1
EndSplineSet
Validated: 1
EndChar

StartChar: ordfeminine
Encoding: 170 170 231
Width: 360
VWidth: 0
Flags: W
HStem: 539 42<66.1206 302.188> 630 42<132.325 185.395 290.102 316.405> 858 42<153.028 203.144>
VStem: 49 69<678.273 825.332> 206 62<699.002 797.9 813.084 857.768>
LayerCount: 2
Back
SplineSet
285 655 m 1
 269 659 253 679 237 781 c 1025
100 560 m 0
 166 560 212 559 270 562 c 1028
237 781 m 1
 234 727 219 651 157 651 c 0
 40 651 75 879 193 879 c 0
 229 879 237 842 237 832 c 1025
EndSplineSet
Fore
SplineSet
66 560 m 0
 70 571 90 581 108 581 c 0
 135 581 158 581 180 581 c 0
 213 581 241 581 275 583 c 0
 276 583 277 583 278 583 c 0
 294 583 304 576 304 567 c 0
 304 566 304 565 304 564 c 0
 301 553 284 542 265 541 c 0
 229 539 198 539 164 539 c 0
 142 539 118 539 92 539 c 0
 76 539 65 547 65 556 c 0
 65 557 65 559 66 560 c 0
271 788 m 0
 284 704 290 677 305 674 c 0
 314 671 319 666 319 659 c 0
 319 655 318 652 314 648 c 0
 306 639 294 633 282 633 c 0
 278 633 275 634 271 635 c 0
 252 641 244 657 236 698 c 1
 228 675 214 646 184 635 c 0
 172 631 161 630 149 630 c 0
 74 630 49 679 49 731 c 0
 49 756 55 780 63 801 c 0
 79 842 119 900 201 900 c 0
 263 900 268 845 268 837 c 0
 268 826 256 815 237 812 c 0
 234 812 232 811 229 811 c 0
 215 811 206 818 206 827 c 0
 206 835 195 857 185 858 c 0
 174 858 146 844 129 798 c 0
 122 778 118 758 118 741 c 0
 118 700 137 672 165 672 c 0
 166 672 167 672 167 672 c 1
 183 676 205 727 208 777 c 0
 209 785 216 796 226 798 c 0
 229 798 232 799 235 799 c 0
 255 799 271 788 271 788 c 0
EndSplineSet
Validated: 1
EndChar

StartChar: paragraph
Encoding: 182 182 234
Width: 720
VWidth: 0
Flags: W
HStem: -245 21G<361.5 394 601.5 634> 295 73<226.249 327> 737 72<203.361 339 437 578>
VStem: 11 98<473.812 653.639> 327 98<-240.156 295 368 509.523> 339 98<443.403 737> 567 98<-240.156 508.063> 578 101<482.487 739>
LayerCount: 2
Back
SplineSet
380 -210 m 5
 377 -128 376 104 376 207 c 4
 376 367 380 682 390 760 c 1029
620 -210 m 5
 617 -128 616 119 616 222 c 4
 616 382 620 697 630 775 c 5
 495 774 407 774 324 773 c 4
 150 770 60 667 60 559 c 4
 60 446 155 330 360 330 c 1028
EndSplineSet
Fore
SplineSet
621 -245 m 0xf2
 618 -245 616 -245 613 -245 c 0
 590 -245 572 -233 571 -216 c 0
 568 -133 567 114 567 217 c 0xf2
 567 360 570 627 578 739 c 1
 524 739 478 738 437 738 c 1xf5
 429 635 425 357 425 212 c 0
 425 109 426 -123 429 -204 c 2
 429 -205 l 2
 429 -224 407 -242 381 -245 c 0
 378 -245 376 -245 373 -245 c 0
 350 -245 332 -233 331 -216 c 0
 328 -133 327 99 327 202 c 0
 327 229 327 261 327 295 c 1
 110 304 11 433 11 554 c 0
 11 666 103 787 288 806 c 0
 302 807 315 809 330 809 c 0
 414 810 502 810 637 811 c 0
 660 811 679 798 679 780 c 0
 679 779 679 778 679 777 c 0xf9
 670 703 665 386 665 227 c 0
 665 124 666 -123 669 -204 c 2
 669 -205 l 2
 669 -224 647 -242 621 -245 c 0xf2
339 737 m 1xf4
 332 737 325 737 318 737 c 0
 308 737 297 736 288 735 c 0
 173 723 109 653 109 564 c 0
 109 472 180 382 328 368 c 1
 329 508 333 664 339 737 c 1xf4
EndSplineSet
Validated: 1
EndChar

StartChar: ordmasculine
Encoding: 186 186 236
Width: 360
VWidth: 0
Flags: W
HStem: 539 42<61.1206 297.188> 629 42<150.576 215.474> 858 42<144.836 209.281>
VStem: 57 68<691.852 844.714> 235 68<681.359 818.474>
LayerCount: 2
Back
SplineSet
95 560 m 4
 161 560 207 559 265 562 c 1028
243 824 m 1
 259 820 269 787 269 760 c 0
 269 613 91 614 91 762 c 0
 91 899 227 905 249 836 c 1025
EndSplineSet
Fore
SplineSet
61 560 m 0
 65 571 85 581 103 581 c 0
 130 581 153 581 175 581 c 0
 208 581 236 581 270 583 c 0
 271 583 272 583 273 583 c 0
 289 583 299 576 299 567 c 0
 299 566 299 565 299 564 c 0
 296 553 279 542 260 541 c 0
 224 539 193 539 159 539 c 0
 137 539 113 539 87 539 c 0
 71 539 60 547 60 556 c 0
 60 557 60 559 61 560 c 0
214 831 m 1
 205 853 187 858 176 858 c 0
 173 858 170 857 169 857 c 0
 160 855 125 834 125 767 c 0
 125 691 175 671 190 671 c 0
 191 671 191 671 192 671 c 0
 197 672 235 688 235 755 c 0
 235 775 227 799 221 805 c 1
 213 808 209 814 209 820 c 0
 209 824 210 827 214 831 c 1
281 833 m 1
 298 817 303 790 303 765 c 0
 303 698 268 642 192 631 c 0
 184 630 177 629 170 629 c 0
 98 629 57 683 57 757 c 0
 57 827 90 879 157 896 c 0
 169 899 181 900 192 900 c 0
 240 900 273 875 283 844 c 0
 283 843 283 842 283 841 c 0
 283 838 282 836 281 833 c 1
EndSplineSet
Validated: 1
EndChar

StartChar: AE
Encoding: 198 198 237
Width: 990
VWidth: 0
Flags: W
HStem: -25 81<584.801 912.457> -11 82<646.059 926.336> 299 82<104.563 158 305 480> 725 81<549 889.125> 735 80<640.126 897.691>
VStem: 478 104<58.3264 306 393 696.645>
AnchorPoint: "LatinBelow.mark" 540 0 basechar 0
AnchorPoint: "LatinAbove.mark" 570 180 basechar 0
LayerCount: 2
Back
SplineSet
65 20 m 4
 239 311 420 770 420 770 c 5
 658 759 791 768 852 775 c 1029
880 30 m 5
 625 18 530 -16 530 100 c 4
 530 243 528 478 515 650 c 4
 511 699 495 731 477 752 c 1029
150 340 m 5
 298 335 655 353 780 370 c 1029
EndSplineSet
Fore
SplineSet
99 342 m 0xa4
 103 363 129 381 156 381 c 0
 157 381 157 381 158 381 c 0
 170 380 182 380 197 380 c 1
 295 590 370 778 370 778 c 1
 378 797 402 811 426 811 c 0
 427 811 428 811 429 811 c 0
 509 807 578 806 635 806 c 0xb4
 745 806 813 811 850 815 c 0
 852 815 855 815 857 815 c 0
 882 815 903 801 904 781 c 2
 904 780 l 2
 904 759 881 738 854 735 c 0x2c
 810 730 737 725 623 725 c 0
 600 725 575 726 549 726 c 1
 558 707 565 684 567 657 c 0
 573 577 577 484 579 393 c 1
 662 398 735 404 777 410 c 0
 780 410 783 411 786 411 c 0
 810 411 830 397 832 377 c 0
 832 376 832 375 832 374 c 0
 832 353 810 334 783 330 c 0
 736 324 662 317 580 312 c 1
 581 235 582 162 582 105 c 0
 582 67 586 56 632 56 c 0xb4
 673 56 748 65 883 71 c 0
 884 71 884 71 885 71 c 0
 911 71 932 54 932 33 c 2
 932 32 l 2
 931 10 905 -10 877 -11 c 0x64
 789 -15 708 -25 643 -25 c 0
 542 -25 478 -2 478 95 c 0
 478 154 479 227 480 306 c 1
 407 302 331 300 266 299 c 1
 217 198 165 95 112 6 c 0
 103 -11 80 -20 59 -20 c 0
 53 -20 47 -19 42 -18 c 0
 24 -13 13 1 13 16 c 0
 13 22 15 28 18 34 c 0
 65 114 113 206 158 298 c 1
 152 298 147 299 142 299 c 0
 117 300 98 316 98 336 c 0
 98 338 99 340 99 342 c 0xa4
480 388 m 1
 480 477 479 566 473 643 c 0
 470 674 459 696 449 712 c 1
 422 645 369 520 305 381 c 1
 360 382 420 385 480 388 c 1
EndSplineSet
Validated: 1
Colour: ff0000
EndChar

StartChar: ae
Encoding: 230 230 238
Width: 930
VWidth: 0
Flags: W
HStem: -19 72<189.022 327.909 599.664 753.58> 266 71<189.975 417 514 736.25> 552 72<177.42 331.11 602.182 741.978>
VStem: 59 98<85.2854 234.113> 418 96<157.301 263 337 442.047> 774 98<370.538 520.314>
AnchorPoint: "LatinBelow.mark" 465 0 basechar 0
AnchorPoint: "LatinAbove.mark" 465 0 basechar 0
LayerCount: 2
Back
SplineSet
98 500 m 5
 181 634 459 649 468 310 c 4
 477 -37 108 -58 108 155 c 4
 108 318 272 290 463 300 c 1029
833 105 m 5
 750 -29 472 -44 463 295 c 4
 454 642 823 663 823 450 c 4
 823 287 659 310 468 300 c 1029
EndSplineSet
Fore
SplineSet
513 337 m 1
 694 343 761 336 772 421 c 0
 773 428 774 436 774 445 c 0
 774 523 720 552 675 552 c 0
 671 552 668 551 664 551 c 0
 613 546 522 493 513 337 c 1
514 266 m 1
 529 95 617 53 676 53 c 0
 682 53 688 53 694 54 c 0
 729 59 766 79 788 115 c 0
 798 130 819 141 840 141 c 0
 845 141 850 140 854 139 c 0
 872 135 883 123 883 110 c 0
 883 105 881 100 878 95 c 0
 842 37 772 -7 693 -17 c 0
 682 -18 671 -19 660 -19 c 0
 574 -19 502 24 461 111 c 1
 418 37 350 -8 267 -17 c 0
 258 -18 249 -19 240 -19 c 0
 136 -19 59 50 59 150 c 0
 59 162 59 172 61 183 c 0
 84 339 280 330 417 334 c 1
 402 509 314 553 254 553 c 0
 248 553 242 553 237 552 c 0
 202 547 165 526 143 490 c 0
 133 475 112 464 91 464 c 0
 86 464 81 465 77 466 c 0
 59 470 48 482 48 495 c 0
 48 500 50 505 53 510 c 0
 89 568 159 612 238 622 c 0
 249 623 260 624 271 624 c 0
 357 624 429 581 470 494 c 1
 513 568 581 613 664 622 c 0
 673 623 682 624 691 624 c 0
 795 624 872 555 872 455 c 0
 872 444 871 434 870 424 c 0
 848 267 654 270 514 266 c 1
418 263 m 1
 235 257 171 267 159 185 c 0
 158 178 157 169 157 160 c 0
 157 82 211 53 256 53 c 0
 260 53 263 54 267 54 c 0
 317 59 407 111 418 263 c 1
EndSplineSet
Validated: 1
Colour: ff0000
EndChar

StartChar: OE
Encoding: 338 338 239
Width: 990
VWidth: 0
Flags: W
HStem: -23 82<289.326 435.17 583.869 914.352> -11 82<646.059 926.336> 343 82<419.964 474 580 800.859> 728 78<549.292 892.384> 742 79<285.287 435.366 679.009 899.488>
VStem: 63 104<224.06 576.996> 478 104<99.8326 342 425 687.587>
AnchorPoint: "LatinBelow.mark" 540 0 basechar 0
AnchorPoint: "LatinAbove.mark" 570 180 basechar 0
LayerCount: 2
Back
SplineSet
528 142 m 4
 407 -84 115 -1 115 391 c 4
 115 765 353 833 470 750 c 1028
440 770 m 5
 678 759 791 768 852 775 c 1029
880 30 m 5
 625 18 530 -16 530 100 c 4
 530 243 528 478 515 650 c 4
 511 699 488 739 470 750 c 1029
465 384 m 5
 591 379 718 390 795 400 c 1029
EndSplineSet
Fore
SplineSet
414 386 m 0xae
 419 407 444 425 471 425 c 0
 472 425 472 425 473 425 c 0
 474 425 l 1
 472 501 468 577 463 643 c 0
 460 681 440 713 435 717 c 0
 433 718 432 720 430 721 c 0
 410 735 387 742 363 742 c 0
 333 742 301 730 271 705 c 0
 219 661 167 565 167 396 c 0
 167 145 290 59 359 59 c 0
 361 59 362 59 364 59 c 0
 408 62 444 80 478 133 c 1
 478 194 478 267 476 342 c 1
 470 342 463 343 457 343 c 0
 432 344 413 360 413 379 c 0
 413 381 413 384 414 386 c 0xae
932 32 m 2
 931 10 905 -10 877 -11 c 0x76
 789 -15 708 -25 643 -25 c 0
 568 -25 514 -13 491 33 c 1
 455 2 411 -18 364 -22 c 0
 356 -23 349 -23 341 -23 c 0
 178 -23 63 137 63 386 c 0
 63 566 115 686 198 756 c 0
 251 801 313 821 371 821 c 0xae
 396 821 419 818 441 811 c 0
 443 811 445 811 447 811 c 0
 448 811 448 811 449 811 c 0
 533 807 601 806 656 806 c 0
 755 806 813 810 850 815 c 0
 852 815 855 815 857 815 c 0
 882 815 903 801 904 781 c 2
 904 780 l 2
 904 759 881 738 854 735 c 0
 816 731 761 728 675 728 c 0
 638 728 596 729 547 730 c 1
 558 709 565 684 567 657 c 0
 572 586 576 505 578 424 c 1
 662 426 740 433 792 440 c 0
 795 440 798 441 801 441 c 0
 825 441 845 427 847 407 c 0
 847 406 847 405 847 404 c 0
 847 383 825 364 798 360 c 0
 744 353 665 346 580 343 c 1
 582 254 582 170 582 105 c 0
 582 67 586 56 632 56 c 0
 673 56 748 65 883 71 c 0
 884 71 884 71 885 71 c 0x76
 911 71 932 54 932 33 c 2
 932 32 l 2
EndSplineSet
Validated: 1
Colour: ff0000
EndChar

StartChar: oe
Encoding: 339 339 240
Width: 930
VWidth: 0
Flags: W
HStem: -19 72<235.031 351.515 599.664 753.58> 266 71<514 736.25> 551 73<232.992 359.251 602.182 741.978>
VStem: 56 98<154.743 447.263> 423 90<160.578 266 337 443.027> 774 98<370.538 520.314>
AnchorPoint: "LatinBelow.mark" 465 0 basechar 0
AnchorPoint: "LatinAbove.mark" 465 0 basechar 0
LayerCount: 2
Back
SplineSet
466 290 m 4
 466 -78 105 -76 105 295 c 4
 105 637 391 652 441 480 c 1029
833 105 m 5
 750 -29 472 -44 463 295 c 4
 454 642 823 663 823 450 c 4
 823 287 659 310 468 300 c 1029
EndSplineSet
Fore
SplineSet
513 337 m 1
 694 343 761 336 772 421 c 0
 773 428 774 436 774 445 c 0
 774 523 720 552 675 552 c 0
 671 552 668 551 664 551 c 0
 613 546 522 493 513 337 c 1
514 266 m 1
 529 95 617 53 676 53 c 0
 682 53 688 53 694 54 c 0
 729 59 766 79 788 115 c 0
 798 130 819 141 840 141 c 0
 845 141 850 140 854 139 c 0
 872 135 883 123 883 110 c 0
 883 105 881 100 878 95 c 0
 842 37 772 -7 693 -17 c 0
 682 -18 671 -19 660 -19 c 0
 577 -19 508 21 466 101 c 1
 433 33 378 -11 301 -19 c 0
 293 -20 285 -20 277 -20 c 0
 144 -20 56 105 56 290 c 0
 56 470 132 586 254 617 c 0
 273 622 291 624 309 624 c 0
 390 624 452 575 478 508 c 1
 521 573 587 614 664 622 c 0
 673 623 682 624 691 624 c 0
 795 624 872 555 872 455 c 0
 872 444 871 434 870 424 c 0
 848 267 654 270 514 266 c 1
424 295 m 0
 424 297 423 299 423 301 c 0
 423 355 432 403 447 445 c 1
 443 444 439 444 435 444 c 0
 415 444 397 454 393 468 c 0
 375 530 328 551 293 551 c 0
 286 551 280 550 274 549 c 0
 233 539 154 476 154 300 c 0
 154 110 252 52 297 52 c 0
 299 52 300 52 301 52 c 0
 340 56 422 111 422 285 c 0
 422 288 423 292 424 295 c 0
EndSplineSet
Validated: 1
Colour: ff0000
EndChar

StartChar: perthousand
Encoding: 8240 8240 241
Width: 810
VWidth: 0
Flags: W
HStem: -6 52<389.614 449.248 615.205 673.808> 301 52<379.636 434.728 604.987 659.728> 457 52<136.614 195.808> 764 52<126.636 181.728>
VStem: 26 78<542.853 744.917> 218 78<525.485 723.129> 279 78<79.8527 281.917> 435 147<127 279> 471 111<80.5148 259.089> 696 78<62.4852 260.129>
LayerCount: 2
Back
SplineSet
699 282 m 5
 723 261 735 219 735 178 c 4
 735 69 689 20 642 20 c 4
 593 20 543 74 543 170 c 4
 543 279 592 327 640 327 c 4
 663 327 686 315 703 294 c 1029
495 765 m 5
 381 563 162 201 60 35 c 1029
474 282 m 5
 498 261 510 219 510 178 c 4
 510 69 464 20 417 20 c 4
 368 20 318 74 318 170 c 4
 318 279 367 327 415 327 c 4
 438 327 461 315 478 294 c 1029
221 745 m 5
 245 724 257 682 257 641 c 4
 257 532 211 483 164 483 c 4
 115 483 65 537 65 633 c 4
 65 742 114 790 162 790 c 4
 185 790 208 778 225 757 c 1029
EndSplineSet
Fore
SplineSet
263 754 m 0xfc40
 287 726 296 686 296 646 c 0
 296 614 293 587 286 563 c 0
 270 508 227 457 156 457 c 0
 70 457 26 532 26 628 c 0
 26 659 29 685 36 708 c 0
 53 766 98 816 170 816 c 0
 213 816 242 796 261 772 c 0
 263 769 265 765 265 761 c 0
 265 759 264 756 263 754 c 0xfc40
183 748 m 0
 170 761 156 764 154 764 c 2
 154 764 129 763 113 708 c 0
 108 689 104 666 104 638 c 0
 104 542 160 509 172 509 c 1
 172 509 192 509 208 563 c 0
 214 582 218 606 218 636 c 0
 218 674 205 713 188 727 c 0
 184 730 182 736 182 741 c 0
 182 743 182 746 183 748 c 0
436 285 m 0
 423 298 409 301 407 301 c 2
 407 301 382 300 366 245 c 0
 361 226 357 203 357 175 c 0
 357 79 413 46 425 46 c 1
 425 46 445 46 461 100 c 0
 467 119 471 143 471 173 c 0xfac0
 471 211 458 250 441 264 c 0
 437 267 435 273 435 278 c 0xf940
 435 280 435 283 436 285 c 0
509 790 m 0
 525 788 535 779 535 769 c 0
 535 766 534 763 532 760 c 0
 418 557 198 196 96 30 c 0
 89 18 70 9 52 9 c 0
 49 9 47 10 44 10 c 0
 29 12 21 20 21 30 c 0
 21 33 22 36 24 40 c 0
 126 206 344 569 458 770 c 0
 465 783 485 790 503 790 c 0
 505 790 507 790 509 790 c 0
741 291 m 0
 765 263 774 223 774 183 c 0
 774 151 771 124 764 100 c 0
 748 45 705 -6 634 -6 c 0
 582 -6 545 22 524 65 c 1
 502 25 464 -6 409 -6 c 0
 323 -6 279 69 279 165 c 0
 279 196 282 222 289 245 c 0
 306 303 351 353 423 353 c 0
 466 353 495 333 514 309 c 0
 516 306 518 302 518 298 c 0
 518 296 517 293 516 291 c 0
 520 286 524 282 527 277 c 1
 549 320 589 353 648 353 c 0
 691 353 720 333 739 309 c 0
 741 306 743 302 743 298 c 0
 743 296 742 293 741 291 c 0
661 285 m 0
 648 298 634 301 632 301 c 2
 632 301 607 300 591 245 c 0
 586 226 582 203 582 175 c 0xf940
 582 79 638 46 650 46 c 1
 650 46 670 46 686 100 c 0
 692 119 696 143 696 173 c 0
 696 211 683 250 666 264 c 0
 662 267 660 273 660 278 c 0
 660 280 660 283 661 285 c 0
EndSplineSet
Validated: 1
Colour: ff00
EndChar

StartChar: uni00AD
Encoding: 173 173 242
Width: 540
VWidth: 0
Flags: W
HStem: 301 79<85.0223 453.066> 310 70<85.0223 285.865>
VStem: 81 378<311.453 349.813>
LayerCount: 2
Back
SplineSet
410 340 m 5
 299 335 200 337 130 345 c 1029
EndSplineSet
Fore
SplineSet
459 342 m 0xa0
 457 323 433 305 406 304 c 0
 365 302 326 301 289 301 c 0xa0
 222 301 163 304 115 310 c 0x60
 94 312 81 324 81 339 c 0
 81 342 81 346 83 350 c 0
 90 367 114 380 138 380 c 0
 140 380 143 380 145 380 c 0
 185 376 238 373 298 373 c 0
 334 373 373 374 414 376 c 0
 415 376 415 376 416 376 c 0
 441 376 459 362 459 345 c 0
 459 344 459 343 459 342 c 0xa0
EndSplineSet
Validated: 1
Colour: ff
EndChar

StartChar: pi
Encoding: 960 960 244
Width: 720
VWidth: 0
Flags: W
HStem: -23 70<585.5 664.523> 529 72<267.957 456 554 638.323> 536 75<555.96 673.066>
VStem: 136 98<-8.7832 295.375> 173 98<177.703 518.997> 451 98<84.8896 531>
LayerCount: 2
Back
SplineSet
185 20 m 5
 209 257 217 359 222 470 c 4
 224 519 212 546 183 553 c 4
 152 561 94 572 90 575 c 5
 95 576 240 565 360 565 c 4
 427 565 565 572 630 575 c 1029
620 13 m 5
 573 24 509 51 505 151 c 4
 495 383 501 309 505 560 c 1029
EndSplineSet
Fore
SplineSet
665 3 m 0xac
 655 -12 634 -23 613 -23 c 0
 608 -23 603 -22 599 -21 c 0
 540 -7 461 32 456 145 c 0
 452 239 451 283 451 319 c 0
 451 369 454 403 456 531 c 1
 417 530 380 529 353 529 c 0
 324 529 297 530 266 531 c 1
 270 519 271 504 271 488 c 0
 271 483 271 479 271 474 c 0xcc
 266 362 258 260 234 23 c 0
 232 4 208 -15 181 -16 c 0
 180 -16 179 -16 178 -16 c 0
 154 -16 136 -3 136 14 c 0
 136 15 136 16 136 17 c 0xd4
 160 254 168 356 173 466 c 0
 173 469 173 472 173 475 c 0
 173 515 161 519 161 519 c 1
 129 527 80 527 52 548 c 1
 52 548 32 562 32 577 c 0
 32 589 43 601 84 609 c 0
 92 611 103 611 117 611 c 0xac
 172 611 269 601 367 601 c 0xcc
 430 601 569 608 634 611 c 0
 635 611 635 611 636 611 c 0
 661 611 679 597 679 580 c 0
 679 579 679 578 679 577 c 0
 677 558 653 540 626 539 c 0
 607 538 582 537 554 536 c 1
 552 410 549 377 549 329 c 0
 549 294 550 251 554 157 c 0
 557 70 606 55 641 47 c 0
 659 43 670 31 670 18 c 0
 670 13 668 8 665 3 c 0xac
EndSplineSet
Validated: 1
Colour: ff
EndChar

StartChar: uni2113
Encoding: 8467 8467 245
Width: 480
VWidth: 0
Flags: W
HStem: -21 70<258.311 369.568> 800 70<292.967 354.198>
VStem: 138 79<160.453 252.227 357 482.101> 360 80<619.294 798.797>
LayerCount: 2
Back
SplineSet
390 45 m 5
 293 -12 239 18 210 75 c 4
 190 114 180 170 180 210 c 4
 180 330 181 537 210 675 c 4
 229 767 265 835 330 835 c 4
 377 835 400 798 400 745 c 4
 400 663 348 541 280 405 c 4
 221 286 144 143 75 45 c 1028
EndSplineSet
Fore
SplineSet
325 800 m 0
 314 800 272 775 251 674 c 0
 232 585 224 464 220 357 c 1
 230 376 239 395 248 413 c 0
 316 548 360 668 360 741 c 0
 360 792 339 800 325 800 c 0
138 205 m 1
 138 327 139 537 164 676 c 0
 181 759 216 870 335 870 c 0
 415 870 440 804 440 749 c 0
 440 658 385 534 317 397 c 0
 287 337 253 271 217 207 c 1
 218 166 233 122 249 91 c 0
 264 62 279 49 300 49 c 0
 309 49 319 52 331 56 c 0
 340 59 351 64 364 72 c 0
 373 78 384 81 395 81 c 0
 408 81 421 76 429 68 c 0
 434 62 437 56 437 49 c 0
 437 38 429 26 416 18 c 0
 398 8 380 -1 363 -7 c 0
 337 -17 315 -21 294 -21 c 0
 231 -21 191 18 171 59 c 0
 165 73 160 87 155 102 c 1
 140 78 124 54 109 33 c 0
 101 22 85 14 70 14 c 0
 65 14 60 15 55 17 c 0
 44 21 39 29 39 38 c 0
 39 44 41 51 46 57 c 0
 76 99 107 150 138 205 c 1
EndSplineSet
Validated: 1
Colour: ff
EndChar

StartChar: estimated
Encoding: 8494 8494 246
Width: 1080
VWidth: 0
Flags: W
HStem: -20 34<421.631 651.233> 406 28<236.542 842.604> 828 32<432.937 644.513>
VStem: 59 177<264.541 406 434 575.459> 843 178<434 560.248>
LayerCount: 2
Fore
SplineSet
236 384 m 2
 236 170 l 2
 236 124 357 14 540 14 c 0
 663 14 777 75 845 153 c 1
 935 153 l 1
 876 87 820 42 755 16 c 0
 688 -11 641 -20 540 -20 c 0
 386 -20 281 19 192 102 c 0
 103 187 59 291 59 420 c 0
 59 549 105 653 194 738 c 0
 282 821 385 860 540 860 c 0
 682 860 781 826 873 751 c 0
 965 677 1015 553 1021 406 c 1
 256 406 l 2
 245 406 236 406 236 384 c 2
843 456 m 2
 843 666 l 2
 843 736 676 828 539 828 c 0
 367 828 236 713 236 676 c 2
 236 446 l 2
 236 439 242 434 256 434 c 2
 822 434 l 2
 840 434 843 439 843 456 c 2
EndSplineSet
Validated: 1
Colour: ff
EndChar

StartChar: partialdiff
Encoding: 8706 8706 247
Width: 660
VWidth: 0
Flags: W
HStem: -9 72<230.216 375.135> 556 72<248.669 390.031> 803 72<257.888 393.061>
VStem: 49 98<156.859 409.265> 440 143<405.859 507.514>
LayerCount: 2
Back
SplineSet
246 810 m 1
 282 830 314 839 343 839 c 0
 379 839 409 825 434 801 c 0
 502 736 534 596 534 454 c 0
 534 381 526 307 510 242 c 0
 474 93 382 27 295 27 c 0
 194 27 98 116 98 266 c 4
 98 296 102 328 110 362 c 4
 150 528 240 592 320 592 c 4
 400 592 470 529 474 439 c 1029
EndSplineSet
Fore
SplineSet
204 787 m 0
 199 792 197 799 197 805 c 0
 197 817 205 829 220 837 c 0
 263 861 306 875 350 875 c 0
 405 875 446 853 475 825 c 0
 554 749 583 604 583 459 c 0
 583 384 576 309 559 241 c 0
 522 88 417 -9 288 -9 c 0
 148 -9 49 104 49 261 c 0
 49 293 53 327 61 363 c 0
 102 531 202 628 327 628 c 0
 395 628 450 597 483 550 c 1
 469 650 436 736 393 777 c 0
 372 797 353 803 336 803 c 0
 322 803 301 799 272 783 c 0
 262 777 250 774 239 774 c 0
 225 774 212 779 204 787 c 0
147 271 m 0
 147 128 240 63 302 63 c 0
 347 63 431 98 466 243 c 0
 478 292 486 348 489 405 c 1
 486 404 484 404 481 404 c 0
 461 404 441 414 440 433 c 0
 436 514 373 556 313 556 c 0
 278 556 198 525 159 361 c 0
 151 329 147 299 147 271 c 0
EndSplineSet
Validated: 1
Colour: ff
EndChar

